SplineFontDB: 3.0
FontName: Crimson-Bold
FullName: Crimson Bold
FamilyName: Crimson
Weight: Bold
Copyright: Copyright (c) 2010, Sebastian Kosch (sebastian@aldusleaf.org),\nwith Reserved Font Name "Crimson".\nThis Font Software is licensed under the SIL Open Font License, Version 1.1.\nThis license is available with a FAQ at: http://scripts.sil.org/OFL
UComments: "2010-5-14: Created."
Version: 0.8
ItalicAngle: 0
UnderlinePosition: -102
UnderlineWidth: 51
Ascent: 742
Descent: 282
InvalidEm: 0
LayerCount: 2
Layer: 0 0 "Back" 1
Layer: 1 0 "Fore" 0
XUID: [1021 85 519305545 5082149]
FSType: 0
OS2Version: 3
OS2_WeightWidthSlopeOnly: 0
OS2_UseTypoMetrics: 1
CreationTime: 1273891947
ModificationTime: 1413033912
PfmFamily: 17
TTFWeight: 700
TTFWidth: 5
LineGap: 256
VLineGap: 0
OS2TypoAscent: 742
OS2TypoAOffset: 0
OS2TypoDescent: -282
OS2TypoDOffset: 0
OS2TypoLinegap: 256
OS2WinAscent: 948
OS2WinAOffset: 0
OS2WinDescent: 332
OS2WinDOffset: 0
HheadAscent: 742
HheadAOffset: 0
HheadDescent: -282
HheadDOffset: 0
OS2SubXSize: 665
OS2SubYSize: 614
OS2SubXOff: 0
OS2SubYOff: 76
OS2SupXSize: 665
OS2SupYSize: 614
OS2SupXOff: 0
OS2SupYOff: 358
OS2StrikeYSize: 51
OS2StrikeYPos: 265
OS2CapHeight: 0
OS2XHeight: 0
OS2FamilyClass: 258
OS2Vendor: 'PfEd'
Lookup: 1 0 0 "'smcp' Lowercase to Small Capitals in Latin lookup 0" { "'smcp' Lowercase to Small Capitals in Latin lookup 0 subtable" ("sc") } ['smcp' ('DFLT' <'dflt' > 'latn' <'dflt' > ) ]
Lookup: 1 0 0 "'c2sc' Capitals to Small Capitals in Latin lookup 0" { "'c2sc' Capitals to Small Capitals in Latin lookup 0 subtable"  } ['c2sc' ('DFLT' <'dflt' > 'latn' <'dflt' > ) ]
Lookup: 258 0 0 "'kern' Horizontal Kerning in Latin lookup 0" { "'kern' Horizontal Kerning in Latin lookup 0 kerning class 1" [153,0,0] } ['kern' ('latn' <'dflt' > ) ]
MarkAttachClasses: 1
DEI: 91125
KernClass2: 118+ 91 "'kern' Horizontal Kerning in Latin lookup 0 kerning class 1"
 9 ampersand
 3 bar
 10 exclamdown
 10 registered
 12 questiondown

StartChar: exclam
Encoding: 33 33 1
Width: 270
Flags: W
HStem: -11 150<81.25 185.969> 622 20G<120 153.5>
VStem: 59 150<12.2802 116> 72 128<370.997 626.241>
LayerCount: 2
Back
Fore
SplineSet
59 66 m 0xe0
 59 106 93 139 134 139 c 27
 176 139 209 103 209 63 c 0
 209 23 176 -11 135 -11 c 27
 93 -11 59 23 59 66 c 0xe0
138 642 m 0
 169 642 200 617 200 574 c 0
 200 546 171 309 158 221 c 1
 154 208 150 199 138 195 c 1
 133 195 121 202 115 212 c 1
 104 279 72 524 72 575 c 0xd0
 72 617 102 642 138 642 c 0
EndSplineSet
Validated: 1
Substitution2: "'smcp' Lowercase to Small Capitals in Latin lookup 0 subtable" exclam.sc
EndChar

StartChar: quotedbl
Encoding: 34 34 2
Width: 331
Flags: W
HStem: 431 269<75.1769 111.588 235.177 271.588>
VStem: 36 93<508.041 678.334> 196 93<508.041 678.334>
LayerCount: 2
Back
Fore
SplineSet
258 700 m 0
 272 700 280 696 289 684 c 1
 289 650 279 516 272 454 c 1
 268 447 257 436 248 431 c 1
 244 431 240 434 238 439 c 1
 213 524 196 584 196 617 c 0
 196 650 220 700 258 700 c 0
98 700 m 0
 112 700 120 696 129 684 c 1
 129 650 119 516 112 454 c 1
 108 447 97 436 88 431 c 1
 84 431 80 434 78 439 c 1
 53 524 36 584 36 617 c 0
 36 650 60 700 98 700 c 0
EndSplineSet
Validated: 513
EndChar

StartChar: numbersign
Encoding: 35 35 3
Width: 475
Flags: W
HStem: 148 67<61.1884 386.122> 339 67<88.2669 414.056>
LayerCount: 2
Back
Fore
SplineSet
408 339 m 1
 249 339 249 339 79 339 c 1
 67 339 82 402 95 406 c 9
 95 406 421 406 421 406 c 17
 435 406 421 345 408 339 c 1
380 148 m 1
 221 148 221 148 51 148 c 1
 39 148 55 211 68 215 c 9
 68 215 394 215 394 215 c 17
 408 215 393 154 380 148 c 1
379 528 m 1
 379 528 300 36 300 36 c 2
 299 32 284 23 269 23 c 0
 259 23 258 27 258 27 c 1
 258 27 337 518 337 518 c 1
 340 527 347 531 366 531 c 0
 375 531 376 530 379 528 c 1
218 528 m 1
 218 528 138 36 138 36 c 2
 137 32 123 23 108 23 c 0
 98 23 97 27 97 27 c 1
 97 27 176 518 176 518 c 1
 179 527 186 531 205 531 c 0
 214 531 215 530 218 528 c 1
EndSplineSet
Validated: 549
EndChar

StartChar: dollar
Encoding: 36 36 4
Width: 518
Flags: W
HStem: -10 40<222.611 309.248> 450 21G<424.5 428> 601 40<213.095 279.092> 648 20G<284.738 292>
VStem: 54 40<131.239 189.022> 61 127<462.101 543.456> 174 39<-35.9908 4.01404> 288 39<624.049 664.779> 342 126<88.2504 184.301> 397 39<450.001 513.559>
LayerCount: 2
Back
Fore
SplineSet
265 641 m 0xf580
 321 641 368 626 426 614 c 1
 431 563 433 513 436 455 c 1
 433 451 430 450 426 450 c 0
 423 450 399 448 397 456 c 0
 389 510 344 601 270 601 c 0
 233 601 188 582 188 518 c 0xf540
 188 459 264 401 327 361 c 0
 391 320 468 294 468 167 c 0
 468 62 364 -10 259 -10 c 0
 203 -10 134 2 77 15 c 1
 67 57 56 151 54 178 c 1
 58 184 77 191 82 191 c 0
 89 191 93 189 94 183 c 0xf980
 103 131 163 30 249 30 c 0
 285 30 342 47 342 124 c 0
 342 199 249 249 201 282 c 0
 131 329 61 368 61 468 c 0
 61 567 166 641 265 641 c 0xf580
288 668 m 17
 296 668 327 667 327 660 c 9
 327 660 213 -40 213 -40 c 17
 204 -40 174 -38 174 -31 c 9xf3
 174 -31 288 668 288 668 c 17
EndSplineSet
Validated: 517
EndChar

StartChar: percent
Encoding: 37 37 5
Width: 686
Flags: W
HStem: 0 31<467.28 532.815> 274 30<451.791 517.192> 337 31<170.28 235.815> 611 30<154.791 220.192>
VStem: 39 95<408.108 565.734> 257 95<412.743 570.7> 336 95<71.1076 228.734> 554 95<75.7433 233.7>
LayerCount: 2
Back
Fore
SplineSet
187 611 m 3xfd
 138 611 134 548 134 500 c 24
 134 442 154 368 203 368 c 3
 252 368 257 430 257 477 c 24
 257 536 236 611 187 611 c 3xfd
195 641 m 0
 287 641 352 577 352 492 c 0
 352 408 284 337 196 337 c 0
 103 337 39 403 39 487 c 0
 39 571 107 641 195 641 c 0
484 274 m 3
 435 274 431 211 431 163 c 24xfb
 431 105 451 31 500 31 c 3
 549 31 554 93 554 140 c 24
 554 199 533 274 484 274 c 3
492 304 m 0
 584 304 649 240 649 155 c 0
 649 71 581 0 493 0 c 0
 400 0 336 66 336 150 c 0
 336 234 404 304 492 304 c 0
623 635 m 1
 623 635 107 -5 107 -5 c 2
 103 -11 83 -20 66 -20 c 0
 51 -20 51 -8 51 -8 c 1
 51 -8 567 632 567 632 c 1
 575 639 590 645 607 645 c 0
 616 645 623 640 623 635 c 1
EndSplineSet
Validated: 513
EndChar

StartChar: ampersand
Encoding: 38 38 6
Width: 696
Flags: W
HStem: -4 76<195.5 346.851> -3 83<492 573.669> 280 32<480.172 530.879 608.817 679.93> 609 36<276.539 345.492>
VStem: 56 130<137.885 247.308> 139 116<447.772 573.657> 369 103<455.616 587.791>
LayerCount: 2
Back
Fore
SplineSet
382 95 m 1xba
 354 133 259 264 224 313 c 1
 202 294 186 266 186 220 c 0
 186 154 227 72 318 72 c 0
 352 72 369 84 382 95 c 1xba
312 609 m 0
 277 609 255 574 255 526 c 0x36
 255 474 287 430 304 407 c 1
 348 430 369 467 369 513 c 0
 369 545 357 609 312 609 c 0
295 645 m 0
 396 645 472 599 472 529 c 0
 472 439 391 391 330 370 c 1
 358 333 439 222 470 181 c 1
 494 209 531 250 531 262 c 0
 531 285 489 278 482 280 c 1
 478 286 478 310 483 312 c 1
 483 312 551 311 551 311 c 2
 586 310 634 312 679 314 c 1
 683 312 683 287 677 281 c 1
 670 280 625 280 608 266 c 0
 594 255 525 173 498 145 c 1
 505 137 550 80 572 80 c 0
 600 80 625 119 636 133 c 1
 645 133 656 125 661 115 c 1
 657 103 581 -3 519 -3 c 3x76
 465 -3 437 28 409 60 c 1
 364 17 304 -4 237 -4 c 3
 154 -4 56 55 56 156 c 0xba
 56 273 142 320 196 354 c 1
 175 385 139 423 139 490 c 0
 139 580 201 645 295 645 c 0
EndSplineSet
Validated: 545
EndChar

StartChar: quotesingle
Encoding: 39 39 7
Width: 181
Flags: W
HStem: 451 260<83.1421 120.807>
VStem: 33 111<531.556 686.937>
LayerCount: 2
Back
Fore
SplineSet
106 711 m 0
 122 711 137 704 144 689 c 1
 139 626 133 539 121 470 c 1
 117 464 106 455 95 451 c 1
 91 451 86 453 83 457 c 1
 61 515 33 580 33 627 c 0
 33 671 64 711 106 711 c 0
EndSplineSet
Validated: 513
EndChar

StartChar: parenleft
Encoding: 40 40 8
Width: 291
Flags: W
VStem: 33 111<147.177 462.823>
LayerCount: 2
Back
Fore
SplineSet
144 305 m 0
 144 74 242 -76 281 -110 c 1
 282 -113 277 -134 272 -137 c 1
 197 -103 33 36 33 305 c 0
 33 574 197 713 272 747 c 1
 277 744 282 723 281 720 c 1
 242 686 144 536 144 305 c 0
EndSplineSet
Validated: 1
Substitution2: "'smcp' Lowercase to Small Capitals in Latin lookup 0 subtable" parenleft.sc
EndChar

StartChar: parenright
Encoding: 41 41 9
Width: 291
Flags: W
VStem: 147 111<147.177 462.823>
LayerCount: 2
Back
Fore
SplineSet
258 305 m 0
 258 36 94 -103 19 -137 c 1
 14 -134 9 -113 10 -110 c 1
 49 -76 147 74 147 305 c 0
 147 536 49 686 10 720 c 1
 9 723 14 744 19 747 c 1
 94 713 258 574 258 305 c 0
EndSplineSet
Validated: 1
Substitution2: "'smcp' Lowercase to Small Capitals in Latin lookup 0 subtable" parenright.sc
EndChar

StartChar: asterisk
Encoding: 42 42 10
Width: 441
Flags: W
HStem: 424 89<41.75 143.237>
VStem: 154 91<309.181 407.934>
LayerCount: 2
Back
Fore
SplineSet
287 618 m 0
 308 642 341 640 356 626 c 0
 372 610 376 581 355 557 c 0
 323 521 286 533 258 506 c 1
 258 506 251 498 251 493 c 0
 251 489 254 487 259 485 c 0
 294 469 321 485 365 466 c 0
 394 454 403 421 394 402 c 0
 384 382 357 370 328 382 c 0
 284 401 283 440 249 458 c 1
 249 458 239 464 235 461 c 0
 233 460 232 459 231 453 c 0
 227 415 250 395 245 347 c 0
 242 316 214 298 194 300 c 0
 172 304 151 325 154 356 c 0
 159 404 195 417 202 455 c 1
 202 455 203 465 200 469 c 0
 199 471 197 471 191 470 c 0
 154 462 141 435 94 424 c 0
 63 417 38 438 34 458 c 0
 31 480 44 506 75 513 c 0
 122 524 145 493 184 498 c 1
 184 498 196 499 197 504 c 0
 198 507 196 510 193 515 c 0
 174 548 144 551 119 593 c 0
 103 620 115 651 133 661 c 0
 153 671 182 666 198 639 c 0
 223 597 200 566 217 531 c 1
 217 531 222 521 227 520 c 0
 229 520 232 520 236 524 c 0
 262 552 255 582 287 618 c 0
EndSplineSet
Validated: 545
EndChar

StartChar: plus
Encoding: 43 43 11
Width: 542
Flags: W
HStem: 217 58<33.3928 240 299 508.297>
VStem: 241 58<11.0188 217 275 482.557>
LayerCount: 2
Back
Fore
SplineSet
241 474 m 1
 252 483 279 485 283 485 c 0
 293 485 299 483 299 476 c 2
 299 476 298 275 298 275 c 5
 298 275 502 275 502 275 c 6
 508 275 511 267 511 261 c 4
 511 240 505 227 497 217 c 5
 497 217 299 217 299 217 c 5
 299 217 299 19 299 19 c 1
 287 11 262 8 252 8 c 0
 246 8 241 12 241 16 c 2
 241 16 241 217 241 217 c 5
 241 217 37 217 37 217 c 6
 32 217 31 223 31 233 c 4
 31 237 33 263 41 275 c 5
 41 275 240 275 240 275 c 5
 240 275 241 474 241 474 c 1
EndSplineSet
Validated: 513
EndChar

StartChar: comma
Encoding: 44 44 12
Width: 224
Flags: W
HStem: -157 296
VStem: 90 87<-35.4663 70>
LayerCount: 2
Back
Fore
SplineSet
119 139 m 0
 136 139 152 131 163 123 c 1
 171 108 177 82 177 58 c 0
 177 -37 110 -122 40 -157 c 1
 29 -154 19 -139 19 -133 c 1
 38 -121 90 -76 90 -27 c 0
 90 6 42 3 42 68 c 0
 42 84 57 139 119 139 c 0
EndSplineSet
Validated: 513
EndChar

StartChar: hyphen
Encoding: 45 45 13
Width: 375
Flags: W
HStem: 210 69<73.344 312.262>
VStem: 56 263
LayerCount: 2
Back
Fore
SplineSet
71 267 m 1
 71 267 279 278 312 279 c 0
 316 279 319 278 319 270 c 0
 319 253 312 227 304 210 c 1
 257 207 154 203 63 199 c 0
 58 199 56 201 56 210 c 0
 56 229 64 252 71 267 c 1
EndSplineSet
Validated: 513
EndChar

StartChar: period
Encoding: 46 46 14
Width: 234
Flags: W
HStem: -11 150<64.25 168.969>
VStem: 42 150<12.2802 116>
LayerCount: 2
Back
Fore
SplineSet
42 66 m 0
 42 106 76 139 117 139 c 27
 159 139 192 103 192 63 c 0
 192 23 159 -11 118 -11 c 27
 76 -11 42 23 42 66 c 0
EndSplineSet
Validated: 513
EndChar

StartChar: slash
Encoding: 47 47 15
Width: 422
Flags: W
LayerCount: 2
Back
Fore
SplineSet
374 761 m 0
 388 761 392 757 393 753 c 1
 393 753 97 -14 97 -14 c 2
 95 -21 82 -35 47 -35 c 0
 32 -35 29 -28 29 -28 c 1
 29 -28 325 739 325 739 c 1
 329 747 344 761 374 761 c 0
EndSplineSet
Validated: 1
Substitution2: "'smcp' Lowercase to Small Capitals in Latin lookup 0 subtable" slash.sc
EndChar

StartChar: zero
Encoding: 48 48 16
Width: 492
Flags: W
HStem: -3 42<214.283 287.687> 583 42<209.744 287.639>
VStem: 25.5 130<168.111 441.573> 336.5 130<174 457.716>
LayerCount: 2
Back
Fore
SplineSet
249.5 583 m 0
 184.5 583 155.5 459 155.5 302 c 0
 155.5 145 198.5 39 249.5 39 c 0
 314.5 39 336.5 171 336.5 328 c 0
 336.5 485 304.5 583 249.5 583 c 0
248.5 625 m 0
 368.5 625 466.5 511 466.5 311 c 0
 466.5 137 368.5 -3 248.5 -3 c 0
 128.5 -3 25.5 111 25.5 311 c 0
 25.5 485 128.5 625 248.5 625 c 0
EndSplineSet
Validated: 513
EndChar

StartChar: one
Encoding: 49 49 17
Width: 492
Flags: W
HStem: -4 37<122.108 188.386 334.389 400.667> 623 20G<319.888 326.388>
VStem: 196.388 130<41.2661 533.021>
LayerCount: 2
Back
Fore
SplineSet
196.387695312 145 m 2
 196.387695312 145 196.387695312 482 196.387695312 482 c 2
 196.387695312 526 191.387695312 535 175.387695312 535 c 0
 166.387695312 535 124.387695312 524 103.387695312 512 c 1
 95.3876953125 516 90.3876953125 525 90.3876953125 531 c 0
 90.3876953125 533 89.3876953125 542 92.3876953125 543 c 0
 207.387695312 592 318.387695312 643 321.387695312 643 c 2
 321.387695312 643 323.387695312 643 323.387695312 643 c 2
 329.387695312 643 334.387695312 629 335.387695312 624 c 1
 335.387695312 624 326.387695312 595 326.387695312 530 c 2
 326.387695312 530 326.387695312 145 326.387695312 145 c 2
 326.387695312 102 326.387695312 71 334.387695312 51 c 0
 339.387695312 38 385.387695312 34 398.387695312 33 c 1
 403.387695312 26 402.387695312 2 398.387695312 -4 c 1
 359.387695312 0 303.387695312 3 261.387695312 3 c 0
 219.387695312 3 163.387695312 0 124.387695312 -4 c 1
 120.387695312 2 119.387695312 26 124.387695312 33 c 1
 137.387695312 34 183.387695312 38 188.387695312 51 c 0
 196.387695312 71 196.387695312 102 196.387695312 145 c 2
EndSplineSet
Validated: 545
EndChar

StartChar: two
Encoding: 50 50 18
Width: 492
Flags: W
HStem: 0 102<162.5 389.512> 564 78<158.999 300.5>
VStem: 295.5 131<381.569 516.668> 428.5 34<155.14 197.879>
LayerCount: 2
Back
Fore
SplineSet
462.5 192 m 1
 451.5 145 408.5 19 402.5 0 c 9
 402.5 0 38.5 0 38.5 0 c 1
 33.5 5 30.5 13 29.5 18 c 1
 106.5 103 167.5 161 237.5 271 c 0
 283.5 344 295.5 404 295.5 449 c 0
 295.5 515 242.5 564 188.5 564 c 0
 118.5 564 81.5 501 73.5 493 c 1
 68.5 493 52.5 502 52.5 517 c 1
 69.5 555 140.5 642 252.5 642 c 0
 348.5 642 426.5 582 426.5 474 c 0
 426.5 413 396.5 354 350.5 300 c 0
 295.5 236 231.5 165 162.5 102 c 1
 162.5 102 334.5 102 334.5 102 c 2
 394.5 102 412.5 155 428.5 191 c 0
 430.5 196 436.5 198 442.5 198 c 0
 449.5 198 457.5 196 462.5 192 c 1
EndSplineSet
Validated: 513
EndChar

StartChar: three
Encoding: 51 51 19
Width: 492
Flags: W
HStem: -6 42<179.235 281.423> 313 33<148.165 207.352> 568 74<170.612 286>
VStem: 295 117<442.547 531.989> 320 133<129.219 265.223>
LayerCount: 2
Back
Fore
SplineSet
262 642 m 0xf0
 310 642 412 614 412 514 c 0xf0
 412 430 329 382 304 372 c 1
 336 370 453 340 453 220 c 0
 453 79 314 -6 186 -6 c 0
 121 -6 71 15 51 31 c 1
 44 40 39 64 39 74 c 0
 39 98 57 127 91 127 c 0
 118 127 139 99 155 80 c 0
 173 59 200 36 226 36 c 0
 288 36 320 88 320 178 c 0xe8
 320 253 278 322 211 322 c 0
 205 322 182 320 156 313 c 1
 152 318 147 329 147 337 c 0
 147 341 147 343 148 346 c 1
 205 356 295 387 295 458 c 0
 295 519 261 568 201 568 c 0
 147 568 99 524 92 516 c 1
 85 518 80 535 80 544 c 1
 117 593 182 642 262 642 c 0xf0
EndSplineSet
Validated: 513
EndChar

StartChar: four
Encoding: 52 52 20
Width: 492
Flags: W
HStem: -5 21G<327 365> 174 68<106.776 286 412 462> 624 20G<381 388>
VStem: 286 126<4 174 242 466>
LayerCount: 2
Back
Fore
SplineSet
385 644 m 0
 391 644 412 628 412 616 c 10
 412 616 412 242 412 242 c 25
 412 242 457 242 457 242 c 2
 464 242 471 224 471 195 c 0
 471 180 462 174 462 174 c 9
 462 174 412 174 412 174 c 25
 412 174 412 4 412 4 c 17
 412 4 386 -5 344 -5 c 0
 310 -5 286 -1 286 8 c 2
 286 8 286 174 286 174 c 25
 286 174 32 174 32 174 c 17
 24 178 21 186 21 199 c 1
 141 348 259 498 365 630 c 0
 372 638 377 644 385 644 c 0
286 466 m 17
 251 421 126 262 107 242 c 1
 100 242 236 242 286 242 c 1
 286 242 286 466 286 466 c 17
EndSplineSet
Validated: 549
EndChar

StartChar: five
Encoding: 53 53 21
Width: 492
Flags: W
HStem: -6 42<181.735 283.532> 328 95<145.319 299.5> 527 108<163.062 382.06> 626 20G<401.5 411>
VStem: 322.5 128<137.052 255.276>
LayerCount: 2
Back
Fore
SplineSet
250.5 423 m 0xe8
 348.5 423 450.5 335 450.5 230 c 0
 450.5 89 316.5 -6 188.5 -6 c 0
 123.5 -6 73.5 15 53.5 31 c 1
 46.5 40 41.5 64 41.5 74 c 0
 41.5 98 59.5 127 93.5 127 c 0
 120.5 127 141.5 99 157.5 80 c 0
 175.5 59 202.5 36 228.5 36 c 0
 290.5 36 322.5 88 322.5 178 c 0
 322.5 269 241.5 328 184.5 328 c 0
 121.5 328 102.5 318 92.5 314 c 1
 86.5 314 82.5 328 82.5 334 c 1
 83.5 337 130.5 585 138.5 635 c 1
 181.5 635 252.5 635 316.5 635 c 0xe8
 358.5 635 394.5 643 408.5 646 c 1xd8
 413.5 644 421.5 643 421.5 632 c 0
 421.5 615 391.5 549 384.5 536 c 1
 332.5 531 277.5 529 234.5 528 c 0
 202.5 527 177.5 527 167.5 527 c 1
 165.5 517 144.5 410 144.5 410 c 1
 169.5 416 213.5 423 250.5 423 c 0xe8
EndSplineSet
Validated: 513
EndChar

StartChar: six
Encoding: 54 54 22
Width: 492
Flags: W
HStem: -6 42<211.475 288.978> 346 59<193.51 279.893> 619 26<390.52 416.255>
VStem: 38.5 131<132.653 330.875> 322.5 131<118.753 295.085>
LayerCount: 2
Back
Fore
SplineSet
176.5 327 m 1
 171.5 292 169.5 249 169.5 221 c 0
 169.5 137 189.5 36 253.5 36 c 0
 292.5 36 322.5 92 322.5 182 c 0
 322.5 267 297.5 346 226.5 346 c 0
 214.5 346 190.5 341 176.5 327 c 1
270.5 405 m 0
 367.5 405 453.5 352 453.5 207 c 0
 453.5 90 348.5 -6 242.5 -6 c 0
 130.5 -6 38.5 112 38.5 242 c 3
 38.5 353 95.5 449 154.5 511 c 0
 240.5 602 342.5 636 410.5 645 c 1
 418.5 639 419.5 629 417.5 619 c 1
 291.5 567 220.5 481 188.5 380 c 1
 214.5 395 245.5 405 270.5 405 c 0
EndSplineSet
Validated: 513
EndChar

StartChar: seven
Encoding: 55 55 23
Width: 492
Flags: W
HStem: -11 21G<141 145.5> 536 100<97.8025 363.303 363.5 377.5>
VStem: 31.5 36<446.097 495.277>
LayerCount: 2
Back
Fore
SplineSet
363.5 637 m 2
 398.5 637 447.5 641 453.5 641 c 0
 459.5 641 460.5 631 460.5 626 c 0
 460.5 617 449.5 598 433.5 565 c 2
 433.5 565 161.5 -8 161.5 -8 c 1
 157.5 -11 146.5 -11 144.5 -11 c 0
 137.5 -11 100.5 -6 100.5 13 c 1
 142.5 73 286.5 344 377.5 536 c 1
 377.5 536 146.5 536 146.5 536 c 2
 96.5 536 80.5 490 67.5 452 c 0
 66.5 449 65.5 447 55.5 446 c 0
 45.5 445 35.5 450 31.5 454 c 1
 44.5 503 68.5 605 75.5 636 c 1
 91.5 636 363.5 637 363.5 637 c 2
EndSplineSet
Validated: 513
EndChar

StartChar: eight
Encoding: 56 56 24
Width: 492
Flags: W
HStem: -6 42<202.292 301.323> 592 41<199.884 279.108>
VStem: 36.5 131<70.2294 227.79> 51.5 129<443.973 553.051> 305.5 125<422.396 558.947> 324.5 131<89.4662 187.387>
LayerCount: 2
Back
Fore
SplineSet
249.5 36 m 3xe4
 298.5 36 324.5 73 324.5 118 c 3
 324.5 195 243.5 253 213.5 275 c 0
 208.5 279 206.5 280 204.5 280 c 0
 202.5 280 200.5 281 199.5 279 c 0
 177.5 252 167.5 206 167.5 156 c 27
 167.5 99 190.5 36 249.5 36 c 3xe4
241.5 592 m 3
 204.5 592 180.5 556 180.5 512 c 3
 180.5 443 241.5 399 266.5 386 c 0
 269.5 384 274.5 381 278.5 381 c 0
 281.5 381 283.5 383 284.5 384 c 0
 302.5 411 305.5 446 305.5 486 c 3xd8
 305.5 531 286.5 592 241.5 592 c 3
243.5 633 m 27
 335.5 633 430.5 584 430.5 489 c 3xd8
 430.5 426 376.5 378 319.5 354 c 0
 317.5 353 317.5 350 319.5 349 c 0
 356.5 327 455.5 257 455.5 167 c 3
 455.5 60 348.5 -6 241.5 -6 c 27
 140.5 -6 36.5 33 36.5 153 c 3xe4
 36.5 236 104.5 288 164.5 306 c 0
 166.5 307 166.5 308 162.5 311 c 0
 127.5 341 51.5 392 51.5 486 c 3
 51.5 574 149.5 633 243.5 633 c 27
EndSplineSet
Validated: 513
EndChar

StartChar: nine
Encoding: 57 57 25
Width: 492
Flags: W
HStem: -6 26<75.7447 101.48> 234 59<212.107 298.49> 603 42<203.022 280.525>
VStem: 38.5 131<343.915 520.247> 322.5 131<307.987 506.347>
LayerCount: 2
Back
Fore
SplineSet
315.5 312 m 1
 321.5 341 322.5 386 322.5 418 c 0
 322.5 502 302.5 603 238.5 603 c 0
 199.5 603 169.5 547 169.5 457 c 0
 169.5 372 194.5 293 265.5 293 c 0
 277.5 293 301.5 298 315.5 312 c 1
74.5 20 m 1
 200.5 72 271.5 158 303.5 259 c 1
 277.5 244 246.5 234 221.5 234 c 0
 124.5 234 38.5 287 38.5 432 c 0
 38.5 549 143.5 645 249.5 645 c 0
 361.5 645 453.5 527 453.5 397 c 3
 453.5 286 396.5 190 337.5 128 c 0
 251.5 37 149.5 3 81.5 -6 c 1
 73.5 0 72.5 10 74.5 20 c 1
EndSplineSet
Validated: 513
EndChar

StartChar: colon
Encoding: 58 58 26
Width: 262
Flags: W
HStem: -11 150<78.25 182.969> 281 150<78.25 182.969>
VStem: 56 150<12.2802 116 304.28 408>
LayerCount: 2
Back
Fore
SplineSet
56 358 m 0
 56 398 90 431 131 431 c 27
 173 431 206 395 206 355 c 0
 206 315 173 281 132 281 c 27
 90 281 56 315 56 358 c 0
56 66 m 0
 56 106 90 139 131 139 c 27
 173 139 206 103 206 63 c 0
 206 23 173 -11 132 -11 c 27
 90 -11 56 23 56 66 c 0
EndSplineSet
Validated: 1
Substitution2: "'smcp' Lowercase to Small Capitals in Latin lookup 0 subtable" colon.sc
EndChar

StartChar: semicolon
Encoding: 59 59 27
Width: 254
Flags: W
HStem: 281 151<73.8889 173.448>
VStem: 49 147<305 409.243> 110 87<-35.4663 70>
LayerCount: 2
Back
Fore
SplineSet
139 139 m 0xa0
 156 139 172 131 183 123 c 1
 191 108 197 82 197 58 c 0
 197 -37 130 -122 60 -157 c 1
 49 -154 39 -139 39 -133 c 1
 58 -121 110 -76 110 -27 c 0
 110 6 62 3 62 68 c 0
 62 84 77 139 139 139 c 0xa0
49 359 m 0xc0
 49 399 84 432 125 432 c 27
 165 432 196 399 196 359 c 0
 196 319 166 281 125 281 c 27
 83 281 49 319 49 359 c 0xc0
EndSplineSet
Validated: 1
Substitution2: "'smcp' Lowercase to Small Capitals in Latin lookup 0 subtable" semicolon.sc
EndChar

StartChar: less
Encoding: 60 60 28
Width: 495
Flags: W
LayerCount: 2
Back
Fore
SplineSet
444 45 m 0
 444 38 434 -15 428 -15 c 0
 427 -15 425 -14 423 -13 c 2
 423 -13 48 177 48 177 c 2
 33 185 30 200 30 217 c 0
 30 228 38 236 48 241 c 2
 48 241 421 428 421 428 c 2
 423 429 425 430 426 430 c 0
 429 430 436 410 443 373 c 0
 444 367 440 364 440 364 c 1
 440 364 122 209 122 209 c 1
 122 209 441 51 441 51 c 1
 441 51 444 50 444 45 c 0
EndSplineSet
Validated: 1
Substitution2: "'smcp' Lowercase to Small Capitals in Latin lookup 0 subtable" less.sc
EndChar

StartChar: equal
Encoding: 61 61 29
Width: 559
Flags: W
HStem: 134 59<79.9133 483.998> 278 59<79.9133 483.998>
LayerCount: 2
Back
Fore
SplineSet
477 134 m 1
 316 134 243 134 71 134 c 1
 59 134 73 188 87 193 c 9
 87 193 490 193 490 193 c 17
 504 193 491 141 477 134 c 1
477 278 m 1
 316 278 243 278 71 278 c 1
 59 278 73 332 87 337 c 9
 87 337 490 337 490 337 c 17
 504 337 491 285 477 278 c 1
EndSplineSet
Validated: 33
Substitution2: "'smcp' Lowercase to Small Capitals in Latin lookup 0 subtable" equal.sc
EndChar

StartChar: greater
Encoding: 62 62 30
Width: 495
Flags: W
LayerCount: 2
Back
Fore
SplineSet
51 45 m 0
 51 50 54 51 54 51 c 1
 54 51 373 209 373 209 c 1
 373 209 55 364 55 364 c 1
 55 364 51 367 52 373 c 0
 59 410 66 430 69 430 c 0
 70 430 72 429 74 428 c 2
 74 428 447 241 447 241 c 2
 457 236 465 228 465 217 c 0
 465 200 462 185 447 177 c 2
 447 177 72 -13 72 -13 c 2
 70 -14 68 -15 67 -15 c 0
 61 -15 51 38 51 45 c 0
EndSplineSet
Validated: 1
Substitution2: "'smcp' Lowercase to Small Capitals in Latin lookup 0 subtable" greater.sc
EndChar

StartChar: question
Encoding: 63 63 31
Width: 399
Flags: W
HStem: -11 150<91.2891 192.25> 580 67<134.5 250.214>
VStem: 67 147<13.4641 117.875> 114 38<196.662 255.523> 280 85<427 549.841>
LayerCount: 2
Back
Fore
SplineSet
67 66 m 0xe8
 67 108 101 139 139 139 c 0
 181 139 214 107 214 66 c 0
 214 25 183 -11 143 -11 c 0
 106 -11 67 21 67 66 c 0xe8
116 518 m 0
 78 518 54 551 54 584 c 0
 54 601 62 624 69 630 c 1
 83 638 110 647 159 647 c 0
 204 647 365 610 365 471 c 0
 365 383 292 349 239 316 c 0
 212 299 174 281 157 256 c 0
 150 246 152 224 152 214 c 1
 150 208 142 196 137 196 c 0
 129 196 118 204 114 208 c 1xd8
 107 224 94 268 94 308 c 0
 94 366 138 398 174 422 c 0
 224 455 280 498 280 532 c 0
 280 553 262 580 226 580 c 0
 190 580 158 518 116 518 c 0
EndSplineSet
Validated: 33
Substitution2: "'smcp' Lowercase to Small Capitals in Latin lookup 0 subtable" question.sc
EndChar

StartChar: at
Encoding: 64 64 32
Width: 767
Flags: W
HStem: -124 20<265.434 292> -7 62<486.5 589.258> -5 99<249.5 362> 389 54<394.77 502.5> 538 40<340.048 551.908>
VStem: 46 48<55.6187 284.93> 178 123<99.7792 218.188> 413 122<55.1974 162.287> 688 44<171.217 401.388>
LayerCount: 2
Back
Fore
SplineSet
446 578 m 0xdf80
 642 578 732 446 732 290 c 0
 732 137 628 -7 511 -7 c 0xdf80
 462 -7 413 18 413 79 c 0
 413 87 414 100 417 108 c 1
 398 71 336 -5 275 -5 c 3xbf80
 224 -5 178 16 178 120 c 3
 178 266 343 443 485 443 c 0
 520 443 575 437 594 430 c 9
 594 430 538 127 538 127 c 2
 537 123 535 107 535 102 c 0
 535 88 531 55 558 55 c 0
 608 55 688 158 688 283 c 0
 688 418 620 538 446 538 c 0
 242 538 94 344 94 170 c 0
 94 53 157 -35 229 -77 c 0
 265 -98 287 -101 306 -104 c 1
 306 -112 282 -124 266 -124 c 0
 249 -124 234 -120 221 -115 c 0
 129 -81 46 24 46 165 c 0
 46 361 214 578 446 578 c 0xdf80
443 389 m 3
 360 389 301 263 301 148 c 0
 301 111 318 94 341 94 c 3xbf80
 383 94 427 164 449 274 c 2
 449 274 469 376 469 376 c 17
 460 386 456 389 443 389 c 3
EndSplineSet
Validated: 33
Substitution2: "'smcp' Lowercase to Small Capitals in Latin lookup 0 subtable" at.sc
EndChar

StartChar: A
Encoding: 65 65 33
Width: 675
Flags: W
HStem: -4 37<140.911 209.862 391.437 452.334 617.823 679.543> 4 29<147.694 206.364> 225 48<210 377.999> 642 20G<338.5 348.5>
LayerCount: 2
Back
Fore
SplineSet
94 134 m 2xb0
 94 134 307 624 307 624 c 2
 313 637 333 662 344 662 c 0
 353 662 363 658 365 655 c 1
 365 655 570 148 570 148 c 2
 583 117 589 97 598 76 c 0
 615 35 669 33 677 33 c 1
 682 24 683 0 679 -4 c 1xb0
 639 -2 589 4 545 4 c 0x70
 499 4 430 -2 394 -4 c 1
 389 1 389 33 394 33 c 1
 411 33 439 39 453 51 c 0
 459 56 462 61 462 68 c 0
 462 77 402 220 402 220 c 1
 402 220 398 224 395 224 c 0
 357 226 324 225 299 225 c 0
 258 225 230 225 195 224 c 0
 192 224 189 221 188 219 c 1
 188 219 163 163 152 135 c 0
 142 110 130 74 130 67 c 0
 130 41 199 33 207 33 c 1
 213 26 211 0 208 -4 c 1xb0
 173 0 144 4 100 4 c 0x70
 54 4 26 0 -9 -4 c 1
 -13 0 -15 21 -11 32 c 1
 1 32 49 48 59 64 c 0
 76 92 82 106 94 134 c 2xb0
295 476 m 1
 295 476 210 280 210 280 c 1
 210 280 210 276 212 276 c 0
 232 274 272 273 295 273 c 0
 326 273 344 273 375 275 c 0
 377 275 378 280 378 280 c 1
 378 280 295 476 295 476 c 1
EndSplineSet
Validated: 33
Substitution2: "'c2sc' Capitals to Small Capitals in Latin lookup 0 subtable" a.sc
EndChar

StartChar: B
Encoding: 66 66 34
Width: 619
Flags: W
HStem: -3 42<36.9366 104.641 258.39 380.625> 332 39<250 352.138> 620 40<36.2382 104.348 252.682 355.293>
VStem: 110 140<51.5828 332 371 616.164> 388 148<434.432 579.961> 427 157<112.237 268.147>
LayerCount: 2
Back
Fore
SplineSet
250 332 m 1xf4
 250 332 250 109 250 109 c 2
 250 103 250 63 258 51 c 0
 266 40 295 39 321 39 c 0
 367 39 427 73 427 176 c 0
 427 251 397 332 302 332 c 2
 302 332 250 332 250 332 c 1xf4
250 371 m 1
 250 371 302 371 302 371 c 2
 352 371 388 412 388 487 c 0xf8
 388 582 356 620 305 620 c 0
 282 620 260 619 255 608 c 0
 250 596 250 576 250 547 c 2
 250 547 250 371 250 371 c 1
334 660 m 0
 427 660 536 618 536 502 c 0xf8
 536 422 455 376 428 366 c 0
 420 363 422 360 423 360 c 0
 473 354 584 296 584 192 c 0xf4
 584 126 541 67 479 30 c 0
 420 -5 345 -4 271 -3 c 0
 229 -3 77 -2 38 -3 c 1
 34 3 33 27 38 34 c 1
 51 35 97 38 102 51 c 0
 110 71 110 102 110 145 c 2
 110 145 110 513 110 513 c 2
 110 556 110 587 102 607 c 0
 97 620 51 622 38 623 c 1
 33 630 34 654 38 660 c 1
 83 657 139 657 181 657 c 0
 223 657 276 660 334 660 c 0
EndSplineSet
Validated: 33
Substitution2: "'c2sc' Capitals to Small Capitals in Latin lookup 0 subtable" b.sc
EndChar

StartChar: C
Encoding: 67 67 35
Width: 674
Flags: W
HStem: -7 44<330.113 509.021> 624 43<308.986 492.296>
VStem: 40 160<204.574 441.519> 609 35<160.241 196.828>
LayerCount: 2
Back
Fore
SplineSet
386 667 m 0
 452 667 535 660 594 648 c 1
 596 637 628 509 628 497 c 0
 628 491 614 482 602 482 c 3
 597 482 592 482 588 486 c 1
 578 525 536 624 395 624 c 0
 254 624 200 492 200 352 c 0
 200 196 264 37 415 37 c 0
 475 37 512 55 539 80 c 0
 581 118 607 196 609 204 c 1
 624 204 636 199 644 192 c 1
 644 181 618 46 603 40 c 0
 540 17 476 -7 384 -7 c 0
 196 -7 40 133 40 322 c 0
 40 515 196 667 386 667 c 0
EndSplineSet
Validated: 1
Substitution2: "'c2sc' Capitals to Small Capitals in Latin lookup 0 subtable" c.sc
EndChar

StartChar: D
Encoding: 68 68 36
Width: 761
Flags: W
HStem: -3 42<36.9366 104.641 259.411 432.507> 620 40<36.2382 104.348 252.682 406.899>
VStem: 110 140<49.4974 616.164> 559 159<207.017 459.229>
LayerCount: 2
Back
Fore
SplineSet
250 547 m 2
 250 547 250 141 250 141 c 2
 250 135 250 82 258 62 c 0
 264 48 295 39 321 39 c 0
 484 39 559 130 559 325 c 0
 559 521 453 620 305 620 c 0
 282 620 260 619 255 608 c 0
 250 596 250 576 250 547 c 2
334 660 m 0
 565 660 718 541 718 336 c 0
 718 102 543 -3 327 -3 c 0
 285 -3 77 -2 38 -3 c 1
 34 3 33 27 38 34 c 1
 51 35 97 38 102 51 c 0
 110 71 110 102 110 145 c 2
 110 145 110 513 110 513 c 2
 110 556 110 587 102 607 c 0
 97 620 51 622 38 623 c 1
 33 630 34 654 38 660 c 1
 83 657 139 657 181 657 c 0
 223 657 275 659 334 660 c 0
EndSplineSet
Validated: 33
Substitution2: "'c2sc' Capitals to Small Capitals in Latin lookup 0 subtable" d.sc
EndChar

StartChar: E
Encoding: 69 69 37
Width: 602
Flags: W
HStem: -3 37<35.7205 102.369> -2 44<257.273 468.133> 310 47<250 397.427> 620 37<36.6465 103.732 253.003 443.441>
VStem: 110 140<50.3979 306.897 358.474 616.164> 434 31<386.617 434.825>
LayerCount: 2
Back
Fore
SplineSet
181 657 m 0xbc
 223 657 447 663 506 664 c 1
 513 614 526 561 535 516 c 1
 532 513 519 511 512 511 c 0
 505 511 498 514 496 519 c 0
 475 574 449 620 388 620 c 2
 388 620 305 620 305 620 c 0
 282 620 260 619 255 608 c 0
 250 596 250 576 250 547 c 2
 250 547 250 368 250 368 c 2
 250 362 271 357 293 357 c 2
 293 357 346 357 346 357 c 2
 405 357 418 369 434 427 c 0
 435 432 439 435 446 435 c 0
 453 435 462 433 465 430 c 1
 465 430 465 238 465 238 c 1
 463 236 454 234 447 234 c 0
 440 234 434 237 433 242 c 0
 421 290 407 299 398 303 c 0
 386 308 360 310 322 310 c 0
 294 310 250 308 250 296 c 2
 250 296 250 141 250 141 c 2
 250 135 250 82 258 62 c 0
 264 48 297 42 323 42 c 0
 323 42 389 42 389 42 c 2
 427 42 459 52 482 75 c 0
 503 96 519 125 536 170 c 0
 537 174 543 176 550 176 c 0
 560 176 577 173 580 170 c 1
 561 116 533 42 526 -2 c 1x7c
 484 -2 77 -2 38 -3 c 1
 34 3 33 27 38 34 c 1
 51 35 97 38 102 51 c 0
 110 71 110 102 110 145 c 2
 110 145 110 513 110 513 c 2
 110 556 110 587 102 607 c 0
 97 620 51 622 38 623 c 1
 33 630 34 654 38 660 c 1
 83 657 139 657 181 657 c 0xbc
EndSplineSet
Validated: 33
Substitution2: "'c2sc' Capitals to Small Capitals in Latin lookup 0 subtable" e.sc
EndChar

StartChar: F
Encoding: 70 70 38
Width: 549
Flags: W
HStem: -4 37<35.7205 101.998 258.002 333.279> 306 47<250 397.427> 620 37<36.6465 103.732 253.003 443.441>
VStem: 110 140<42.0335 302.897 354.474 616.164> 434 31<382.617 430.825>
LayerCount: 2
Back
Fore
SplineSet
181 657 m 0
 223 657 447 663 506 664 c 1
 513 614 526 561 535 516 c 1
 532 513 519 511 512 511 c 0
 505 511 498 514 496 519 c 0
 475 574 449 620 388 620 c 2
 388 620 305 620 305 620 c 0
 282 620 260 619 255 608 c 0
 250 596 250 576 250 547 c 2
 250 547 250 364 250 364 c 2
 250 358 271 353 293 353 c 2
 293 353 346 353 346 353 c 2
 405 353 418 365 434 423 c 0
 435 428 439 431 446 431 c 0
 453 431 462 429 465 426 c 1
 465 426 465 234 465 234 c 1
 463 232 454 230 447 230 c 0
 440 230 434 233 433 238 c 0
 421 286 407 295 398 299 c 0
 386 304 360 306 322 306 c 0
 294 306 250 304 250 292 c 2
 250 292 250 145 250 145 c 2
 250 102 250 71 258 51 c 0
 263 38 318 34 331 33 c 1
 336 26 335 2 331 -4 c 1
 292 0 221 3 179 3 c 0
 137 3 77 0 38 -4 c 1
 34 2 33 26 38 33 c 1
 51 34 97 38 102 51 c 0
 110 71 110 102 110 145 c 2
 110 145 110 513 110 513 c 2
 110 556 110 587 102 607 c 0
 97 620 51 622 38 623 c 1
 33 630 34 654 38 660 c 1
 83 657 139 657 181 657 c 0
EndSplineSet
Validated: 33
Substitution2: "'c2sc' Capitals to Small Capitals in Latin lookup 0 subtable" f.sc
EndChar

StartChar: G
Encoding: 71 71 39
Width: 722
Flags: W
HStem: -7 43<330.684 494.644> 261 37<424.657 488.882 649.532 704.455> 624 43<308.404 494.806>
VStem: 40 160<205.849 438.124> 499 138<46.6322 247.801>
LayerCount: 2
Back
Fore
SplineSet
499 183 m 0
 499 203 500 212 494 234 c 0
 487 259 440 261 428 261 c 0
 423 261 422 293 427 298 c 1
 478 296 529 292 580 292 c 0
 622 292 663 296 703 298 c 1
 707 285 705 261 702 261 c 1
 694 261 660 255 649 248 c 0
 643 244 637 224 637 205 c 0
 637 168 637 132 637 98 c 0
 637 89 643 74 643 69 c 0
 643 58 621 48 608 43 c 0
 545 19 476 -7 384 -7 c 0
 195 -7 40 133 40 322 c 0
 40 509 196 667 386 667 c 0
 452 667 535 660 594 648 c 1
 596 637 628 509 628 497 c 0
 628 491 614 482 602 482 c 3
 597 482 592 482 588 486 c 1
 578 525 538 624 397 624 c 0
 249 624 200 487 200 347 c 0
 200 191 271 36 412 36 c 0
 450 36 472 44 490 52 c 0
 494 54 499 58 499 67 c 0
 499 82 499 135 499 183 c 0
EndSplineSet
Validated: 33
Substitution2: "'c2sc' Capitals to Small Capitals in Latin lookup 0 subtable" g.sc
EndChar

StartChar: H
Encoding: 72 72 40
Width: 741
Flags: W
HStem: -4 37<35.7205 101.998 258.002 324.279 416.721 482.998 639.002 705.279> 317 51<252 489> 625 37<35.7205 101.998 258.002 324.279 416.721 482.998 639.002 705.279>
VStem: 110 140<41.2661 309 368.001 616.734> 491 140<41.2661 314.998 368.001 616.734>
LayerCount: 2
Back
Fore
SplineSet
181 655 m 0
 223 655 283 658 322 662 c 1
 326 656 327 632 322 625 c 1
 309 624 263 620 258 607 c 0
 250 587 250 556 250 513 c 2
 250 513 250 371 250 371 c 1
 250 369 252 368 252 368 c 1
 291 367 328 365 373 365 c 0
 410 365 454 367 490 368 c 1
 490 368 492 370 492 372 c 0
 492 372 491 513 491 513 c 2
 491 556 491 587 483 607 c 0
 478 620 432 624 419 625 c 1
 414 632 415 656 419 662 c 1
 458 658 520 655 562 655 c 0
 604 655 664 658 703 662 c 1
 707 656 708 632 703 625 c 1
 690 624 644 620 639 607 c 0
 631 587 631 556 631 513 c 2
 631 513 631 145 631 145 c 2
 631 102 631 71 639 51 c 0
 644 38 690 34 703 33 c 1
 708 26 707 2 703 -4 c 1
 664 0 602 3 560 3 c 0
 518 3 458 0 419 -4 c 1
 415 2 414 26 419 33 c 1
 432 34 478 38 483 51 c 0
 491 71 491 102 491 145 c 2
 491 145 491 310 491 310 c 0
 491 312 489 315 489 315 c 1
 452 316 414 317 373 317 c 0
 262 317 254 315 251 313 c 1
 250 312 250 309 250 309 c 1
 250 309 250 145 250 145 c 2
 250 102 250 71 258 51 c 0
 263 38 309 34 322 33 c 1
 327 26 326 2 322 -4 c 1
 283 0 221 3 179 3 c 0
 137 3 77 0 38 -4 c 1
 34 2 33 26 38 33 c 1
 51 34 97 38 102 51 c 0
 110 71 110 102 110 145 c 2
 110 145 110 513 110 513 c 2
 110 556 110 587 102 607 c 0
 97 620 51 624 38 625 c 1
 33 632 34 656 38 662 c 1
 77 658 139 655 181 655 c 0
EndSplineSet
Validated: 33
Substitution2: "'c2sc' Capitals to Small Capitals in Latin lookup 0 subtable" h.sc
EndChar

StartChar: I
Encoding: 73 73 41
Width: 360
Flags: W
HStem: -4 37<35.7205 101.998 258.002 324.279> 625 37<35.7205 101.998 258.002 324.279>
VStem: 110 140<41.2661 616.734>
LayerCount: 2
Back
Fore
SplineSet
181 655 m 0
 223 655 283 658 322 662 c 1
 326 656 327 632 322 625 c 1
 309 624 263 620 258 607 c 0
 250 587 250 556 250 513 c 2
 250 513 250 145 250 145 c 2
 250 102 250 71 258 51 c 0
 263 38 309 34 322 33 c 1
 327 26 326 2 322 -4 c 1
 283 0 221 3 179 3 c 0
 137 3 77 0 38 -4 c 1
 34 2 33 26 38 33 c 1
 51 34 97 38 102 51 c 0
 110 71 110 102 110 145 c 2
 110 145 110 513 110 513 c 2
 110 556 110 587 102 607 c 0
 97 620 51 624 38 625 c 1
 33 632 34 656 38 662 c 1
 77 658 139 655 181 655 c 0
EndSplineSet
Validated: 33
Substitution2: "'c2sc' Capitals to Small Capitals in Latin lookup 0 subtable" i.sc
EndChar

StartChar: J
Encoding: 74 74 42
Width: 345
Flags: W
HStem: -218 61<-61.5 65.2742> 625 37<29.7205 95.9985 252.002 318.279>
VStem: 104 140<-9.59375 616.734>
LayerCount: 2
Back
Fore
SplineSet
175 655 m 0
 217 655 277 658 316 662 c 1
 320 656 321 632 316 625 c 1
 303 624 257 620 252 607 c 0
 244 587 244 556 244 513 c 2
 244 513 244 143 244 143 c 2
 244 -85 130 -218 -52 -218 c 3
 -71 -218 -100 -207 -109 -200 c 1
 -116 -189 -125 -178 -125 -157 c 3
 -125 -123 -97 -90 -65 -90 c 3
 -43 -90 -24 -106 -8 -123 c 0
 9 -140 23 -157 39 -157 c 3
 102 -157 104 -31 104 135 c 2
 104 135 104 513 104 513 c 2
 104 556 104 587 96 607 c 0
 91 620 45 624 32 625 c 1
 27 632 28 656 32 662 c 1
 71 658 133 655 175 655 c 0
EndSplineSet
Validated: 33
Substitution2: "'c2sc' Capitals to Small Capitals in Latin lookup 0 subtable" j.sc
EndChar

StartChar: K
Encoding: 75 75 43
Width: 719
Flags: W
HStem: -4 37<36.6465 100.322 258.818 323.354 662.752 730.721> 583 72<575 606.578> 625 37<35.7205 101.998 258.002 324.279 435.555 493.525 610.944 690.298>
VStem: 110 140<41.2661 305.999 337 616.734>
LayerCount: 2
Back
Fore
SplineSet
181 655 m 0xd0
 223 655 283 658 322 662 c 1
 326 656 327 632 322 625 c 1
 309 624 263 620 258 607 c 0
 250 587 250 556 250 513 c 2
 250 513 250 337 250 337 c 1
 294 372 330 403 354 428 c 0
 414 489 442 514 484 570 c 0
 494 583 494 596 494 603 c 0
 494 624 452 626 438 626 c 1
 433 634 433 653 436 662 c 1xb0
 473 660 529 655 566 655 c 0xd0
 610 655 653 658 690 662 c 1xb0
 693 655 693 633 688 627 c 1
 679 626 611 619 575 583 c 2xd0
 575 583 462 468 387 389 c 0
 381 382 381 378 384 373 c 0
 457 275 564 130 564 130 c 1
 638 36 722 33 730 33 c 1
 735 26 731 -2 730 -4 c 1
 701 -6 640 -8 599 -8 c 0
 522 -8 471 33 446 67 c 0
 420 103 314 243 270 302 c 0
 267 305 262 306 260 306 c 0
 256 306 252 304 250 300 c 1
 250 300 250 145 250 145 c 2
 250 102 250 71 258 51 c 0
 263 38 309 34 322 33 c 1
 327 26 326 2 322 -4 c 1
 283 0 221 3 179 3 c 0
 137 3 77 0 38 -4 c 1
 34 2 33 26 38 33 c 1
 51 34 97 38 102 51 c 0
 110 71 110 102 110 145 c 2
 110 145 110 513 110 513 c 2
 110 556 110 587 102 607 c 0
 97 620 51 624 38 625 c 1
 33 632 34 656 38 662 c 1xb0
 77 658 139 655 181 655 c 0xd0
EndSplineSet
Validated: 33
Substitution2: "'c2sc' Capitals to Small Capitals in Latin lookup 0 subtable" k.sc
EndChar

StartChar: L
Encoding: 76 76 44
Width: 579
Flags: W
HStem: -3 37<35.7205 102.369> -2 44<257.273 468.133> 625 37<35.7205 101.998 258.002 324.279>
VStem: 110 140<50.3979 616.734>
LayerCount: 2
Back
Fore
SplineSet
250 141 m 2xb0
 250 135 250 82 258 62 c 0
 264 48 297 42 323 42 c 0
 323 42 389 42 389 42 c 2
 427 42 459 52 482 75 c 0
 503 96 519 125 536 170 c 0
 537 174 543 176 550 176 c 0
 560 176 577 173 580 170 c 1
 561 116 533 42 526 -2 c 1
 499 -2 316 -2 181 -2 c 0x70
 110 -2 52 -3 38 -3 c 1
 34 3 33 27 38 34 c 1
 51 35 97 38 102 51 c 0
 110 71 110 102 110 145 c 2
 110 145 110 513 110 513 c 2
 110 556 110 587 102 607 c 0
 97 620 51 624 38 625 c 1
 33 632 34 656 38 662 c 1
 77 658 139 655 181 655 c 0
 223 655 283 658 322 662 c 1
 326 656 327 632 322 625 c 1
 309 624 263 620 258 607 c 0
 250 587 250 556 250 513 c 2
 250 513 250 141 250 141 c 2xb0
EndSplineSet
Validated: 33
Substitution2: "'c2sc' Capitals to Small Capitals in Latin lookup 0 subtable" l.sc
EndChar

StartChar: M
Encoding: 77 77 45
Width: 907
Flags: W
HStem: -4 37<17.8338 86.2039 195 268.893 584.466 652.51 815.702 880.184> 625 37<61.1049 124.299 801.486 852.193>
LayerCount: 2
Back
Fore
SplineSet
171 656 m 0
 205 656 236 660 276 662 c 1
 305 598 390 408 465 238 c 1
 465 238 468 236 469 236 c 0
 470 236 473 241 473 242 c 2
 473 242 548 426 591 546 c 24
 607 589 624 658 624 658 c 1
 633 657 713 655 732 655 c 0
 766 655 809 660 849 662 c 1
 853 658 858 632 853 624 c 1
 845 624 811 620 801 613 c 0
 791 606 786 599 787 572 c 0
 790 502 796 280 802 152 c 0
 804 113 805 77 815 51 c 0
 821 37 870 33 878 33 c 1
 882 24 883 6 880 -4 c 1
 840 -2 788 4 744 4 c 0
 698 4 633 -2 587 -4 c 1
 583 0 582 25 585 33 c 1
 597 33 646 38 655 52 c 0
 660 60 663 77 663 87 c 0
 663 97 663 130 662 148 c 2
 662 148 652 497 652 497 c 2
 652 500 652 523 645 523 c 0
 643 523 642 521 640 516 c 2
 640 516 464 40 464 40 c 2
 461 31 439 -2 421 -2 c 0
 418 -2 415 -1 412 0 c 1
 412 0 189 523 189 523 c 1
 182 315 182 291 176 134 c 0
 175 112 178 72 180 65 c 0
 186 44 259 33 267 33 c 1
 270 26 272 6 269 -4 c 1
 229 -2 189 4 145 4 c 0
 99 4 66 -2 20 -4 c 1
 16 3 16 22 19 32 c 1
 31 32 93 42 104 68 c 0
 108 78 115 140 116 156 c 0
 122 273 131 534 133 581 c 0
 133 588 133 596 128 603 c 0
 120 614 80 625 63 625 c 1
 57 633 61 660 63 662 c 1
 109 660 125 656 171 656 c 0
EndSplineSet
Validated: 33
Substitution2: "'c2sc' Capitals to Small Capitals in Latin lookup 0 subtable" m.sc
EndChar

StartChar: N
Encoding: 78 78 46
Width: 760
Flags: W
HStem: -4 37<30.2754 103.714 204.647 280.584> 625 38<36.4447 103.205 489.275 569.935 657.666 739.584> 625 30<39.4568 98.5193>
VStem: 124 61<49.9165 518.032> 583 61<248.338 612.714>
LayerCount: 2
Back
Fore
SplineSet
151 655 m 0xb8
 186 655 228 658 260 662 c 1
 298 584 458 401 581 248 c 1
 583 255 583 275 583 289 c 2
 583 289 583 476 583 476 c 0
 583 514 579 589 572 604 c 0
 564 622 503 626 491 626 c 1
 489 626 486 654 491 663 c 1xd8
 537 661 567 655 613 655 c 0xb8
 657 655 699 661 739 663 c 1
 741 657 743 635 737 625 c 1
 729 625 662 623 654 602 c 0
 649 588 644 515 644 479 c 2
 644 479 644 139 644 139 c 2
 644 81 646 51 648 -1 c 1
 645 -4 626 -5 623 -5 c 0
 614 -5 602 5 592 18 c 2
 592 18 185 519 185 519 c 1
 185 519 185 157 185 157 c 2
 185 121 191 74 196 60 c 0
 203 41 270 34 278 34 c 1
 284 24 282 2 280 -4 c 1
 240 -2 198 4 154 4 c 0
 108 4 78 -2 32 -4 c 1
 27 5 30 33 32 33 c 1
 44 33 104 41 112 59 c 0
 119 74 124 122 124 160 c 0
 124 291 124 383 124 514 c 0
 124 542 119 585 106 604 c 0
 97 617 52 625 40 625 c 0xd8
 35 625 33 657 38 662 c 1
 69 660 105 655 151 655 c 0xb8
EndSplineSet
Validated: 33
Substitution2: "'c2sc' Capitals to Small Capitals in Latin lookup 0 subtable" n.sc
EndChar

StartChar: O
Encoding: 79 79 47
Width: 760
Flags: W
HStem: -10 43<322.356 470.535> 624 43<288.38 436.304>
VStem: 40 160<211.696 443.97> 560 160<211.714 444.117>
LayerCount: 2
Back
Fore
SplineSet
356 624 m 3
 238 624 200 484 200 363 c 3
 200 210 252 33 401 33 c 3
 520 33 560 171 560 292 c 3
 560 445 505 624 356 624 c 3
380 667 m 0
 556 667 720 515 720 328 c 0
 720 141 556 -10 380 -10 c 0
 204 -10 40 141 40 328 c 0
 40 515 204 667 380 667 c 0
EndSplineSet
Validated: 1
Substitution2: "'c2sc' Capitals to Small Capitals in Latin lookup 0 subtable" o.sc
EndChar

StartChar: P
Encoding: 80 80 48
Width: 585
Flags: W
HStem: -4 37<35.7205 101.998 258.002 324.279> 287 51<295.633 379.149> 620 40<36.2382 104.348 252.682 358.182>
VStem: 110 140<41.2661 616.164> 416 149<391.288 558.828>
LayerCount: 2
Back
Fore
SplineSet
565 482 m 0
 565 362 465 287 364 287 c 0
 328 287 302 303 295 310 c 0
 291 314 288 327 288 335 c 0
 288 339 289 342 291 342 c 1
 301 339 317 338 332 338 c 0
 381 338 416 391 416 468 c 0
 416 547 372 620 305 620 c 0
 282 620 260 619 255 608 c 0
 250 596 250 576 250 547 c 2
 250 547 250 145 250 145 c 2
 250 102 250 71 258 51 c 0
 263 38 309 34 322 33 c 1
 327 26 326 2 322 -4 c 1
 283 0 221 3 179 3 c 0
 137 3 77 0 38 -4 c 1
 34 2 33 26 38 33 c 1
 51 34 97 38 102 51 c 0
 110 71 110 102 110 145 c 2
 110 145 110 513 110 513 c 2
 110 556 110 587 102 607 c 0
 97 620 51 622 38 623 c 1
 33 630 34 654 38 660 c 1
 83 657 139 657 181 657 c 0
 223 657 276 660 335 660 c 0
 460 660 565 596 565 482 c 0
EndSplineSet
Validated: 33
Substitution2: "'c2sc' Capitals to Small Capitals in Latin lookup 0 subtable" p.sc
EndChar

StartChar: Q
Encoding: 81 81 49
Width: 760
Flags: W
HStem: -143 69<539.354 711.686> 624 43<288.38 436.304>
VStem: 40 160<213.589 443.97> 560 160<213.119 444.117>
LayerCount: 2
Back
Fore
SplineSet
380 667 m 0
 556 667 720 515 720 328 c 0
 720 178 614 51 482 7 c 1
 574 -38 603 -74 705 -74 c 0
 745 -74 769 -66 776 -66 c 1
 782 -66 794 -71 799 -79 c 0
 801 -82 801 -84 801 -84 c 1
 746 -113 657 -143 596 -143 c 0
 486 -143 409 -33 301 0 c 0
 157 38 40 170 40 328 c 0
 40 515 204 667 380 667 c 0
356 624 m 0
 238 624 200 484 200 363 c 0
 200 210 252 33 401 33 c 0
 520 33 560 171 560 292 c 0
 560 445 505 624 356 624 c 0
EndSplineSet
Validated: 1
Substitution2: "'c2sc' Capitals to Small Capitals in Latin lookup 0 subtable" q.sc
EndChar

StartChar: R
Encoding: 82 82 50
Width: 693
Flags: W
HStem: -4 37<36.6465 100.322 258.818 323.354 661.752 729.721> 299 39<250 282.993> 620 40<36.2382 104.348 252.682 363.699>
VStem: 110 140<41.2661 299 338 616.164> 405 149<406.517 566.818>
LayerCount: 2
Back
Fore
SplineSet
335 660 m 0
 460 660 554 598 554 478 c 0
 554 396 466 328 418 316 c 1
 491 218 563 130 563 130 c 1
 637 36 721 33 729 33 c 1
 734 26 730 -2 729 -4 c 1
 700 -6 639 -8 598 -8 c 0
 521 -8 470 33 445 67 c 0
 445 67 283 284 283 284 c 0
 283 284 273 299 265 299 c 0
 265 299 250 299 250 299 c 9
 250 299 250 145 250 145 c 2
 250 102 250 71 258 51 c 0
 263 38 309 34 322 33 c 1
 327 26 326 2 322 -4 c 1
 283 0 221 3 179 3 c 0
 137 3 77 0 38 -4 c 1
 34 2 33 26 38 33 c 1
 51 34 97 38 102 51 c 0
 110 71 110 102 110 145 c 2
 110 145 110 513 110 513 c 2
 110 556 110 587 102 607 c 0
 97 620 51 622 38 623 c 1
 33 630 34 654 38 660 c 1
 83 657 139 657 181 657 c 0
 223 657 276 660 335 660 c 0
405 468 m 0
 405 547 387 620 305 620 c 0
 282 620 260 619 255 608 c 0
 250 596 250 576 250 547 c 2
 250 547 250 338 250 338 c 17
 250 338 296 338 296 338 c 0
 353 338 405 391 405 468 c 0
EndSplineSet
Validated: 33
Substitution2: "'c2sc' Capitals to Small Capitals in Latin lookup 0 subtable" r.sc
EndChar

StartChar: S
Encoding: 83 83 51
Width: 521
Flags: W
HStem: -10 42<185.098 316.967> 628 42<212.864 329.921>
VStem: 47 42<137.613 197.961> 54 133<484.422 565.673> 348 131<94.5926 187.223> 405 41<470.077 538.743>
LayerCount: 2
Back
Fore
SplineSet
267 670 m 0xd8
 326 670 374 655 435 642 c 1
 440 589 443 537 446 476 c 1
 443 472 439 470 435 470 c 0
 432 470 407 469 405 477 c 0
 397 533 349 628 272 628 c 0
 233 628 187 608 187 541 c 0xd4
 187 479 271 422 332 381 c 0
 398 337 479 294 479 175 c 0
 479 65 371 -10 261 -10 c 0
 202 -10 131 2 71 16 c 1
 61 60 49 158 47 186 c 1
 51 192 71 200 76 200 c 0
 83 200 88 198 89 192 c 0xe8
 98 138 161 32 251 32 c 0
 302 32 348 58 348 129 c 0
 348 200 250 258 200 292 c 0
 127 341 54 385 54 489 c 0
 54 592 164 670 267 670 c 0xd8
EndSplineSet
Validated: 1
Substitution2: "'c2sc' Capitals to Small Capitals in Latin lookup 0 subtable" s.sc
EndChar

StartChar: T
Encoding: 84 84 52
Width: 634
Flags: W
HStem: -4 37<172.721 238.998 395.002 461.279> 613 44<102.634 247 387 531.366>
VStem: 8 39<482.931 537.849> 247 140<41.2661 613> 587 39<482.931 537.849>
CounterMasks: 1 38
LayerCount: 2
Back
Fore
SplineSet
483 657 m 0
 555 657 569 676 587 676 c 0
 595 676 595 675 599 673 c 1
 599 673 626 489 626 489 c 1
 623 486 606 482 597 482 c 0
 592 482 588 483 587 487 c 0
 577 552 531 613 480 613 c 2
 480 613 387 613 387 613 c 1
 387 613 387 145 387 145 c 2
 387 102 387 71 395 51 c 0
 400 38 446 34 459 33 c 1
 464 26 463 2 459 -4 c 1
 420 0 358 3 316 3 c 0
 274 3 214 0 175 -4 c 1
 171 2 170 26 175 33 c 1
 188 34 234 38 239 51 c 0
 247 71 247 102 247 145 c 2
 247 145 247 613 247 613 c 1
 247 613 154 613 154 613 c 2
 103 613 57 552 47 487 c 0
 46 483 42 482 37 482 c 0
 28 482 11 486 8 489 c 1
 8 489 35 673 35 673 c 1
 39 675 39 676 47 676 c 0
 65 676 79 657 151 657 c 0
 240 657 394 657 483 657 c 0
EndSplineSet
Validated: 33
Substitution2: "'c2sc' Capitals to Small Capitals in Latin lookup 0 subtable" t.sc
EndChar

StartChar: U
Encoding: 85 85 53
Width: 730
Flags: W
HStem: -9 72<321.729 476.851> 625 37<19.7205 85.9985 242.002 308.279 481.721 554.838 653.229 728.279>
VStem: 94 140<166.436 616.734> 573 62<175.49 609.521>
LayerCount: 2
Back
Fore
SplineSet
165 655 m 0
 207 655 267 658 306 662 c 1
 310 656 311 632 306 625 c 1
 293 624 247 620 242 607 c 0
 234 587 234 556 234 513 c 2
 234 513 234 330 234 330 c 2
 234 262 236 212 259 159 c 0
 297 71 372 63 411 63 c 0
 491 63 573 134 573 309 c 2
 573 309 573 479 573 479 c 2
 573 522 567 581 559 601 c 0
 551 620 497 624 484 625 c 1
 479 632 480 656 484 662 c 1
 531 658 563 655 609 655 c 0
 653 655 685 660 726 662 c 1
 730 656 731 632 726 625 c 1
 713 624 657 622 649 601 c 0
 641 581 635 523 635 480 c 2
 635 480 635 286 635 286 c 2
 635 82 505 -9 361 -9 c 0
 277 -9 198 19 150 79 c 0
 111 128 94 197 94 301 c 2
 94 301 94 513 94 513 c 2
 94 556 94 587 86 607 c 0
 81 620 35 624 22 625 c 1
 17 632 18 656 22 662 c 1
 61 658 123 655 165 655 c 0
EndSplineSet
Validated: 33
Substitution2: "'c2sc' Capitals to Small Capitals in Latin lookup 0 subtable" u.sc
EndChar

StartChar: V
Encoding: 86 86 54
Width: 684
Flags: W
HStem: -11 21G<327.5 338> 625 37<-5.27949 52.2392 222.617 283.279 464.721 544.096 628.004 700.279>
LayerCount: 2
Back
Fore
SplineSet
140 655 m 0
 182 655 242 658 281 662 c 1
 285 656 286 632 281 625 c 1
 268 624 220 623 220 598 c 0
 220 582 232 551 244 523 c 0
 302 390 393 186 393 186 c 1
 393 186 515 493 525 521 c 0
 534 547 547 580 547 601 c 0
 547 619 480 624 467 625 c 1
 462 632 463 656 467 662 c 1
 514 658 540 655 586 655 c 0
 630 655 657 660 698 662 c 1
 702 656 703 632 698 625 c 1
 685 624 640 623 628 607 c 0
 613 587 601 557 587 524 c 0
 505 323 457 215 380 30 c 0
 372 12 344 -11 332 -11 c 0
 323 -11 323 -4 318 3 c 1
 318 3 100 510 100 510 c 2
 88 539 74 572 65 592 c 0
 53 618 10 624 -3 625 c 1
 -8 632 -7 656 -3 662 c 1
 36 658 98 655 140 655 c 0
EndSplineSet
Validated: 33
Substitution2: "'c2sc' Capitals to Small Capitals in Latin lookup 0 subtable" v.sc
EndChar

StartChar: W
Encoding: 87 87 55
Width: 951
Flags: W
HStem: -11 21G<295.5 306 641.5 652> 625 37<-4.40566 53.2392 223.617 284.279 727.721 805.182 891.004 963.279>
LayerCount: 2
Back
Fore
SplineSet
141 655 m 0
 183 655 243 658 282 662 c 1
 286 656 287 632 282 625 c 1
 269 624 221 623 221 598 c 0
 221 582 234 552 245 523 c 0
 289 401 343 251 343 251 c 1
 343 251 452 560 476 625 c 0
 483 644 496 662 507 662 c 0
 511 662 515 657 519 646 c 0
 585 478 690 214 690 214 c 1
 690 214 778 489 788 521 c 0
 796 547 808 580 808 601 c 0
 808 619 743 624 730 625 c 1
 725 632 726 656 730 662 c 1
 777 658 803 655 849 655 c 0
 893 655 920 660 961 662 c 1
 965 656 966 632 961 625 c 1
 948 624 903 623 891 607 c 0
 876 587 861 559 850 524 c 0
 788 335 749 225 686 40 c 0
 677 15 658 -11 646 -11 c 0
 637 -11 632 -4 627 3 c 1
 627 3 462 418 462 418 c 1
 462 418 384 188 335 44 c 0
 331 33 312 -11 300 -11 c 0
 291 -11 286 -4 281 3 c 1
 281 3 101 510 101 510 c 2
 91 540 75 572 66 592 c 0
 54 618 11 624 -2 625 c 1
 -8 632 -6 656 -2 662 c 1
 37 658 99 655 141 655 c 0
EndSplineSet
Validated: 33
Substitution2: "'c2sc' Capitals to Small Capitals in Latin lookup 0 subtable" w.sc
EndChar

StartChar: X
Encoding: 88 88 56
Width: 710
Flags: W
HStem: -4 37<-7.56348 70.4 177.75 254.856 391.445 446.092 643.162 713.041> 625 37<17.4365 87.3235 265.606 320.998 439.657 509.395 625.419 696.64>
LayerCount: 2
Back
Fore
SplineSet
176 656 m 0
 225 656 280 660 320 662 c 1
 322 656 323 625 318 625 c 1
 304 625 266 619 265 604 c 0
 265 598 269 588 273 582 c 2
 273 582 384 414 384 414 c 1
 428 471 499 551 514 584 c 0
 516 588 517 591 517 594 c 0
 517 611 477 625 443 625 c 1
 438 625 437 657 442 662 c 1
 477 658 538 655 575 655 c 0
 627 655 666 658 695 662 c 1
 698 656 699 625 694 625 c 1
 686 625 625 623 582 572 c 2
 582 572 411 369 411 369 c 1
 495 242 597 93 612 76 c 0
 641 41 697 33 711 33 c 1
 715 24 716 4 711 -4 c 1
 671 -2 592 2 551 2 c 0
 495 2 449 -2 393 -4 c 1
 388 1 390 33 395 33 c 0
 406 33 451 43 451 61 c 0
 451 64 450 69 448 72 c 2
 448 72 315 273 315 273 c 1
 300 253 205 130 177 83 c 0
 172 75 169 69 169 66 c 0
 169 42 222 33 252 33 c 1
 257 26 258 7 255 -4 c 1
 222 -2 160 2 123 2 c 0
 71 2 35 -2 -5 -4 c 1
 -10 2 -10 26 -5 33 c 1
 3 33 72 35 104 79 c 2
 104 79 282 322 282 322 c 1
 282 322 142 537 142 537 c 2
 124 564 102 600 88 610 c 0
 74 620 32 625 20 625 c 1
 15 625 15 657 20 662 c 1
 69 660 127 656 176 656 c 0
EndSplineSet
Validated: 33
Substitution2: "'c2sc' Capitals to Small Capitals in Latin lookup 0 subtable" x.sc
EndChar

StartChar: Y
Encoding: 89 89 57
Width: 624
Flags: W
HStem: -4 37<158.721 224.998 381.002 447.279> 625 37<0.720509 57.0027 228.617 289.279 407.721 481.354 566.951 637.279>
VStem: 233 140<41.2661 326.067>
LayerCount: 2
Back
Fore
SplineSet
233 145 m 2
 233 145 233 284 233 284 c 0
 233 291 232 296 228 304 c 0
 203 359 102 537 102 537 c 2
 87 565 83 572 71 592 c 0
 56 617 16 624 3 625 c 1
 -2 632 -1 656 3 662 c 1
 42 658 104 655 146 655 c 0
 188 655 248 658 287 662 c 1
 291 656 292 632 287 625 c 1
 274 624 226 623 226 598 c 0
 226 594 229 589 233 582 c 2
 233 582 353 361 353 361 c 1
 358 356 436 498 479 578 c 0
 483 586 484 594 484 601 c 0
 484 619 423 624 410 625 c 1
 405 632 406 656 410 662 c 1
 457 658 477 655 523 655 c 0
 567 655 594 660 635 662 c 1
 639 656 640 632 635 625 c 1
 622 624 576 623 561 600 c 0
 541 571 408 357 379 298 c 0
 376 291 373 285 373 279 c 0
 373 279 373 145 373 145 c 2
 373 102 373 71 381 51 c 0
 386 38 432 34 445 33 c 1
 450 26 449 2 445 -4 c 1
 406 0 344 3 302 3 c 0
 260 3 200 0 161 -4 c 1
 157 2 156 26 161 33 c 1
 174 34 220 38 225 51 c 0
 233 71 233 102 233 145 c 2
EndSplineSet
Validated: 33
Substitution2: "'c2sc' Capitals to Small Capitals in Latin lookup 0 subtable" y.sc
EndChar

StartChar: Z
Encoding: 90 90 58
Width: 640
Flags: W
HStem: 1 46<206 501.681> 610 45<154.299 412.875> 642 20G<77 90 543 587>
LayerCount: 2
Back
Fore
SplineSet
233 610 m 2xc0
 127 610 111 536 88 474 c 0
 87 471 85 468 75 468 c 0
 64 468 49 470 46 473 c 1
 57 531 72 598 82 662 c 1xa0
 98 658 199 655 213 655 c 2
 213 655 353 656 353 656 c 2
 437 657 501 660 585 666 c 1
 589 665 595 643 595 633 c 1
 593 625 206 47 206 47 c 17
 206 47 422 47 422 47 c 2
 460 47 494 59 517 82 c 0
 538 103 553 125 570 170 c 0
 571 174 577 176 584 176 c 0
 594 176 611 173 614 170 c 1
 598 117 569 44 560 1 c 1
 518 1 46 0 46 0 c 1
 33 0 17 18 20 22 c 2
 20 22 416 610 416 610 c 1
 416 610 233 610 233 610 c 2xc0
EndSplineSet
Validated: 33
Substitution2: "'c2sc' Capitals to Small Capitals in Latin lookup 0 subtable" z.sc
EndChar

StartChar: bracketleft
Encoding: 91 91 59
Width: 309
Flags: W
VStem: 75 107<-80.0317 728.032>
LayerCount: 2
Back
Fore
SplineSet
94 770 m 0
 197 770 263 779 299 786 c 1
 301 786 305 783 305 777 c 0
 305 764 297 752 295 751 c 0
 265 736 209 730 182 724 c 9
 182 724 182 -76 182 -76 c 1
 209 -82 265 -88 295 -103 c 0
 297 -104 305 -116 305 -129 c 0
 305 -135 301 -138 299 -138 c 1
 263 -131 197 -122 94 -122 c 0
 81 -121 75 -110 75 -99 c 0
 75 -99 75 747 75 747 c 0
 75 758 81 769 94 770 c 0
EndSplineSet
Validated: 513
Substitution2: "'smcp' Lowercase to Small Capitals in Latin lookup 0 subtable" bracketleft.sc
Substitution2: "'c2sc' Capitals to Small Capitals in Latin lookup 0 subtable" bracketleft.sc
EndChar

StartChar: backslash
Encoding: 92 92 60
Width: 419
Flags: W
LayerCount: 2
Back
Fore
SplineSet
27 755 m 1
 31 760 38 761 46 761 c 0
 70 761 81 753 84 745 c 2
 84 745 390 -20 390 -26 c 1
 389 -30 376 -36 362 -36 c 0
 354 -36 338 -32 332 -18 c 0
 215 277 118 526 27 755 c 1
EndSplineSet
Validated: 513
Substitution2: "'smcp' Lowercase to Small Capitals in Latin lookup 0 subtable" backslash.sc
Substitution2: "'c2sc' Capitals to Small Capitals in Latin lookup 0 subtable" backslash.sc
EndChar

StartChar: bracketright
Encoding: 93 93 61
Width: 309
Flags: W
VStem: 127 107<-80.0317 728.032>
LayerCount: 2
Back
Fore
SplineSet
215 770 m 0
 228 769 234 758 234 747 c 0
 234 747 234 -99 234 -99 c 0
 234 -110 228 -121 215 -122 c 0
 112 -122 46 -131 10 -138 c 1
 8 -138 4 -135 4 -129 c 0
 4 -116 12 -104 14 -103 c 0
 44 -88 100 -82 127 -76 c 1
 127 -76 127 724 127 724 c 17
 100 730 44 736 14 751 c 0
 12 752 4 764 4 777 c 0
 4 783 8 786 10 786 c 1
 46 779 112 770 215 770 c 0
EndSplineSet
Validated: 513
Substitution2: "'smcp' Lowercase to Small Capitals in Latin lookup 0 subtable" bracketright.sc
Substitution2: "'c2sc' Capitals to Small Capitals in Latin lookup 0 subtable" bracketright.sc
EndChar

StartChar: asciicircum
Encoding: 94 94 62
Width: 391
Flags: W
HStem: 419 250
VStem: 38 295
LayerCount: 2
Back
Fore
SplineSet
186 669 m 0
 192 669 201 664 206 655 c 0
 257 566 279 521 333 437 c 1
 333 426 322 419 314 419 c 1
 256 473 186 556 186 556 c 25
 186 556 116 473 58 419 c 1
 50 419 38 426 38 437 c 1
 92 521 116 566 167 655 c 0
 172 664 180 669 186 669 c 0
EndSplineSet
Validated: 1
Substitution2: "'smcp' Lowercase to Small Capitals in Latin lookup 0 subtable" asciicircum.sc
EndChar

StartChar: underscore
Encoding: 95 95 63
Width: 493
Flags: W
HStem: -43 56<15 460>
LayerCount: 2
Back
Fore
SplineSet
8 -33 m 1
 8 -33 13 13 23 13 c 2
 23 13 472 13 472 13 c 2
 474 13 476 12 476 8 c 0
 476 -1 472 -15 466 -37 c 0
 464 -43 460 -43 460 -43 c 1
 460 -43 15 -43 15 -43 c 1
 15 -43 8 -43 8 -33 c 1
EndSplineSet
Validated: 1
EndChar

StartChar: grave
Encoding: 96 96 64
Width: 249
Flags: W
HStem: 522 165
VStem: 44 173
LayerCount: 2
Back
Fore
SplineSet
44 658 m 0
 44 666 55 687 90 687 c 0
 104 687 119 683 124 678 c 0
 161 635 217 545 217 540 c 0
 217 534 207 522 200 522 c 0
 190 522 44 619 44 658 c 0
EndSplineSet
Validated: 1
EndChar

StartChar: a
Encoding: 97 97 65
Width: 472
Flags: W
HStem: -8 70<124 239.5 334.5 429> 411 38<174.394 289.5>
VStem: 31 135<78.1133 172.955> 43 108<292.124 371.344> 268 130<68.207 223 256.029 377.779>
LayerCount: 2
Back
Fore
SplineSet
227 62 m 0xe8
 252 62 268 77 268 83 c 2
 268 83 268 223 268 223 c 1
 248 213 222 204 202 191 c 0
 174 173 165 146 166 124 c 0
 167 81 201 62 227 62 c 0xe8
248 449 m 0
 331 449 398 386 398 296 c 2
 398 296 398 109 398 109 c 2
 398 82 409 68 422 68 c 0
 436 68 447 76 451 78 c 1
 455 76 458 67 458 61 c 3
 458 54 457 51 454 46 c 1
 440 33 393 -6 351 -6 c 0
 318 -6 284 20 275 44 c 1
 266 36 198 -8 162 -8 c 0
 86 -8 31 55 31 114 c 0xe8
 31 153 57 186 83 194 c 0
 121 206 217 245 268 264 c 1
 268 271 268 278 268 285 c 2
 268 285 268 311 268 311 c 2
 268 361 244 411 209 411 c 0
 171 411 161 372 151 327 c 0
 146 304 130 283 95 283 c 0
 68 283 43 303 43 331 c 0xd8
 43 344 49 358 57 372 c 1
 70 385 160 449 248 449 c 0
EndSplineSet
Validated: 33
Substitution2: "'smcp' Lowercase to Small Capitals in Latin lookup 0 subtable" a.sc
EndChar

StartChar: b
Encoding: 98 98 66
Width: 542
Flags: W
HStem: -8 44<212.092 315.015> 375 74<241.003 316.189> 624 32<-1.67188 55.5286> 675 20G<192.5 197>
VStem: 68 130<50.2358 352.859 401.779 614.125> 367 144<134.511 316.265>
LayerCount: 2
Back
Fore
SplineSet
243 -8 m 0
 191 -8 143 15 117 15 c 0
 99 15 87 11 80 8 c 1
 77 8 56 26 56 33 c 1
 63 51 68 86 68 152 c 2
 68 152 68 558 68 558 c 2
 68 575 68 589 61 606 c 0
 56 618 13 624 1 624 c 1
 -3 624 -4 652 1 656 c 1
 113 666 191 695 194 695 c 1
 200 694 208 683 209 678 c 1
 209 678 198 633 198 577 c 2
 198 577 198 415 198 415 c 2
 198 410 198 397 204 402 c 0
 219 414 269 449 303 449 c 0
 419 449 511 359 511 236 c 0
 511 76 373 -8 243 -8 c 0
253 375 m 0
 225 375 210 363 201 353 c 0
 198 350 198 347 198 344 c 2
 198 344 198 98 198 98 c 2
 198 64 222 36 264 36 c 0
 328 36 367 122 367 196 c 0
 367 333 315 375 253 375 c 0
EndSplineSet
Validated: 1
Substitution2: "'smcp' Lowercase to Small Capitals in Latin lookup 0 subtable" b.sc
EndChar

StartChar: c
Encoding: 99 99 67
Width: 447
Flags: W
HStem: -9 84<226.332 332.626> 396 52<192.134 319.5>
VStem: 31 126<151.509 290.309>
LayerCount: 2
Back
Fore
SplineSet
413 382 m 0
 413 353 391 320 355 320 c 0
 328 320 311 347 295 365 c 0
 278 384 252 396 227 396 c 0
 183 396 157 319 157 258 c 0
 157 118 237 75 301 75 c 0
 359 75 392 102 413 125 c 1
 420 123 425 113 425 107 c 3
 425 100 424 91 422 88 c 0
 404 60 336 -9 241 -9 c 0
 129 -9 31 69 31 200 c 0
 31 322 154 448 292 448 c 0
 347 448 382 437 393 430 c 1
 402 420 413 408 413 382 c 0
EndSplineSet
Validated: 1
Substitution2: "'smcp' Lowercase to Small Capitals in Latin lookup 0 subtable" c.sc
EndChar

StartChar: d
Encoding: 100 100 68
Width: 547
Flags: W
HStem: -8 64<165 294.956> 28 32<478.435 525.823> 395 51<210.607 324.309> 624 32<269.328 326.529> 675 20G<463.5 468>
VStem: 32 142<121.851 297.682> 339 130<70.4709 378.4 444.011 614.125>
LayerCount: 2
Back
Fore
SplineSet
294 446 m 4xbe
 315 446 326 445 334 444 c 1
 338 444 339 459 339 467 c 0
 339 492 339 525 339 558 c 0
 339 577 339 589 332 606 c 0
 327 618 284 624 272 624 c 1
 268 624 267 652 272 656 c 1
 384 666 462 695 465 695 c 1
 471 694 479 683 480 678 c 1
 480 678 469 633 469 577 c 2
 469 577 469 108 469 108 c 26
 469 93 469 80 478 70 c 0
 487 60 514 60 523 60 c 1
 525 58 526 54 526 47 c 0
 526 41 524 34 520 28 c 1x7e
 461 22 361 -7 348 -7 c 0
 344 -7 339 2 339 17 c 2
 339 17 339 33 339 33 c 18
 339 35 339 40 336 38 c 0
 320 27 266 -8 213 -8 c 0
 117 -8 32 82 32 200 c 0
 32 370 203 446 294 446 c 4xbe
261 395 m 0
 197 395 174 323 174 243 c 0
 174 133 213 56 275 56 c 0xbe
 303 56 339 80 339 93 c 2
 339 93 339 350 339 350 c 2
 339 368 303 395 261 395 c 0
EndSplineSet
Validated: 1
Substitution2: "'smcp' Lowercase to Small Capitals in Latin lookup 0 subtable" d.sc
EndChar

StartChar: e
Encoding: 101 101 69
Width: 460
Flags: W
HStem: -9 84<230.39 333.626> 242 40<163 290.823> 406 41<200.95 283.103>
VStem: 32 130<147.948 242 282 297.174> 305 124<289.978 370.347>
LayerCount: 2
Back
Fore
SplineSet
163 282 m 1
 172 281 268 287 292 290 c 0
 304 291 305 300 305 306 c 11
 305 352 289 406 244 406 c 3
 185 406 163 316 163 282 c 1
162 242 m 1
 162 102 257 75 302 75 c 0
 360 75 393 102 414 125 c 1
 421 123 426 113 426 107 c 3
 426 100 425 91 423 88 c 0
 405 60 337 -9 242 -9 c 0
 130 -9 32 69 32 200 c 0
 32 326 139 447 254 447 c 0
 385 447 429 354 429 296 c 0
 429 274 417 255 402 254 c 0
 334 248 236 244 162 242 c 1
EndSplineSet
Validated: 33
Substitution2: "'smcp' Lowercase to Small Capitals in Latin lookup 0 subtable" e.sc
EndChar

StartChar: f
Encoding: 102 102 70
Width: 355
Flags: W
HStem: -4 37<24.7205 90.9985 237.002 303.279> 381 47<31.9586 99 229 345.039> 626 72<240.629 322>
VStem: 99 130<41.2661 381 428 540.641>
LayerCount: 2
Back
Fore
SplineSet
306 698 m 0
 338 698 356 692 370 688 c 1
 387 679 409 666 409 642 c 27
 409 609 391 573 358 573 c 19
 328 573 311 596 292 611 c 0
 281 620 268 626 252 626 c 0
 236 626 222 591 222 544 c 0
 222 498 224 459 226 428 c 1
 233 428 310 428 343 428 c 0
 347 428 349 420 349 415 c 0
 349 406 336 388 326 381 c 1
 296 381 262 381 229 381 c 1
 229 381 229 145 229 145 c 2
 229 102 229 71 237 51 c 0
 242 38 288 34 301 33 c 1
 306 26 305 2 301 -4 c 1
 262 0 206 3 164 3 c 0
 122 3 66 0 27 -4 c 1
 23 2 22 26 27 33 c 1
 40 34 86 38 91 51 c 0
 99 71 99 102 99 145 c 2
 99 145 99 292 99 381 c 1
 72 381 54 381 28 381 c 1
 23 383 23 390 23 394 c 1
 33 408 43 418 55 428 c 1
 68 428 89 428 99 428 c 9
 99 428 99 443 99 443 c 2
 99 580 231 698 306 698 c 0
EndSplineSet
Validated: 33
Substitution2: "'smcp' Lowercase to Small Capitals in Latin lookup 0 subtable" f.sc
EndChar

StartChar: g
Encoding: 103 103 71
Width: 478
Flags: W
HStem: -218 56<175.684 308.846> -14 111<146.275 346.633> 148 37<190.923 268.139> 366 61<389.206 458.813> 406 37<177.138 253.603>
VStem: 24 110<-121.74 -54.107> 39 121<220.825 365.646> 49 97<71 122.664> 282 121<226.627 369.198> 372 87<-93.8474 3>
LayerCount: 2
Back
Fore
SplineSet
215 406 m 0xea80
 163 406 160 352 160 307 c 0
 160 251 179 185 231 185 c 0
 283 185 282 241 282 285 c 0
 282 340 267 406 215 406 c 0xea80
260 -14 m 0
 223 -14 169 -14 150 -14 c 1
 143 -22 134 -35 134 -58 c 0
 134 -124 184 -162 254 -162 c 0
 350 -162 372 -112 372 -79 c 0xe440
 372 -37 324 -14 260 -14 c 0
326 96 m 0
 418 91 459 20 459 -14 c 0
 459 -135 327 -218 191 -218 c 0
 93 -218 24 -171 24 -103 c 0xf440
 24 -63 72 -24 109 -6 c 1
 75 3 49 50 49 92 c 0xf1
 49 110 94 144 132 165 c 1
 75 188 39 237 39 294 c 0
 39 377 118 443 220 443 c 0xea
 265 443 299 437 327 418 c 0
 330 415 331 415 333 415 c 2
 333 415 458 427 458 427 c 1
 461 426 469 422 469 416 c 0
 469 409 454 373 444 366 c 1
 422 368 414 369 388 372 c 0
 386 372 382 371 382 369 c 1
 398 347 403 327 403 299 c 0
 403 216 325 148 222 148 c 0
 204 148 186 150 170 153 c 1
 159 144 146 132 146 122 c 0xf180
 146 107 170 97 194 97 c 0
 232 97 291 98 326 96 c 0
EndSplineSet
Validated: 33
Substitution2: "'smcp' Lowercase to Small Capitals in Latin lookup 0 subtable" g.sc
EndChar

StartChar: h
Encoding: 104 104 72
Width: 583
Flags: W
HStem: -4 37<13.7205 79.9985 226.002 285.279 310.721 364.998 511.002 577.279> 365 1<219 306> 624 32<18.3281 75.5286> 675 20G<212.5 217>
VStem: 88 130<41.2661 338.951 366.048 615.244> 373 130<41.2661 334.749>
LayerCount: 2
Back
Fore
SplineSet
367 446 m 0
 481 446 503 368 503 210 c 2
 503 210 503 145 503 145 c 2
 503 102 503 71 511 51 c 0
 516 38 562 34 575 33 c 1
 580 26 579 2 575 -4 c 1
 536 0 480 3 438 3 c 0
 396 3 352 0 313 -4 c 1
 309 2 308 26 313 33 c 1
 326 34 360 38 365 51 c 0
 373 71 373 102 373 145 c 2
 373 145 373 224 373 224 c 2
 373 296 359 365 306 365 c 0
 266 365 218 329 218 309 c 2
 218 309 218 145 218 145 c 2
 218 108 218 71 226 51 c 0
 231 38 270 34 283 33 c 1
 288 26 287 2 283 -4 c 1
 244 0 195 3 153 3 c 0
 111 3 55 0 16 -4 c 1
 12 2 11 26 16 33 c 1
 29 34 75 38 80 51 c 0
 88 71 88 102 88 145 c 2
 88 145 88 558 88 558 c 2
 88 575 88 589 81 606 c 0
 76 618 33 624 21 624 c 1
 17 624 16 652 21 656 c 1
 133 666 211 695 214 695 c 1
 220 694 228 683 229 678 c 1
 229 678 218 616 218 576 c 0
 218 576 218 372 218 372 c 0
 218 369 218 367 219 366 c 1
 221 366 224 369 226 371 c 0
 254 403 321 446 367 446 c 0
EndSplineSet
Validated: 33
Substitution2: "'smcp' Lowercase to Small Capitals in Latin lookup 0 subtable" h.sc
EndChar

StartChar: i
Encoding: 105 105 73
Width: 315
Flags: W
HStem: -4 37<26.7205 92.9985 239.002 298.279> 362 31<27.0323 87.1875> 426 20G<206 228.5> 544 144<103.796 208.727>
VStem: 84 145<565 667> 101 130<41.2661 351.93>
LayerCount: 2
Back
Fore
SplineSet
231 309 m 2xf4
 231 309 231 145 231 145 c 2
 231 108 231 71 239 51 c 0
 244 38 283 34 296 33 c 1
 301 26 300 2 296 -4 c 1
 257 0 208 3 166 3 c 0
 124 3 68 0 29 -4 c 1
 25 2 24 26 29 33 c 1
 42 34 88 38 93 51 c 0
 101 71 101 102 101 145 c 2
 101 145 101 260 101 260 c 2
 101 270 100 327 92 342 c 0
 84 357 36 362 29 362 c 1
 26 364 25 393 30 393 c 1
 106 399 187 427 225 446 c 1
 232 444 242 432 242 429 c 1
 239 421 233 386 232 372 c 0
 231 350 231 315 231 309 c 2xf4
84 616 m 0xf8
 84 656 116 688 156 688 c 0
 196 688 229 656 229 616 c 0
 229 576 196 544 156 544 c 0
 116 544 84 576 84 616 c 0xf8
EndSplineSet
Validated: 33
Substitution2: "'smcp' Lowercase to Small Capitals in Latin lookup 0 subtable" i.sc
EndChar

StartChar: j
Encoding: 106 106 74
Width: 286
Flags: W
HStem: -218 24<-10.4946 4.55321> 362 31<15.0323 75.1875> 426 20G<194 216.5> 542 148<93.625 198.375>
VStem: 72 148<563.625 668.375> 89 130<-43.1268 351.93>
LayerCount: 2
Back
Fore
SplineSet
89 64 m 2xf4
 89 64 89 260 89 260 c 2xf4
 89 270 88 327 80 342 c 0
 72 357 24 362 17 362 c 1
 14 364 13 393 18 393 c 1
 94 399 175 427 213 446 c 1
 220 444 230 432 230 429 c 1
 227 421 221 386 220 372 c 0xf8
 219 350 219 315 219 309 c 2
 219 309 219 120 219 120 c 2
 219 36 208 -48 171 -102 c 0
 124 -170 36 -218 2 -218 c 1
 -5 -214 -12 -207 -12 -201 c 0
 -12 -199 -12 -195 -11 -194 c 0
 -7 -192 89 -142 89 64 c 2xf4
72 616 m 0xf8
 72 657 105 690 146 690 c 0
 187 690 220 657 220 616 c 0
 220 575 187 542 146 542 c 0
 105 542 72 575 72 616 c 0xf8
EndSplineSet
Validated: 1
Substitution2: "'smcp' Lowercase to Small Capitals in Latin lookup 0 subtable" j.sc
EndChar

StartChar: k
Encoding: 107 107 75
Width: 590
Flags: W
HStem: -4 37<14.2382 78.8569 227.143 291.762 523.295 586.227> 405 35<484.68 561.394> 624 32<18.3281 75.5286> 675 20G<212.5 217>
VStem: 88 130<41.2661 201 236 615.244>
LayerCount: 2
Back
Fore
SplineSet
218 145 m 2
 218 102 218 71 226 51 c 0
 231 38 277 34 290 33 c 1
 295 26 294 2 290 -4 c 1
 251 0 195 3 153 3 c 0
 111 3 55 0 16 -4 c 1
 12 2 11 26 16 33 c 1
 29 34 75 38 80 51 c 0
 88 71 88 102 88 145 c 2
 88 145 88 558 88 558 c 2
 88 575 88 589 81 606 c 0
 76 618 33 624 21 624 c 1
 17 624 16 652 21 656 c 1
 133 666 211 695 214 695 c 1
 220 694 228 683 229 678 c 1
 229 678 218 616 218 576 c 0
 218 576 217 236 217 236 c 1
 234 242 257 257 292 287 c 0
 362 347 380 368 380 383 c 0
 380 395 334 404 316 405 c 1
 313 414 313 437 318 439 c 1
 318 439 407 435 449 435 c 0
 485 435 515 438 560 440 c 1
 566 430 563 408 557 405 c 1
 526 402 484 392 458 374 c 0
 437 359 387 310 326 256 c 1
 397 173 412 161 468 98 c 0
 523 37 555 36 587 36 c 1
 593 25 588 8 587 6 c 1
 571 0 524 -6 486 -6 c 0
 428 -6 379 18 349 53 c 2
 349 53 280 127 231 188 c 0
 227 194 218 201 218 201 c 1
 218 201 218 145 218 145 c 2
EndSplineSet
Validated: 33
Substitution2: "'smcp' Lowercase to Small Capitals in Latin lookup 0 subtable" k.sc
EndChar

StartChar: l
Encoding: 108 108 76
Width: 306
Flags: W
HStem: -4 37<13.7205 79.9985 226.002 292.279> 624 32<18.3281 75.5286> 675 20G<212.5 217>
VStem: 88 130<41.2661 615.244>
LayerCount: 2
Back
Fore
SplineSet
88 558 m 2
 88 575 88 589 81 606 c 0
 76 618 33 624 21 624 c 1
 17 624 16 652 21 656 c 1
 133 666 211 695 214 695 c 1
 220 694 228 683 229 678 c 1
 229 678 218 616 218 576 c 0
 218 576 218 145 218 145 c 18
 218 102 218 71 226 51 c 0
 231 38 277 34 290 33 c 1
 295 26 294 2 290 -4 c 1
 251 0 195 3 153 3 c 0
 111 3 55 0 16 -4 c 1
 12 2 11 26 16 33 c 1
 29 34 75 38 80 51 c 0
 88 71 88 102 88 145 c 2
 88 145 88 558 88 558 c 2
EndSplineSet
Validated: 33
Substitution2: "'smcp' Lowercase to Small Capitals in Latin lookup 0 subtable" l.sc
EndChar

StartChar: m
Encoding: 109 109 77
Width: 883
Flags: W
HStem: -4 37<26.7205 92.9985 239.002 298.279 321.721 377.998 524.002 588.279 610.721 664.998 811.002 877.279> 362 31<27.0323 87.1875> 365 81<310.025 402.423 593.527 714.423>
VStem: 101 130<41.2661 338.951> 386 130<41.2661 338.449> 673 130<41.2661 334.749>
LayerCount: 2
Back
Fore
SplineSet
380 446 m 0xbc
 444 446 479 424 503 360 c 1
 547 403 621 446 667 446 c 0
 781 446 803 368 803 210 c 2
 803 210 803 145 803 145 c 2
 803 102 803 71 811 51 c 0
 816 38 862 34 875 33 c 1
 880 26 879 2 875 -4 c 1
 836 0 780 3 738 3 c 0
 696 3 652 0 613 -4 c 1
 609 2 608 26 613 33 c 1
 626 34 660 38 665 51 c 0
 673 71 673 102 673 145 c 2
 673 145 673 224 673 224 c 2
 673 296 659 365 606 365 c 0
 566 365 512 330 512 310 c 8
 512 308 512 306 512 304 c 0
 514 276 516 245 516 210 c 2
 516 210 516 145 516 145 c 2
 516 102 516 71 524 51 c 0
 529 38 573 34 586 33 c 1
 591 26 590 2 586 -4 c 1
 547 0 493 3 451 3 c 0
 409 3 363 0 324 -4 c 1
 320 2 319 26 324 33 c 1
 337 34 373 38 378 51 c 0
 386 71 386 102 386 145 c 2
 386 145 386 224 386 224 c 2
 386 296 372 365 319 365 c 0xbc
 279 365 231 329 231 309 c 2
 231 309 231 145 231 145 c 2
 231 108 231 71 239 51 c 0
 244 38 283 34 296 33 c 1
 301 26 300 2 296 -4 c 1
 257 0 208 3 166 3 c 0
 124 3 68 0 29 -4 c 1
 25 2 24 26 29 33 c 1
 42 34 88 38 93 51 c 0
 101 71 101 102 101 145 c 2
 101 145 101 260 101 260 c 2
 101 270 100 327 92 342 c 0
 84 357 36 362 29 362 c 1
 26 364 25 393 30 393 c 1xdc
 106 399 187 427 225 446 c 1
 232 444 242 432 242 429 c 1
 239 421 231 373 232 372 c 0
 232 369 232 367 233 366 c 1
 235 366 238 369 240 371 c 0
 268 403 334 446 380 446 c 0xbc
EndSplineSet
Validated: 33
Substitution2: "'smcp' Lowercase to Small Capitals in Latin lookup 0 subtable" m.sc
EndChar

StartChar: n
Encoding: 110 110 78
Width: 596
Flags: W
HStem: -4 37<26.7205 92.9985 239.002 298.279 323.721 377.998 524.002 590.279> 362 31<27.0323 87.1875> 365 1<233 319> 426 20G<206 228>
VStem: 101 130<41.2661 338.951> 386 130<41.2661 334.749>
LayerCount: 2
Back
Fore
SplineSet
380 446 m 0xbc
 494 446 516 368 516 210 c 2
 516 210 516 145 516 145 c 2
 516 102 516 71 524 51 c 0
 529 38 575 34 588 33 c 1
 593 26 592 2 588 -4 c 1
 549 0 493 3 451 3 c 0
 409 3 365 0 326 -4 c 1
 322 2 321 26 326 33 c 1
 339 34 373 38 378 51 c 0
 386 71 386 102 386 145 c 2
 386 145 386 224 386 224 c 2
 386 296 372 365 319 365 c 0xbc
 279 365 231 329 231 309 c 2
 231 309 231 145 231 145 c 2
 231 108 231 71 239 51 c 0
 244 38 283 34 296 33 c 1
 301 26 300 2 296 -4 c 1
 257 0 208 3 166 3 c 0
 124 3 68 0 29 -4 c 1
 25 2 24 26 29 33 c 1
 42 34 88 38 93 51 c 0
 101 71 101 102 101 145 c 2
 101 145 101 260 101 260 c 2
 101 270 100 327 92 342 c 0
 84 357 36 362 29 362 c 1
 26 364 25 393 30 393 c 1xdc
 106 399 187 427 225 446 c 1
 231 446 242 434 242 429 c 1
 240 421 232 373 232 372 c 0
 232 369 232 367 233 366 c 1
 235 366 238 369 240 371 c 0
 268 403 334 446 380 446 c 0xbc
EndSplineSet
Validated: 33
Substitution2: "'smcp' Lowercase to Small Capitals in Latin lookup 0 subtable" n.sc
EndChar

StartChar: o
Encoding: 111 111 79
Width: 532
Flags: W
HStem: -7 42<229.597 322.545> 406 41<209.207 298.807>
VStem: 32 142<118.592 313.407> 358 142<126.606 322.548>
LayerCount: 2
Back
Fore
SplineSet
254 406 m 3
 181 406 174 310 174 237 c 27
 174 149 204 35 277 35 c 3
 350 35 358 130 358 202 c 27
 358 291 327 406 254 406 c 3
265 447 m 0
 403 447 500 352 500 225 c 0
 500 99 399 -7 267 -7 c 0
 128 -7 32 91 32 217 c 0
 32 343 134 447 265 447 c 0
EndSplineSet
Validated: 1
Substitution2: "'smcp' Lowercase to Small Capitals in Latin lookup 0 subtable" o.sc
EndChar

StartChar: p
Encoding: 112 112 80
Width: 553
Flags: W
HStem: -218 37<10.7205 76.9985 223.002 289.279> -8 44<229.186 325.344> 362 31<11.0323 71.1875> 375 73<265.334 331.816>
VStem: 85 130<-172.734 0.997055 50.0771 351.93> 377 144<134.92 323.157>
LayerCount: 2
Back
Fore
SplineSet
325 448 m 0xdc
 446 448 521 345 521 234 c 0
 521 81 386 -8 276 -8 c 0
 248 -8 222 1 218 1 c 1
 215 1 215 -3 215 -15 c 2
 215 -15 215 -69 215 -69 c 2
 215 -112 215 -143 223 -163 c 0
 228 -176 274 -180 287 -181 c 1
 292 -188 291 -212 287 -218 c 1
 248 -214 192 -211 150 -211 c 0
 108 -211 52 -214 13 -218 c 1
 9 -212 8 -188 13 -181 c 1
 26 -180 72 -176 77 -163 c 0
 85 -143 85 -112 85 -69 c 2
 85 -69 85 260 85 260 c 2
 85 270 84 327 76 342 c 0
 68 357 20 362 13 362 c 1
 10 364 9 393 14 393 c 1xec
 90 399 171 427 209 446 c 1
 216 444 226 432 226 429 c 1
 224 423 217 411 217 395 c 0
 217 389 219 387 221 389 c 0
 251 421 294 448 325 448 c 0xdc
270 375 m 0xdc
 233 375 215 352 215 347 c 2
 215 347 215 96 215 96 c 2
 215 56 248 36 283 36 c 0
 316 36 377 83 377 199 c 0
 377 302 351 375 270 375 c 0xdc
EndSplineSet
Validated: 33
Substitution2: "'smcp' Lowercase to Small Capitals in Latin lookup 0 subtable" p.sc
EndChar

StartChar: q
Encoding: 113 113 81
Width: 534
Flags: W
HStem: -218 37<261.721 327.998 474.002 540.279> -8 64<165.5 301.682> 394 52<210.482 319.088>
VStem: 32 142<119.026 292.643> 336 130<-172.734 30.222 63.9757 375.935>
LayerCount: 2
Back
Fore
SplineSet
262 394 m 0
 192 394 174 314 174 243 c 0
 174 160 199 56 276 56 c 0
 312 56 336 76 336 80 c 2
 336 80 336 344 336 344 c 2
 336 354 314 394 262 394 c 0
300 446 m 0
 338 446 388 423 418 423 c 0
 439 423 448 428 454 430 c 1
 460 428 478 412 478 405 c 1
 473 393 466 360 466 291 c 2
 466 291 466 -69 466 -69 c 2
 466 -112 466 -143 474 -163 c 0
 479 -176 525 -180 538 -181 c 1
 543 -188 542 -212 538 -218 c 1
 499 -214 443 -211 401 -211 c 0
 359 -211 303 -214 264 -218 c 1
 260 -212 259 -188 264 -181 c 1
 277 -180 323 -176 328 -163 c 0
 336 -143 336 -112 336 -69 c 2
 336 -69 336 17 336 17 c 2
 336 23 336 35 330 30 c 0
 315 19 263 -8 216 -8 c 0
 115 -8 32 84 32 192 c 0
 32 349 173 446 300 446 c 0
EndSplineSet
Validated: 33
Substitution2: "'smcp' Lowercase to Small Capitals in Latin lookup 0 subtable" q.sc
EndChar

StartChar: r
Encoding: 114 114 82
Width: 449
Flags: W
HStem: -4 37<26.7205 92.9985 239.002 315.279> 348 99<277.5 376> 362 31<27.0323 87.1875>
VStem: 101 130<42.0335 320.253>
LayerCount: 2
Back
Fore
SplineSet
363 447 m 11xd0
 389 447 413 442 426 430 c 1
 430 424 437 402 437 381 c 0
 437 347 411 302 377 302 c 3
 359 302 346 317 334 327 c 0
 323 337 315 348 298 348 c 11xd0
 257 348 231 288 231 267 c 2
 231 267 231 145 231 145 c 2
 231 108 231 71 239 51 c 0
 244 38 300 34 313 33 c 1
 318 26 317 2 313 -4 c 1
 274 0 208 3 166 3 c 0
 124 3 68 0 29 -4 c 1
 25 2 24 26 29 33 c 1
 42 34 88 38 93 51 c 0
 101 71 101 102 101 145 c 2
 101 145 101 260 101 260 c 2
 101 270 100 327 92 342 c 0
 84 357 36 362 29 362 c 1
 26 364 25 393 30 393 c 1xb0
 106 399 187 427 225 446 c 1
 232 444 242 432 242 429 c 1
 239 421 232 364 232 350 c 0
 232 345 237 345 238 347 c 0
 262 390 300 447 363 447 c 11xd0
EndSplineSet
Validated: 33
Substitution2: "'smcp' Lowercase to Small Capitals in Latin lookup 0 subtable" r.sc
EndChar

StartChar: s
Encoding: 115 115 83
Width: 404
Flags: W
HStem: -8 40<128.28 232.806> 408 40<168.713 274.324>
VStem: 38 119<274.689 380.15> 45 37<86.4219 149.713> 247 120<56.656 172.818>
LayerCount: 2
Back
Fore
SplineSet
224 448 m 0xe8
 271 448 303 436 336 429 c 1
 344 395 357 323 357 306 c 0
 357 302 346 299 339 299 c 0
 331 299 326 303 320 307 c 1
 310 352 284 408 214 408 c 0
 181 408 157 390 157 354 c 0xe8
 157 302 215 287 259 265 c 0
 311 239 367 215 367 130 c 0
 367 30 274 -8 170 -8 c 0
 126 -8 78 7 53 13 c 1
 49 36 45 132 45 143 c 0
 45 149 55 150 60 150 c 0
 67 150 79 146 82 140 c 1xd8
 96 53 150 32 190 32 c 0
 225 32 247 58 247 86 c 0
 247 136 191 149 144 175 c 0
 86 207 38 242 38 310 c 0
 38 410 145 448 224 448 c 0xe8
EndSplineSet
Validated: 1
Substitution2: "'smcp' Lowercase to Small Capitals in Latin lookup 0 subtable" s.sc
EndChar

StartChar: t
Encoding: 116 116 84
Width: 342
Flags: W
HStem: -7 64<181 277.975> 381 47<14.9586 82 212 328.039>
VStem: 82 130<68.9375 381 428 500.009>
LayerCount: 2
Back
Fore
SplineSet
212 428 m 1
 219 428 293 428 326 428 c 0
 330 428 332 420 332 415 c 0
 332 406 319 388 309 381 c 1
 279 381 245 381 212 381 c 1
 212 381 212 133 212 133 c 2
 212 80 229 57 266 57 c 0
 290 57 316 78 319 81 c 1
 321 79 326 72 326 67 c 0
 326 62 320 50 318 48 c 0
 309 38 264 -7 212 -7 c 0
 150 -7 82 27 82 139 c 2
 82 139 82 381 82 381 c 1
 55 381 37 381 11 381 c 1
 6 383 6 390 6 394 c 1
 16 408 26 418 38 428 c 1
 51 428 72 428 82 428 c 9
 82 428 82 461 82 481 c 1
 120 513 156 556 187 587 c 1
 198 594 211 593 212 587 c 1
 212 533 212 481 212 428 c 1
EndSplineSet
Validated: 1
Substitution2: "'smcp' Lowercase to Small Capitals in Latin lookup 0 subtable" t.sc
EndChar

StartChar: u
Encoding: 117 117 85
Width: 566
Flags: W
HStem: -5 61<163.5 313.462> 28 32<494.436 541.823> 362 31<9.83954 69.3438 281.84 341.344> 426 20G<189 211.5 461 483.5>
VStem: 84 130<87.0607 351.453> 356 130<70.4709 351.453>
LayerCount: 2
Back
Fore
SplineSet
356 260 m 2xbc
 356 270 354 327 346 342 c 0
 338 357 291 362 284 362 c 1
 281 364 279 393 284 393 c 1
 360 399 442 427 480 446 c 1
 487 444 496 432 496 429 c 1
 493 421 487 386 486 372 c 0
 485 350 486 315 486 309 c 2
 486 309 486 108 486 108 c 10
 486 93 485 80 494 70 c 0
 503 60 531 60 540 60 c 1
 542 58 542 54 542 47 c 0
 542 41 540 34 536 28 c 1x7c
 477 22 377 -7 364 -7 c 0
 360 -7 356 2 356 17 c 2
 356 17 356 33 356 33 c 18
 356 35 355 40 352 38 c 0
 336 27 282 -5 212 -5 c 3
 115 -5 84 80 84 174 c 2
 84 174 84 260 84 260 c 2
 84 270 82 327 74 342 c 0
 66 357 19 362 12 362 c 1
 9 364 7 393 12 393 c 1
 88 399 170 427 208 446 c 1
 215 444 224 432 224 429 c 1
 221 421 215 386 214 372 c 0
 213 350 214 315 214 309 c 2
 214 309 214 219 214 219 c 2
 214 113 230 56 292 56 c 0
 320 56 356 78 356 93 c 2
 356 93 356 260 356 260 c 2xbc
EndSplineSet
Validated: 33
Substitution2: "'smcp' Lowercase to Small Capitals in Latin lookup 0 subtable" u.sc
EndChar

StartChar: v
Encoding: 118 118 86
Width: 533
Flags: W
HStem: -11 21G<252.5 260> 406 37<-2.40566 47.6829 206.417 263.692 323.172 393.591 465.902 536.391>
LayerCount: 2
Back
Fore
SplineSet
135 436 m 0
 177 436 236 440 261 443 c 1
 266 438 266 412 261 406 c 1
 249 406 202 396 202 379 c 0
 202 376 202 369 204 364 c 0
 240 294 307 167 307 167 c 1
 307 167 353 268 386 342 c 0
 391 352 397 368 397 379 c 0
 397 404 334 406 326 406 c 1
 321 411 321 436 325 443 c 1
 355 439 391 436 430 436 c 0
 472 436 519 441 534 443 c 1
 538 438 539 413 534 406 c 1
 522 406 467 402 453 373 c 2
 453 373 299 45 299 45 c 2
 279 6 266 -11 254 -11 c 0
 251 -11 245 -6 242 -3 c 1
 184 117 130 230 63 368 c 1
 50 398 8 406 -0 406 c 1
 -6 414 -4 437 -0 443 c 1
 26 440 96 436 135 436 c 0
EndSplineSet
Validated: 33
Substitution2: "'smcp' Lowercase to Small Capitals in Latin lookup 0 subtable" v.sc
EndChar

StartChar: w
Encoding: 119 119 87
Width: 789
Flags: W
HStem: -11 21G<250.5 256.5 522.5 528.5> 406 37<-2.40566 47.2532 206.417 263.692 291.625 340.679 500.417 557.692 587.172 657.591 730.052 791.391>
VStem: 367 129<320.283 384.275>
LayerCount: 2
Back
Fore
SplineSet
128 436 m 0
 170 436 236 440 261 443 c 1
 266 438 266 412 261 406 c 1
 249 406 202 396 202 379 c 0
 202 376 202 369 204 364 c 0
 240 294 301 172 301 172 c 1
 301 172 367 320 367 335 c 0
 367 346 361 362 358 368 c 0
 343 397 303 406 295 406 c 1
 288 414 290 437 294 443 c 1
 334 438 390 437 429 436 c 1
 471 436 530 440 555 443 c 1
 560 438 560 412 555 406 c 1
 543 406 496 396 496 379 c 0
 496 376 496 369 498 364 c 0
 530 292 582 180 582 180 c 1
 582 180 618 269 650 342 c 0
 654 352 661 368 661 379 c 0
 661 404 598 406 590 406 c 1
 585 411 585 436 589 443 c 1
 619 439 655 436 694 436 c 0
 736 436 774 441 789 443 c 1
 793 438 794 413 789 406 c 1
 777 406 734 405 721 375 c 8
 665 245 633 172 574 44 c 16
 556 5 533 -11 524 -11 c 0
 521 -11 515 -6 512 -3 c 1
 512 -3 434 198 401 276 c 1
 370 198 302 44 302 44 c 2
 285 5 261 -11 252 -11 c 0
 249 -11 243 -6 240 -3 c 1
 170 146 131 231 63 368 c 1
 49 398 8 406 -0 406 c 1
 -6 414 -4 437 -0 443 c 1
 26 440 89 436 128 436 c 0
EndSplineSet
Validated: 33
Substitution2: "'smcp' Lowercase to Small Capitals in Latin lookup 0 subtable" w.sc
EndChar

StartChar: x
Encoding: 120 120 88
Width: 558
Flags: W
HStem: -4 37<5.60938 69.8521 171.409 241.828 281.308 331.369 498.55 552.375> 406 37<14.625 71.4256 233.631 283.692 310.172 380.591 471.515 540.391>
LayerCount: 2
Back
Fore
SplineSet
155 436 m 1
 197 436 256 440 281 443 c 1
 286 438 286 412 281 406 c 1
 269 406 233 401 233 384 c 0
 233 381 239 375 243 370 c 10
 243 370 307 288 307 288 c 17
 336 319 384 370 384 379 c 0
 384 404 321 406 313 406 c 1
 308 411 308 436 312 443 c 1
 342 439 378 436 417 436 c 0
 459 436 523 441 538 443 c 1
 542 438 543 413 538 406 c 1
 520 406 483 403 455 374 c 0
 419 336 389 302 340 246 c 9
 395 176 428 135 482 66 c 0
 502 40 541 33 549 33 c 1
 556 25 554 2 550 -4 c 1
 510 1 450 2 411 3 c 1
 369 3 309 -1 284 -4 c 1
 279 1 279 27 284 33 c 1
 296 33 332 38 332 55 c 0
 332 58 326 64 322 69 c 10
 322 69 251 156 251 156 c 17
 229 132 192 97 176 75 c 0
 171 68 168 63 168 60 c 0
 168 35 231 33 239 33 c 1
 244 28 244 3 240 -4 c 1
 210 0 174 3 135 3 c 0
 93 3 23 -2 8 -4 c 1
 4 1 3 26 8 33 c 1
 26 33 68 44 92 67 c 0
 141 114 169 148 218 199 c 25
 167 267 141 305 87 374 c 0
 67 400 26 406 18 406 c 1
 11 414 13 437 17 443 c 1
 57 438 116 437 155 436 c 1
EndSplineSet
Validated: 33
Substitution2: "'smcp' Lowercase to Small Capitals in Latin lookup 0 subtable" x.sc
EndChar

StartChar: y
Encoding: 121 121 89
Width: 534
Flags: W
HStem: -218 100<17.905 135.378> 368 68<44.239 63 453 469.711> 406 37<-2.40566 47.6829 206.417 263.692 323.172 393.591 465.902 536.391>
LayerCount: 2
Back
Fore
SplineSet
135 436 m 0xc0
 177 436 236 440 261 443 c 1
 266 438 266 412 261 406 c 1
 249 406 202 396 202 379 c 0
 202 376 202 369 204 364 c 0
 240 294 307 167 307 167 c 1
 307 167 353 268 386 342 c 0
 391 352 397 368 397 379 c 0
 397 404 334 406 326 406 c 1
 321 411 321 436 325 443 c 1xa0
 355 439 391 436 430 436 c 0xc0
 472 436 519 441 534 443 c 1
 538 438 539 413 534 406 c 1xa0
 522 406 467 402 453 373 c 2
 453 373 351 157 288 25 c 0
 257 -40 242 -82 200 -135 c 0
 148 -200 103 -218 73 -218 c 0
 31 -218 6 -192 6 -165 c 3
 6 -142 16 -127 29 -118 c 1
 108 -118 153 -108 194 -40 c 0
 212 -10 216 1 229 31 c 1
 188 114 63 368 63 368 c 1xc0
 50 398 8 406 -0 406 c 1
 -6 414 -4 437 -0 443 c 1xa0
 26 440 96 436 135 436 c 0xc0
EndSplineSet
Validated: 33
Substitution2: "'smcp' Lowercase to Small Capitals in Latin lookup 0 subtable" y.sc
EndChar

StartChar: z
Encoding: 122 122 90
Width: 460
Flags: W
HStem: 0 46<177 348.92> 382 46<106.452 256.948>
VStem: 37 35<281.304 332.589> 396 38<102.525 153.163>
LayerCount: 2
Back
Fore
SplineSet
150 428 m 2
 150 428 288 428 288 428 c 2
 342 428 376 431 417 436 c 1
 422 428 420 417 420 412 c 1
 420 412 177 46 177 46 c 25
 177 46 291 46 291 46 c 2
 352 46 388 109 396 147 c 0
 397 152 405 154 409 154 c 0
 420 154 433 145 434 144 c 1
 421 105 394 0 394 0 c 1
 394 0 39 0 39 0 c 1
 39 0 29 8 29 17 c 0
 29 22 31 30 33 34 c 2
 33 34 257 381 257 381 c 1
 257 381 185 382 153 382 c 0
 102 382 83 323 72 288 c 0
 71 284 59 281 49 281 c 0
 43 281 37 283 37 285 c 1
 40 301 52 381 55 434 c 1
 55 434 114 428 150 428 c 2
EndSplineSet
Validated: 1
Substitution2: "'smcp' Lowercase to Small Capitals in Latin lookup 0 subtable" z.sc
EndChar

StartChar: braceleft
Encoding: 123 123 91
Width: 298
Flags: W
HStem: -144 26<254.847 270.58> 734 26<254.847 270.58>
VStem: 80 114<-22.7954 102.796 513.275 638.795> 107 115<92.212 230.81 385.19 525.508>
LayerCount: 2
Back
Fore
SplineSet
107 424 m 0xd0
 107 455 98 478 90 504 c 0
 85 522 80 542 80 566 c 0
 80 670 216 756 265 760 c 1
 268 760 278 742 272 734 c 1
 244 719 194 674 194 609 c 0xe0
 194 570 203 554 210 534 c 0
 216 517 222 498 222 459 c 0
 222 372 134 308 98 308 c 1
 134 308 222 244 222 157 c 0xd0
 222 118 216 99 210 82 c 0
 203 62 194 46 194 7 c 0
 194 -58 244 -103 272 -118 c 1
 278 -126 268 -144 265 -144 c 1
 216 -140 80 -54 80 50 c 0xe0
 80 81 87 104 94 126 c 0
 100 147 107 167 107 192 c 0
 107 245 61 284 19 297 c 1
 17 299 16 305 16 308 c 0
 16 312 17 317 19 319 c 1
 61 332 107 371 107 424 c 0xd0
EndSplineSet
Validated: 1
Substitution2: "'smcp' Lowercase to Small Capitals in Latin lookup 0 subtable" braceleft.sc
EndChar

StartChar: bar
Encoding: 124 124 92
Width: 202
Flags: W
VStem: 74 53<-118.239 757>
LayerCount: 2
Back
Fore
SplineSet
127 -108 m 2
 127 -116 81 -123 79 -123 c 0
 72 -123 74 -119 74 -115 c 2
 74 -115 74 757 74 757 c 1
 74 757 73 763 79 765 c 0
 96 770 115 770 118 770 c 0
 127 770 126 764 126 764 c 1
 126 764 127 -108 127 -108 c 2
EndSplineSet
Validated: 1
Substitution2: "'smcp' Lowercase to Small Capitals in Latin lookup 0 subtable" bar.sc
EndChar

StartChar: braceright
Encoding: 125 125 93
Width: 299
Flags: W
HStem: -144 26<28.42 44.1526> 734 26<28.42 44.1526>
VStem: 77 115<90.9976 230.81 385.19 525.187> 105 114<-22.7954 102.185 512.945 638.795>
LayerCount: 2
Back
Fore
SplineSet
34 760 m 1xd0
 83 756 219 670 219 566 c 0xd0
 219 539 213 518 207 498 c 0
 200 474 192 452 192 424 c 0
 192 371 238 332 280 319 c 1
 282 317 283 312 283 308 c 0
 283 305 282 299 280 297 c 1
 238 284 192 245 192 192 c 0xe0
 192 166 198 145 205 124 c 0
 212 102 219 80 219 50 c 0
 219 -54 83 -140 34 -144 c 1
 31 -144 21 -126 27 -118 c 1
 55 -103 105 -58 105 7 c 0xd0
 105 45 97 61 90 80 c 0
 83 97 77 117 77 157 c 0
 77 244 165 308 201 308 c 1
 165 308 77 372 77 459 c 0xe0
 77 507 86 525 94 546 c 0
 100 561 105 578 105 609 c 0
 105 674 55 719 27 734 c 1
 21 742 31 760 34 760 c 1xd0
EndSplineSet
Validated: 1
Substitution2: "'smcp' Lowercase to Small Capitals in Latin lookup 0 subtable" braceright.sc
EndChar

StartChar: asciitilde
Encoding: 126 126 94
Width: 550
Flags: W
HStem: 239 60<321.108 451.872> 306 60<104.128 233.702>
LayerCount: 2
Back
Fore
SplineSet
261 273 m 0
 226 287 186 306 141 306 c 0
 102 306 67 275 55 259 c 1
 52 260 49 263 48 267 c 1
 48 307 112 366 171 366 c 0
 218 366 260 347 295 332 c 0
 329 318 370 299 415 299 c 0
 454 299 489 330 501 346 c 1
 504 345 507 342 508 338 c 1
 508 298 444 239 385 239 c 0
 338 239 296 259 261 273 c 0
EndSplineSet
Validated: 513
EndChar

StartChar: exclamdown
Encoding: 161 161 96
Width: 247
Flags: W
HStem: 293 150<72.0309 176.75>
VStem: 49 150<316 419.72> 58 128<-194.241 61.0029>
LayerCount: 2
Back
Fore
SplineSet
49 369 m 0xc0
 49 409 82 443 123 443 c 27
 165 443 199 409 199 366 c 0
 199 326 165 293 124 293 c 27
 82 293 49 329 49 369 c 0xc0
120 -210 m 0
 89 -210 58 -185 58 -142 c 0
 58 -114 87 123 100 211 c 1
 104 224 108 233 120 237 c 1
 125 237 137 230 143 220 c 1
 154 153 186 -92 186 -143 c 0xa0
 186 -185 156 -210 120 -210 c 0
EndSplineSet
Validated: 1
Substitution2: "'smcp' Lowercase to Small Capitals in Latin lookup 0 subtable" exclamdown.sc
EndChar

StartChar: cent
Encoding: 162 162 97
Width: 482
Flags: W
HStem: -38 29<201.846 233> 448 33<281 314.077>
VStem: 43 126<151.509 290.309> 198 35<-33.5505 6.1307> 281 35<436.956 478.129>
LayerCount: 2
Back
Fore
SplineSet
281 481 m 17
 289 481 316 480 316 473 c 1
 316 473 233 -38 233 -38 c 1
 224 -38 201 -35 198 -29 c 9
 198 -29 281 481 281 481 c 17
425 382 m 0
 425 408 414 420 405 430 c 1
 394 437 359 448 304 448 c 0
 166 448 43 322 43 200 c 0
 43 69 141 -9 253 -9 c 0
 348 -9 416 60 434 88 c 0
 436 91 437 100 437 107 c 3
 437 113 432 123 425 125 c 1
 404 102 371 75 313 75 c 0
 249 75 169 118 169 258 c 0
 169 319 195 396 239 396 c 0
 264 396 290 384 307 365 c 0
 323 347 340 320 367 320 c 0
 403 320 425 353 425 382 c 0
EndSplineSet
Validated: 517
EndChar

StartChar: sterling
Encoding: 163 163 98
Width: 478
Flags: W
HStem: -8 102<292.599 371.376> 51 86<124.684 257> 307 42<58.1975 379.062> 580 56<240.924 333.5>
VStem: 99 105<358.353 482.38> 130 114<191.15 305.841>
LayerCount: 2
Back
Fore
SplineSet
316 636 m 0xb8
 351 636 368 626 387 614 c 1
 391 610 396 592 396 582 c 0
 396 546 374 523 347 523 c 0
 319 523 307 535 296 549 c 0
 284 564 271 580 253 580 c 0
 213 580 204 528 204 459 c 0xb8
 204 385 244 339 244 283 c 0
 244 208 198 145 173 122 c 1
 191 132 215 137 238 137 c 0x74
 276 137 309 94 361 94 c 0
 399 94 414 126 422 141 c 1
 426 143 434 139 438 134 c 24
 443 128 443 121 443 115 c 1
 432 83 386 -8 308 -8 c 0xb4
 240 -8 213 51 139 51 c 0x74
 113 51 79 10 62 -6 c 1
 54 -6 46 7 46 16 c 0
 46 45 82 78 96 94 c 0
 121 122 130 183 130 232 c 0xb4
 130 282 99 356 99 384 c 0
 99 520 222 636 316 636 c 0xb8
67 349 m 1
 83 349 372 349 383 349 c 1
 397 338 379 311 373 307 c 1
 373 307 47 307 47 307 c 17
 41 313 58 349 67 349 c 1
EndSplineSet
Validated: 549
EndChar

StartChar: currency
Encoding: 164 164 99
Width: 563
Flags: W
HStem: 120 40<241.989 332.532> 456 40<229.345 319.431>
VStem: 97 93<218.504 397.791> 369 93<217.847 397.55>
LayerCount: 2
Back
Fore
SplineSet
288 160 m 0
 338 160 369 219 369 294 c 0
 369 386 326 456 274 456 c 0
 224 456 190 394 190 319 c 0
 190 227 236 160 288 160 c 0
393 455 m 1
 393 455 452 510 452 510 c 2
 460 518 486 490 493 466 c 1
 493 466 433 410 433 410 c 1
 451 380 462 344 462 307 c 0
 462 267 450 230 429 199 c 1
 429 199 483 141 483 141 c 2
 491 133 463 107 439 100 c 1
 439 100 387 155 387 155 c 1
 357 133 321 120 281 120 c 0
 238 120 198 135 167 160 c 1
 167 160 114 110 114 110 c 2
 106 102 80 130 73 154 c 1
 73 154 127 205 127 205 c 1
 108 235 97 270 97 307 c 0
 97 351 111 391 135 423 c 1
 135 423 83 479 83 479 c 2
 75 487 103 513 127 520 c 1
 127 520 179 465 179 465 c 1
 208 485 243 496 281 496 c 0
 324 496 362 481 393 455 c 1
EndSplineSet
Validated: 33
EndChar

StartChar: yen
Encoding: 165 165 100
Width: 692
Flags: W
HStem: -4 37<186.721 252.998 409.002 475.279> 149 42<173.197 494.062> 229 42<173.197 494.062> 606 37<28.7205 85.0027 256.617 317.279 435.721 509.354 594.951 665.279>
VStem: 261 140<41.2661 306.441>
LayerCount: 2
Back
Fore
SplineSet
182 191 m 1
 198 191 487 191 498 191 c 1
 512 180 494 153 488 149 c 1
 488 149 162 149 162 149 c 17
 156 155 173 191 182 191 c 1
182 271 m 1
 198 271 487 271 498 271 c 1
 512 260 494 233 488 229 c 1
 488 229 162 229 162 229 c 17
 156 235 173 271 182 271 c 1
261 145 m 2
 261 145 261 264 261 264 c 2
 261 265 260 275 258 280 c 0
 237 328 130 518 130 518 c 2
 115 546 111 553 99 573 c 0
 84 598 44 605 31 606 c 1
 26 613 27 637 31 643 c 1
 70 639 132 636 174 636 c 0
 216 636 276 639 315 643 c 1
 319 637 320 613 315 606 c 1
 302 605 254 604 254 579 c 0
 254 575 257 570 261 563 c 2
 261 563 381 342 381 342 c 1
 386 337 464 479 507 559 c 0
 511 567 512 575 512 582 c 0
 512 600 451 605 438 606 c 1
 433 613 434 637 438 643 c 1
 485 639 505 636 551 636 c 0
 595 636 622 641 663 643 c 1
 667 637 668 613 663 606 c 1
 650 605 604 604 589 581 c 0
 569 551 434 336 407 278 c 0
 404 271 402 261 402 259 c 2
 402 259 401 145 401 145 c 2
 401 102 401 71 409 51 c 0
 414 38 460 34 473 33 c 1
 478 26 477 2 473 -4 c 1
 434 0 372 3 330 3 c 0
 288 3 228 0 189 -4 c 1
 185 2 184 26 189 33 c 1
 202 34 248 38 253 51 c 0
 261 71 261 102 261 145 c 2
EndSplineSet
Validated: 549
EndChar

StartChar: brokenbar
Encoding: 166 166 101
Width: 210
Flags: W
VStem: 79 53<-118.239 249 389.761 757>
LayerCount: 2
Back
Fore
SplineSet
132 400 m 2
 132 392 86 385 84 385 c 0
 77 385 79 389 79 393 c 2
 79 393 79 757 79 757 c 1
 79 757 78 763 84 765 c 0
 101 770 121 770 124 770 c 0
 133 770 132 764 132 764 c 1
 132 764 132 400 132 400 c 2
79 -115 m 2
 79 -115 79 249 79 249 c 1
 79 249 78 255 84 257 c 0
 101 262 121 262 124 262 c 0
 133 262 132 256 132 256 c 1
 132 256 132 -108 132 -108 c 2
 132 -116 86 -123 84 -123 c 0
 77 -123 79 -119 79 -115 c 2
EndSplineSet
Validated: 513
EndChar

StartChar: section
Encoding: 167 167 102
Width: 467
Flags: W
HStem: -92 50<139 238.122> 603 50<228.878 328>
VStem: 36 71<347.939 450.268> 146 37<501.748 523> 284 58<-7 109> 284 37<37 58.8228> 360 71<110.62 213.061>
LayerCount: 2
Back
Fore
SplineSet
321 653 m 0xf6
 209 653 125 566 125 486 c 0
 125 418 199 364 247 320 c 0
 301 270 360 213 360 130 c 0
 360 86 345 66 321 37 c 0
 321 37 300 15 293 -3 c 24
 288 -14 292 -22 291 -34 c 17
 329 -8 431 105 431 184 c 0
 431 276 375 325 311 384 c 0
 264 427 183 503 183 549 c 0
 183 587 228 603 259 603 c 0
 274 603 289 598 298 590 c 0
 307 582 320 570 339 570 c 0
 368 570 378 588 378 610 c 0
 378 616 376 630 371 640 c 1
 357 646 335 653 321 653 c 0xf6
146 -92 m 0
 132 -92 108 -84 96 -78 c 1
 92 -71 89 -58 89 -52 c 0
 89 -30 100 -9 129 -9 c 0
 148 -9 163 -22 172 -31 c 0
 180 -39 193 -42 208 -42 c 0
 239 -42 284 -26 284 12 c 0
 284 58 203 134 156 177 c 0
 92 236 36 285 36 377 c 0
 36 456 138 569 176 595 c 9
 175 583 179 575 174 564 c 24
 167 546 146 523 146 523 c 0
 120 492 107 475 107 431 c 0
 107 348 166 291 220 241 c 0
 268 197 342 143 342 75 c 0xfa
 342 -5 258 -92 146 -92 c 0
EndSplineSet
Validated: 517
EndChar

StartChar: dieresis
Encoding: 168 168 103
Width: 407
Flags: W
HStem: 446 135<47.0563 147.491 257.509 358.491>
VStem: 30 135<463.509 563.944> 240 136<463.509 563.944>
LayerCount: 2
Back
Fore
SplineSet
308 581 m 0
 346 581 376 552 376 514 c 0
 376 476 346 446 308 446 c 0
 270 446 240 476 240 514 c 0
 240 552 270 581 308 581 c 0
97 581 m 0
 135 581 165 552 165 514 c 0
 165 476 135 446 97 446 c 0
 59 446 30 476 30 514 c 0
 30 552 59 581 97 581 c 0
EndSplineSet
Validated: 1
EndChar

StartChar: copyright
Encoding: 169 169 104
Width: 653
Flags: W
HStem: 38 44<232.089 419.972> 163 25<301.66 386.851> 429 26<297.167 383.362> 538 46<229.58 422.481>
VStem: 53 45<214.08 406.92> 184 72<223.57 383.568> 422 19<234.315 254.873> 554 46<214.08 406.92>
LayerCount: 2
Back
Fore
SplineSet
441 252 m 5
 441 247 430 191 424 189 c 4
 398 180 367 163 329 163 c 4
 244 163 184 217 184 305 c 4
 184 394 255 455 333 455 c 4
 360 455 396 444 420 439 c 5
 421 434 434 382 434 377 c 4
 434 375 424 371 419 371 c 7
 417 371 415 370 413 372 c 5
 409 388 394 429 336 429 c 4
 278 429 256 368 256 310 c 4
 256 246 283 188 341 188 c 4
 366 188 382 195 393 205 c 4
 410 221 421 253 422 256 c 5
 428 256 438 255 441 252 c 5
98 310 m 4
 98 184 200 82 326 82 c 4
 452 82 554 184 554 310 c 4
 554 436 452 538 326 538 c 4
 200 538 98 436 98 310 c 4
53 311 m 4
 53 462 175 584 326 584 c 4
 477 584 600 462 600 311 c 4
 600 160 477 38 326 38 c 4
 175 38 53 160 53 311 c 4
EndSplineSet
Validated: 513
EndChar

StartChar: ordfeminine
Encoding: 170 170 105
Width: 387
Flags: W
HStem: 248 48<111.5 203.411 264 334.162> 527 30<144.861 231>
VStem: 43 98<301.952 376.005> 52 79<447.362 504.577> 215 95<302.005 399 427.292 516.116>
LayerCount: 2
Back
Fore
SplineSet
186 296 m 0xe8
 201 296 215 307 215 311 c 2
 215 311 215 399 215 399 c 1
 201 394 181 388 166 379 c 0
 146 367 141 352 141 337 c 0
 142 308 167 296 186 296 c 0xe8
201 557 m 0
 261 557 310 513 310 452 c 2
 310 452 310 327 310 327 c 2
 310 309 319 302 328 302 c 0
 338 302 348 310 351 311 c 1
 354 310 358 301 358 297 c 3
 358 292 356 288 354 285 c 1
 344 276 307 249 276 249 c 0
 252 249 227 264 220 280 c 1
 213 275 165 248 139 248 c 0
 84 248 43 290 43 330 c 0xe8
 43 356 63 379 81 386 c 0
 108 396 178 422 215 435 c 1
 215 440 215 440 215 445 c 2
 215 445 215 463 215 463 c 2
 215 497 198 527 173 527 c 0
 145 527 138 503 131 473 c 0
 127 458 115 444 90 444 c 0
 70 444 52 457 52 476 c 0xd8
 52 485 56 496 62 505 c 1
 71 514 137 557 201 557 c 0
EndSplineSet
Validated: 513
EndChar

StartChar: guillemotleft
Encoding: 171 171 106
Width: 502
Flags: W
LayerCount: 2
Back
Fore
SplineSet
213 248 m 0
 213 253 216 259 220 263 c 1
 351 342 425 419 430 423 c 1
 436 422 453 414 457 404 c 1
 453 398 360 284 323 248 c 1
 360 212 453 98 457 92 c 1
 453 82 436 74 430 73 c 1
 425 77 351 154 220 233 c 1
 216 237 213 243 213 248 c 0
26 248 m 0
 26 253 29 259 33 263 c 1
 164 342 238 419 243 423 c 1
 249 422 266 414 270 404 c 1
 266 398 173 284 136 248 c 1
 173 212 266 98 270 92 c 1
 266 82 249 74 243 73 c 1
 238 77 164 154 33 233 c 1
 29 237 26 243 26 248 c 0
EndSplineSet
Validated: 513
EndChar

StartChar: logicalnot
Encoding: 172 172 107
Width: 589
Flags: W
HStem: 362 58<52 448>
VStem: 448 72<167 362>
LayerCount: 2
Back
Fore
SplineSet
520 420 m 17
 520 420 520 169 520 169 c 1
 519 168 483 160 461 160 c 0
 451 160 448 167 448 167 c 1
 448 167 448 326 448 362 c 1
 448 362 52 362 52 362 c 1
 52 362 46 362 46 372 c 1
 46 372 51 420 61 420 c 2
 61 420 520 420 520 420 c 17
EndSplineSet
Validated: 1
EndChar

StartChar: registered
Encoding: 174 174 108
Width: 653
Flags: W
HStem: 89 44<232.089 419.972> 234 16<201.594 228.894 294.106 321.406 455.28 475> 355 19<291 303.997> 482 19<201.711 228.894 293.099 336.556> 589 46<229.58 422.481>
VStem: 53 45<265.08 457.92> 232 59<258.378 355 374 477.622> 355 62<385.07 475.989> 554 46<265.08 457.92>
LayerCount: 2
Back
Fore
SplineSet
325 501 m 4
 375 501 417 475 417 427 c 4
 417 394 375 367 356 362 c 5
 385 323 418 288 418 288 c 4
 447 255 472 251 475 251 c 5
 477 248 475 235 475 234 c 5
 463 233 446 232 430 232 c 4
 399 232 382 245 364 268 c 4
 364 268 304 349 304 349 c 4
 304 349 300 355 297 355 c 4
 297 355 291 355 291 355 c 13
 291 355 291 295 291 295 c 6
 291 278 291 266 294 258 c 4
 296 253 315 250 320 250 c 5
 322 247 322 236 320 234 c 5
 304 236 279 237 262 237 c 4
 245 237 219 236 203 234 c 5
 201 236 201 247 203 250 c 5
 208 250 227 253 229 258 c 4
 232 266 232 278 232 295 c 6
 232 295 232 441 232 441 c 6
 232 458 232 470 229 478 c 4
 227 483 208 484 203 484 c 5
 201 487 201 499 203 501 c 5
 221 500 246 500 263 500 c 4
 280 500 301 501 325 501 c 4
355 424 m 4
 355 456 340 482 313 482 c 4
 304 482 295 482 293 478 c 4
 291 473 291 465 291 453 c 6
 291 453 291 374 291 374 c 21
 291 374 307 374 307 374 c 4
 333 374 355 393 355 424 c 4
98 361 m 4
 98 235 200 133 326 133 c 4
 452 133 554 235 554 361 c 4
 554 487 452 589 326 589 c 4
 200 589 98 487 98 361 c 4
53 362 m 4
 53 513 175 635 326 635 c 4
 477 635 600 513 600 362 c 4
 600 211 477 89 326 89 c 4
 175 89 53 211 53 362 c 4
EndSplineSet
Validated: 513
EndChar

StartChar: macron
Encoding: 175 175 109
Width: 469
Flags: W
HStem: 547 50<568 781>
VStem: 562 232<554.84 597>
LayerCount: 2
Back
Fore
SplineSet
562 556 m 0
 562 558 563 597 574 597 c 2
 574 597 789 597 789 597 c 2
 791 597 794 596 794 590 c 0
 794 585 793 572 788 554 c 0
 786 548 781 547 781 547 c 1
 781 547 568 547 568 547 c 1
 568 547 562 546 562 556 c 0
EndSplineSet
Validated: 1
EndChar

StartChar: degree
Encoding: 176 176 110
Width: 290
Flags: W
HStem: 425 46<97.2032 193.07> 602 45<96.6978 193.587>
VStem: 34 47<488.031 585.491> 210 46<488.031 585.491>
LayerCount: 2
Back
Fore
SplineSet
81 537 m 0
 81 501 109 471 145 471 c 0
 181 471 210 501 210 537 c 0
 210 573 181 602 145 602 c 0
 109 602 81 573 81 537 c 0
34 537 m 0
 34 598 84 647 145 647 c 0
 206 647 256 598 256 537 c 0
 256 476 206 425 145 425 c 0
 84 425 34 476 34 537 c 0
EndSplineSet
Validated: 513
EndChar

StartChar: plusminus
Encoding: 177 177 111
Width: 582
Flags: W
HStem: 9 58<52.9531 527.936> 306 58<52.9531 260 318 527.936>
VStem: 260 58<100.019 306 364 571.557>
LayerCount: 2
Back
Fore
SplineSet
61 67 m 1
 61 67 522 67 522 67 c 2
 528 67 531 59 531 53 c 0
 531 32 524 19 516 9 c 1
 516 9 56 9 56 9 c 2
 51 9 50 15 50 25 c 0
 50 29 53 55 61 67 c 1
61 364 m 1
 61 364 260 364 260 364 c 1
 260 364 260 563 260 563 c 1
 271 572 298 574 302 574 c 0
 312 574 318 572 318 565 c 2
 318 565 318 364 318 364 c 1
 318 364 522 364 522 364 c 2
 528 364 531 356 531 350 c 0
 531 329 524 316 516 306 c 1
 516 306 318 306 318 306 c 1
 318 306 318 108 318 108 c 1
 306 100 281 97 271 97 c 0
 265 97 260 101 260 105 c 2
 260 105 260 306 260 306 c 1
 260 306 56 306 56 306 c 2
 51 306 50 312 50 322 c 0
 50 326 53 352 61 364 c 1
EndSplineSet
Validated: 1
EndChar

StartChar: uni00B2
Encoding: 178 178 112
Width: 352
Flags: W
HStem: 254 71<123 269.546> 589 53<114.118 189.713>
VStem: 204 95<469.713 573.612>
LayerCount: 2
Back
Fore
SplineSet
310 382 m 1
 303 353 276 265 272 254 c 9
 272 254 45 254 45 254 c 1
 42 257 39 265 38 268 c 1
 86 321 109 347 157 409 c 0
 192 454 204 487 204 525 c 0
 204 565 174 589 140 589 c 0
 96 589 74 545 69 540 c 1
 66 540 53 542 53 554 c 1
 64 577 113 642 183 642 c 0
 253 642 299 607 299 538 c 0
 299 484 256 438 218 403 c 0
 188 376 160 352 123 325 c 1
 123 325 235 325 235 325 c 2
 265 325 275 358 285 380 c 0
 286 383 292 385 296 385 c 0
 300 385 307 384 310 382 c 1
EndSplineSet
Validated: 1
EndChar

StartChar: uni00B3
Encoding: 179 179 113
Width: 338
Flags: W
HStem: 245 27<118.55 189.878> 596 46<104.197 182.919>
VStem: 195 80<502.008 584.315> 214 90<311.683 416.952>
LayerCount: 2
Back
Fore
SplineSet
179 642 m 0xe0
 215 642 275 619 275 558 c 0xe0
 275 497 224 481 202 477 c 1
 222 476 304 452 304 377 c 0
 304 288 206 245 128 245 c 0
 88 245 57 256 45 266 c 1
 41 272 36 284 36 293 c 0
 36 308 47 328 68 328 c 0
 85 328 97 314 108 297 c 0
 118 281 137 272 153 272 c 0
 191 272 214 299 214 354 c 0xd0
 214 400 183 443 142 443 c 0
 138 443 120 443 110 440 c 1
 108 443 104 450 104 455 c 0
 104 457 105 465 106 467 c 1
 137 471 195 488 195 538 c 0
 195 571 172 596 135 596 c 0
 102 596 75 568 71 563 c 1
 67 564 55 570 57 580 c 1
 80 610 131 642 179 642 c 0xe0
EndSplineSet
Validated: 1
EndChar

StartChar: acute
Encoding: 180 180 114
Width: 236
Flags: W
HStem: 522 165
VStem: 28 173
LayerCount: 2
Back
Fore
SplineSet
155 687 m 0
 190 687 201 666 201 658 c 0
 201 619 55 522 45 522 c 0
 38 522 28 534 28 540 c 0
 28 545 84 635 121 678 c 0
 126 683 141 687 155 687 c 0
EndSplineSet
Validated: 1
EndChar

StartChar: uni00B5
Encoding: 181 181 115
Width: 521
Flags: W
HStem: -8 122<293.892 385.523> -4 108<500.449 579.192> 426 20G<189 200 448 459>
VStem: 158 103<-204.804 3.83203> 167 107<269.229 424> 424 112<329.63 423.537> 433 53<161.665 276.288>
LayerCount: 2
Back
Refer: 863 956 N 1 0 0 1 0 0 3
Fore
SplineSet
241 220 m 1xa8
 247 179 268 114 319 114 c 0
 378 114 433 165 433 217 c 1xaa
 430 241 426 306 426 329 c 0
 426 342 425 384 424 422 c 1
 429 430 442 446 454 446 c 0
 464 446 536 419 536 406 c 0xa4
 536 374 521 326 510 282 c 0
 502 251 495 229 486 195 c 17
 485 113 520 104 538 104 c 0
 576 104 597 140 607 157 c 1
 613 157 623 136 625 129 c 0
 626 125 624 112 623 109 c 0
 609 67 582 -4 542 -4 c 0x62
 494 -3 465 58 456 122 c 1
 436 52 396 -8 340 -8 c 0
 290 -8 240 76 232 137 c 1
 234 112 239 -85 261 -203 c 1
 256 -211 237 -227 219 -227 c 0
 200 -227 158 -188 158 -175 c 0xb2
 158 -157 171 112 183 216 c 1
 183 240 167 357 167 380 c 0
 167 393 168 416 170 424 c 1
 174 435 183 446 195 446 c 0
 205 446 274 419 274 406 c 0
 274 368 266 336 260 308 c 0
 252 269 247 248 241 220 c 1xa8
EndSplineSet
Validated: 33
EndChar

StartChar: paragraph
Encoding: 182 182 116
Width: 529
Flags: W
HStem: -4 37<170.275 235.479 416.616 484.584> 3 44<303.054 347.946> 288 45<298 354> 299 45<405 434.484> 603 45<298.286 354.805>
VStem: 33 265<377.565 560.613> 248 50<52.6578 287> 355 50<51.7104 292 344 595.672>
LayerCount: 2
Back
Fore
SplineSet
355 338 m 1x2b
 355 374 355 585 355 598 c 1
 351 602 336 603 326 603 c 0
 316 603 304 603 298 597 c 1
 298 597 298 435 298 333 c 1
 304 333 351 335 355 338 c 1x2b
354 292 m 1
 340 291 314 289 298 288 c 1
 298 231 298 175 298 118 c 0
 298 82 298 66 303 52 c 0
 304 49 315 47 326 47 c 0x6b
 336 47 347 48 348 51 c 0
 355 66 354 91 354 112 c 2
 354 112 354 223 354 292 c 1
404 299 m 1x9d
 404 228 404 179 404 117 c 0
 404 81 404 74 409 60 c 0
 416 41 474 34 482 34 c 1
 488 24 486 2 484 -4 c 1x9d
 448 -2 389 3 328 3 c 24x4d
 267 3 213 -2 172 -4 c 1
 167 5 170 33 172 33 c 0
 184 33 234 41 242 59 c 0
 249 74 248 95 248 116 c 2
 248 116 248 220 248 287 c 1x8b
 120 287 33 349 33 469 c 0
 33 608 145 652 227 652 c 0
 286 652 276 648 335 648 c 0
 402 648 455 653 455 653 c 1
 460 648 459 619 454 616 c 1
 439 616 413 608 408 596 c 0
 406 589 405 583 405 532 c 0
 405 471 405 363 405 344 c 1
 410 343 454 357 454 357 c 1
 459 357 458 351 458 347 c 0
 457 337 442 312 435 309 c 0
 424 304 412 300 404 299 c 1x9d
EndSplineSet
Validated: 545
EndChar

StartChar: periodcentered
Encoding: 183 183 117
Width: 241
Flags: W
HStem: 189 149<70.5543 172.29>
VStem: 47 147<212 316.5>
LayerCount: 2
Back
Fore
SplineSet
47 265 m 0
 47 305 80 338 121 338 c 27
 161 338 194 305 194 265 c 0
 194 225 163 189 123 189 c 27
 81 189 47 225 47 265 c 0
EndSplineSet
Validated: 1
EndChar

StartChar: cedilla
Encoding: 184 184 118
Width: 454
Flags: W
HStem: -156 28<162.459 244.958> -65 63<203.959 246>
VStem: 251 54<-124.534 -65.5938>
LayerCount: 2
Back
Fore
SplineSet
233 -25 m 1
 241 -24 246 -23 255 -23 c 27
 282 -23 305 -46 305 -72 c 0
 305 -119 269 -156 208 -156 c 0
 186 -156 167 -147 160 -140 c 1
 158 -137 156 -124 156 -120 c 0
 156 -114 157 -113 159 -113 c 1
 163 -115 186 -128 207 -128 c 0
 241 -128 251 -112 251 -98 c 0
 251 -84 246 -65 225 -65 c 0
 219 -65 209 -68 199 -72 c 1
 196 -72 186 -63 186 -57 c 1
 195 -42 208 -17 214 -2 c 1
 214 -2 246 -2 246 -2 c 1
 246 -2 238 -16 233 -25 c 1
EndSplineSet
Validated: 1
EndChar

StartChar: uni00B9
Encoding: 185 185 119
Width: 291
Flags: W
HStem: 252 26<54.1213 102.849 211.394 258.878> 621 20G<195 199>
VStem: 114 87<292.304 557.384>
LayerCount: 2
Back
Fore
SplineSet
114 511 m 2
 114 538 107 558 95 558 c 0
 86 558 61 547 50 542 c 1
 45 543 39 554 39 562 c 0
 39 563 39 568 40 569 c 1
 111 599 194 641 196 641 c 2
 196 641 197 641 197 641 c 2
 201 641 212 624 213 621 c 1
 210 610 201 575 201 536 c 2
 201 536 201 346 201 346 c 2
 201 328 204 298 211 291 c 0
 219 282 253 278 258 278 c 1
 260 278 259 253 258 252 c 1
 234 253 182 256 158 256 c 0
 134 256 80 253 56 252 c 1
 53 255 53 278 56 278 c 1
 64 278 97 284 104 292 c 0
 109 298 114 336 114 347 c 2
 114 347 114 511 114 511 c 2
EndSplineSet
Validated: 1
EndChar

StartChar: ordmasculine
Encoding: 186 186 120
Width: 406
Flags: W
HStem: 251 31<174.805 246.181> 523 30<159.125 229.443>
VStem: 35 102<324.228 475.727> 269 102<328.742 480.17>
LayerCount: 2
Back
Fore
SplineSet
194 523 m 3
 141 523 137 461 137 413 c 27
 137 355 158 282 211 282 c 3
 264 282 269 343 269 390 c 27
 269 448 247 523 194 523 c 3
202 553 m 0
 301 553 371 489 371 405 c 0
 371 321 298 251 203 251 c 0
 104 251 35 316 35 400 c 0
 35 484 108 553 202 553 c 0
EndSplineSet
Validated: 513
EndChar

StartChar: guillemotright
Encoding: 187 187 121
Width: 502
Flags: W
LayerCount: 2
Back
Fore
SplineSet
289 248 m 0
 289 243 286 237 282 233 c 1
 151 154 77 77 72 73 c 1
 66 74 49 82 45 92 c 1
 49 98 142 212 179 248 c 1
 142 284 49 398 45 404 c 1
 49 414 66 422 72 423 c 1
 77 419 151 342 282 263 c 1
 286 259 289 253 289 248 c 0
476 248 m 0
 476 243 473 237 469 233 c 1
 338 154 264 77 259 73 c 1
 253 74 236 82 232 92 c 1
 236 98 329 212 366 248 c 1
 329 284 236 398 232 404 c 1
 236 414 253 422 259 423 c 1
 264 419 338 342 469 263 c 1
 473 259 476 253 476 248 c 0
EndSplineSet
Validated: 513
EndChar

StartChar: onequarter
Encoding: 188 188 122
Width: 737
Flags: W
HStem: -3 21G<606 630.5> 92 46<474.824 577 664 695.264> 252 26<47.1213 95.8495 204.394 251.878> 621 20G<189 190>
VStem: 107 87<292.304 557.384> 577 87<2 92 138 262>
LayerCount: 2
Back
Fore
SplineSet
644 386 m 4
 648 386 664 377 664 367 c 14
 664 367 664 138 664 138 c 29
 664 138 689 138 689 138 c 21
 702 126 705 110 699 92 c 5
 699 92 664 92 664 92 c 29
 664 92 664 2 664 2 c 21
 664 2 644 -3 617 -3 c 4
 595 -3 577 0 577 5 c 6
 577 5 577 92 577 92 c 29
 577 92 424 92 424 92 c 21
 419 94 412 101 412 109 c 5
 487 199 566 298 631 378 c 4
 635 383 639 386 644 386 c 4
577 138 m 5
 577 138 577 262 577 262 c 21
 554 235 487 152 475 138 c 5
 470 138 545 138 577 138 c 5
194 536 m 2
 194 536 194 346 194 346 c 2
 194 328 197 298 204 291 c 0
 212 282 246 278 251 278 c 1
 253 278 252 253 251 252 c 1
 227 253 175 256 151 256 c 0
 127 256 73 253 49 252 c 1
 46 255 46 278 49 278 c 1
 57 278 90 284 97 292 c 0
 102 298 107 336 107 347 c 2
 107 347 107 511 107 511 c 2
 107 538 100 558 88 558 c 0
 79 558 54 547 43 542 c 1
 38 543 32 568 33 569 c 1
 104 599 188 641 190 641 c 9
 190 641 205 624 206 621 c 1
 203 610 194 575 194 536 c 2
219 -34 m 0
 204 -37 202 -25 202 -25 c 1
 202 -25 547 663 547 663 c 1
 553 672 566 680 583 684 c 0
 592 686 600 682 601 677 c 1
 601 677 256 -11 256 -11 c 2
 253 -18 236 -30 219 -34 c 0
EndSplineSet
Validated: 37
EndChar

StartChar: onehalf
Encoding: 189 189 123
Width: 748
Flags: W
HStem: -2 71<527 673.546> 252 26<48.1213 96.8495 205.394 252.878> 333 53<518.118 593.713> 621 20G<190 194>
VStem: 108 87<292.304 557.384> 608 95<213.713 317.612>
LayerCount: 2
Back
Fore
SplineSet
587 386 m 0
 657 386 703 351 703 282 c 0
 703 228 660 182 622 147 c 0
 592 120 564 96 527 69 c 1
 527 69 639 69 639 69 c 2
 669 69 679 102 689 124 c 0
 690 127 696 129 700 129 c 0
 704 129 711 128 714 126 c 1
 707 97 680 9 676 -2 c 9
 676 -2 449 -2 449 -2 c 1
 446 1 443 9 442 12 c 1
 490 65 513 91 561 153 c 0
 596 198 608 231 608 269 c 0
 608 309 578 333 544 333 c 0
 500 333 478 289 473 284 c 1
 470 284 457 286 457 298 c 1
 468 321 517 386 587 386 c 0
195 536 m 2
 195 536 195 346 195 346 c 2
 195 328 198 298 205 291 c 0
 213 282 247 278 252 278 c 1
 254 278 253 253 252 252 c 1
 228 253 176 256 152 256 c 0
 128 256 74 253 50 252 c 1
 47 255 47 278 50 278 c 1
 58 278 91 284 98 292 c 0
 103 298 108 336 108 347 c 2
 108 347 108 511 108 511 c 2
 108 538 101 558 89 558 c 0
 80 558 55 547 44 542 c 1
 39 543 32 562 34 569 c 1
 105 599 189 641 191 641 c 1
 197 635 206 624 207 621 c 1
 204 610 195 575 195 536 c 2
580 677 m 1
 580 677 235 -11 235 -11 c 2
 232 -18 215 -30 198 -34 c 0
 183 -37 181 -25 181 -25 c 1
 181 -25 526 663 526 663 c 1
 532 672 545 680 562 684 c 0
 571 686 579 682 580 677 c 1
EndSplineSet
Validated: 1
EndChar

StartChar: threequarters
Encoding: 190 190 124
Width: 740
Flags: W
HStem: -3 21G<609 633.5> 92 46<477.824 580 667 698.264> 245 27<116.55 187.878> 596 46<102.197 180.919>
VStem: 193 80<502.008 584.315> 212 90<311.683 416.952> 580 87<2 92 138 262>
LayerCount: 2
Back
Fore
SplineSet
647 386 m 0xf2
 651 386 667 377 667 367 c 10
 667 367 667 138 667 138 c 25
 667 138 692 138 692 138 c 17
 705 126 708 110 702 92 c 1
 702 92 667 92 667 92 c 25
 667 92 667 2 667 2 c 17
 667 2 647 -3 620 -3 c 0
 598 -3 580 0 580 5 c 2
 580 5 580 92 580 92 c 25
 580 92 427 92 427 92 c 17
 422 94 415 101 415 109 c 1
 490 199 569 298 634 378 c 0
 638 383 642 386 647 386 c 0xf2
580 138 m 1
 580 138 580 262 580 262 c 17
 557 235 490 152 478 138 c 1
 473 138 548 138 580 138 c 1
177 642 m 0
 213 642 273 619 273 558 c 0xfa
 273 497 222 481 200 477 c 1
 220 476 302 452 302 377 c 0
 302 288 204 245 126 245 c 0
 86 245 55 256 43 266 c 1
 39 272 34 284 34 293 c 0
 34 308 45 328 66 328 c 0
 83 328 95 314 106 297 c 0
 116 281 135 272 151 272 c 0
 189 272 212 299 212 354 c 0xf6
 212 400 181 443 140 443 c 0
 136 443 118 443 108 440 c 1
 106 443 102 450 102 455 c 0
 102 457 103 465 104 467 c 1
 135 471 193 488 193 538 c 0xfa
 193 571 170 596 133 596 c 0
 100 596 73 568 69 563 c 1
 65 564 53 570 55 580 c 1
 78 610 129 642 177 642 c 0
614 677 m 1
 614 677 269 -11 269 -11 c 2
 266 -18 249 -30 232 -34 c 0
 217 -37 215 -25 215 -25 c 1
 215 -25 560 663 560 663 c 1
 566 672 579 680 596 684 c 0
 605 686 613 682 614 677 c 1
EndSplineSet
Validated: 37
EndChar

StartChar: questiondown
Encoding: 191 191 125
Width: 388
Flags: W
HStem: -214 67<146.786 262.5> 294 150<204.75 305.711>
VStem: 32 85<-116.841 6> 183 147<315.125 419.536> 245 38<177.477 236.338>
LayerCount: 2
Back
Fore
SplineSet
330 367 m 0xf0
 330 325 296 294 258 294 c 0
 216 294 183 326 183 367 c 0
 183 408 214 444 254 444 c 0
 291 444 330 412 330 367 c 0xf0
283 225 m 1xe8
 290 209 303 165 303 125 c 0
 303 67 259 35 223 11 c 0
 173 -22 117 -65 117 -99 c 0
 117 -120 135 -147 171 -147 c 0
 207 -147 239 -85 281 -85 c 0
 319 -85 343 -118 343 -151 c 0
 343 -168 335 -191 328 -197 c 1
 314 -205 287 -214 238 -214 c 0
 193 -214 32 -177 32 -38 c 0
 32 50 105 84 158 117 c 0
 185 134 223 152 240 177 c 0
 247 187 245 209 245 219 c 1
 247 225 255 237 260 237 c 0
 268 237 279 229 283 225 c 1xe8
EndSplineSet
Validated: 33
Substitution2: "'smcp' Lowercase to Small Capitals in Latin lookup 0 subtable" questiondown.sc
EndChar

StartChar: AE
Encoding: 198 198 132
Width: 901
Flags: W
HStem: -4 37<-21.0761 40.3411 141.438 201.292 334.837 400.998> -2 44<556.273 767.133> 4 28<-19 89> 225 48<257.999 409> 310 47<549 696.427> 620 37<335.646 402 552.003 742.441>
VStem: 409 140<50.3979 225 273.695 306.897 358.474 520 604 616.372> 733 31<386.617 434.825>
LayerCount: 2
Back
Fore
SplineSet
409 275 m 1x1f
 409 275 409 520 409 520 c 1
 409 520 258 280 258 280 c 1
 258 280 257 276 259 276 c 0
 279 274 312 273 335 273 c 0
 364 273 382 273 409 275 c 1x1f
480 657 m 0
 522 657 746 663 805 664 c 1
 812 614 825 561 834 516 c 1
 831 513 818 511 811 511 c 0
 804 511 797 514 795 519 c 0
 774 574 748 620 687 620 c 2
 687 620 604 620 604 620 c 2
 581 620 559 619 554 608 c 0
 549 596 549 576 549 547 c 2
 549 547 549 368 549 368 c 2
 549 362 570 357 592 357 c 2
 592 357 645 357 645 357 c 2
 704 357 717 369 733 427 c 0
 734 432 738 435 745 435 c 0
 752 435 761 433 764 430 c 1
 764 430 764 238 764 238 c 1
 762 236 753 234 746 234 c 0
 739 234 733 237 732 242 c 0
 720 290 706 299 697 303 c 0
 685 308 659 310 621 310 c 0
 593 310 549 308 549 296 c 2
 549 296 549 141 549 141 c 2
 549 135 549 82 557 62 c 0
 563 48 596 42 622 42 c 2
 622 42 688 42 688 42 c 2
 726 42 758 52 781 75 c 0
 802 96 818 125 835 170 c 0
 836 174 842 176 849 176 c 0
 859 176 876 173 879 170 c 1
 860 116 832 42 825 -2 c 1
 798 -2 619 -2 485 -2 c 4x5f
 411 -2 351 -3 337 -3 c 1
 333 3 332 27 337 34 c 1
 350 35 396 38 401 51 c 0
 409 71 409 102 409 145 c 2
 409 145 409 225 409 225 c 1
 378 226 351 225 330 225 c 0
 289 225 267 225 232 224 c 0
 229 224 225 221 224 219 c 2
 224 219 185 160 169 132 c 0
 154 107 136 73 135 66 c 0
 130 40 191 33 199 33 c 1
 204 26 204 0 200 -4 c 1x9f
 166 0 133 4 89 4 c 0x3f
 43 4 16 0 -20 -4 c 1x9f
 -23 0 -25 21 -19 32 c 1x3f
 -7 32 46 48 59 64 c 0
 82 92 91 106 108 134 c 2
 108 134 402 604 402 604 c 0
 402 605 402 606 401 607 c 0
 394 621 350 622 337 623 c 1
 332 630 333 654 337 660 c 1
 382 657 438 657 480 657 c 0
EndSplineSet
Validated: 33
EndChar

StartChar: Eth
Encoding: 208 208 142
Width: 765
Flags: W
HStem: -3 42<40.9366 108.641 263.411 436.507> 308 40<31.3369 384.828> 620 40<40.2382 108.348 256.682 410.899>
VStem: 114 140<49.4974 616.164> 563 159<207.017 459.229>
LayerCount: 2
Back
Fore
SplineSet
383 308 m 5
 354 308 47 308 33 308 c 5
 29 308 28 339 34 348 c 5
 63 348 369 348 383 348 c 5
 387 348 387 317 383 308 c 5
EndSplineSet
Refer: 36 68 N 1 0 0 1 4 0 2
Validated: 37
EndChar

StartChar: multiply
Encoding: 215 215 149
Width: 465
Flags: W
LayerCount: 2
Back
Fore
SplineSet
196 248 m 1
 196 248 54 390 54 390 c 1
 54 404 73 431 82 431 c 0
 85 431 87 431 89 429 c 2
 89 429 234 289 236 287 c 9
 236 287 379 429 379 429 c 2
 380 430 382 431 385 431 c 0
 394 431 411 397 411 387 c 1
 411 387 276 253 273 250 c 1
 274 249 411 107 411 107 c 1
 411 92 396 64 385 64 c 0
 383 64 380 64 378 66 c 2
 378 66 234 210 233 211 c 1
 233 211 86 64 86 64 c 2
 84 62 82 62 80 62 c 0
 71 62 54 97 54 107 c 1
 54 107 192 244 196 248 c 1
EndSplineSet
Validated: 1
Substitution2: "'smcp' Lowercase to Small Capitals in Latin lookup 0 subtable" multiply.sc
EndChar

StartChar: Oslash
Encoding: 216 216 150
Width: 759
Flags: W
HStem: -10 43<322.356 470.535> 624 43<288.38 436.304>
VStem: 40 160<211.696 443.97> 560 160<211.714 444.117>
LayerCount: 2
Back
Fore
SplineSet
541 676 m 17
 549 673 581 662 579 655 c 9
 579 655 202 -18 202 -18 c 17
 194 -15 162 -3 164 4 c 9
 164 4 541 676 541 676 c 17
EndSplineSet
Refer: 47 79 N 1 0 0 1 0 0 2
Validated: 37
EndChar

StartChar: Thorn
Encoding: 222 222 156
Width: 583
Flags: W
HStem: -4 37<35.7205 101.998 258.002 324.279> 3 198<158 311.148> 146 51<295.633 379.611> 479 40<252.197 359.633> 625 37<35.7205 101.998 258.002 324.279>
VStem: 110 140<41.2661 406 517 616.734> 419 142<250.288 416.362>
LayerCount: 2
Back
Fore
SplineSet
181 655 m 0x9e
 223 655 283 658 322 662 c 1
 326 656 327 632 322 625 c 1
 309 624 263 620 258 607 c 0
 252 592 250 569 250 539 c 0
 250 532 250 525 250 517 c 1
 276 518 305 519 335 519 c 0
 460 519 561 455 561 341 c 0
 561 221 465 146 364 146 c 0xbe
 328 146 302 162 295 169 c 0
 291 173 288 186 288 194 c 0
 288 198 289 201 291 201 c 1x5e
 301 198 317 197 332 197 c 0
 381 197 419 250 419 327 c 0
 419 406 372 479 305 479 c 0
 282 479 260 478 255 467 c 0
 250 455 250 406 250 406 c 1
 250 406 250 145 250 145 c 2
 250 102 250 71 258 51 c 0
 263 38 309 34 322 33 c 1
 327 26 326 2 322 -4 c 1xbe
 283 0 221 3 179 3 c 0x5e
 137 3 77 0 38 -4 c 1
 34 2 33 26 38 33 c 1
 51 34 97 38 102 51 c 0
 110 71 110 102 110 145 c 2
 110 145 110 513 110 513 c 2
 110 556 110 587 102 607 c 0
 97 620 51 624 38 625 c 1
 33 632 34 656 38 662 c 1
 77 658 139 655 181 655 c 0x9e
EndSplineSet
Validated: 33
EndChar

StartChar: germandbls
Encoding: 223 223 157
Width: 590
Flags: W
HStem: -10 44<21.4576 87.1145 230.472 275.542 375 465.693> 381 47<38.9586 94> 651 47<265.531 349.53>
VStem: 94 130<41.2661 381 428 538.361> 384 9<402 525> 470 92<74.0376 183.5>
LayerCount: 2
Back
Fore
SplineSet
328 698 m 0
 414 698 503 643 503 563 c 0
 503 515 475 490 452 470 c 0
 429 450 393 425 393 402 c 0
 393 365 460 315 490 286 c 0
 526 251 562 214 562 153 c 0
 562 52 468 -10 392 -10 c 0
 358 -10 317 0 301 17 c 1
 296 27 292 40 292 54 c 0
 292 86 311 122 341 122 c 0
 376 122 389 88 398 70 c 0
 407 52 419 34 438 34 c 0
 461 34 470 53 470 82 c 0
 470 131 426 170 386 210 c 0
 345 251 290 290 290 348 c 0
 290 377 318 401 341 427 c 0
 367 456 384 479 384 525 c 0
 384 582 361 651 303 651 c 0
 263 651 224 586 224 486 c 0
 224 486 224 145 224 145 c 2
 224 102 224 71 232 51 c 0
 237 38 262 34 275 33 c 1
 280 26 279 2 275 -4 c 1
 236 0 201 3 159 3 c 0
 117 3 61 0 22 -4 c 1
 18 2 17 26 22 33 c 1
 35 34 81 38 86 51 c 0
 94 71 94 102 94 145 c 2
 94 145 94 292 94 381 c 1
 67 381 61 381 35 381 c 1
 30 383 30 390 30 394 c 1
 40 408 50 418 62 428 c 1
 75 428 84 428 94 428 c 9
 94 428 94 443 94 443 c 2
 94 580 223 698 328 698 c 0
EndSplineSet
Validated: 33
Substitution2: "'smcp' Lowercase to Small Capitals in Latin lookup 0 subtable" germandbls.sc
EndChar

StartChar: ae
Encoding: 230 230 164
Width: 696
Flags: W
HStem: -9 84<465.392 569.626> -8 70<124 236.717> 242 40<399 526.823> 406 41<170.332 259.147 437.135 519.103>
VStem: 31 135<78.1133 172.955> 43 108<292.124 371.344> 541 124<289.978 370.347>
LayerCount: 2
Back
Fore
SplineSet
202 191 m 0x7a
 174 173 165 146 166 124 c 0
 167 81 201 62 227 62 c 0
 252 62 296 85 296 102 c 1
 289 124 281 161 281 194 c 0
 281 206 281 208 282 223 c 1
 263 216 222 204 202 191 c 0x7a
480 406 m 3
 421 406 399 316 399 282 c 1
 408 281 504 287 528 290 c 0
 540 291 541 300 541 306 c 11
 541 352 525 406 480 406 c 3
490 447 m 0
 621 447 665 354 665 296 c 0
 665 274 653 255 638 254 c 0
 570 248 472 244 398 242 c 1
 398 102 493 75 538 75 c 0
 596 75 629 102 650 125 c 1
 657 123 662 113 662 107 c 3
 662 100 661 91 659 88 c 0
 641 60 573 -9 478 -9 c 0xb6
 411 -9 353 16 318 64 c 1
 267 23 196 -8 162 -8 c 0
 86 -8 31 55 31 114 c 0x7a
 31 153 57 186 83 194 c 0
 121 206 234 245 285 263 c 1
 289 266 293 278 293 285 c 0
 293 298 293 307 291 318 c 0
 281 375 244 411 209 411 c 0
 171 411 161 372 151 327 c 0
 146 304 130 283 95 283 c 0
 68 283 43 303 43 331 c 0x76
 43 344 49 358 57 372 c 1
 70 385 160 449 248 449 c 0
 295 449 337 429 365 394 c 1
 400 426 444 447 490 447 c 0
EndSplineSet
Validated: 33
Substitution2: "'smcp' Lowercase to Small Capitals in Latin lookup 0 subtable" ae.sc
EndChar

StartChar: eth
Encoding: 240 240 174
Width: 540
Flags: W
HStem: -6 42<223.317 306.738> 406 42<217.808 310.493> 663 28<98.4287 124.598>
VStem: 33 138<115.982 324.81> 350 139<141.468 357.594>
LayerCount: 2
Back
Fore
SplineSet
367 708 m 17
 372 702 393 679 388 674 c 9
 388 674 135 502 135 502 c 17
 129 509 110 532 115 537 c 9
 115 537 367 708 367 708 c 17
264 406 m 0
 193 406 171 303 171 212 c 0
 171 96 226 36 265 36 c 0
 332 36 350 135 350 225 c 0
 350 276 342 333 321 375 c 1
 309 392 292 406 264 406 c 0
246 448 m 0
 271 448 290 445 311 440 c 1
 285 516 223 607 97 663 c 1
 95 674 96 685 104 691 c 1
 172 681 299 627 385 530 c 0
 444 464 489 378 489 259 c 3
 489 107 395 -6 263 -6 c 0
 157 -6 33 59 33 218 c 0
 33 373 149 448 246 448 c 0
EndSplineSet
Validated: 37
Substitution2: "'smcp' Lowercase to Small Capitals in Latin lookup 0 subtable" eth.sc
EndChar

StartChar: divide
Encoding: 247 247 181
Width: 592
Flags: W
HStem: 2 124<248.2 341.8> 223 58<59.526 534.297> 370 124<248.2 341.8>
VStem: 233 124<17.2003 110.8 385.2 478.8>
LayerCount: 2
Back
Fore
SplineSet
233 432 m 0
 233 466 261 494 295 494 c 0
 329 494 357 466 357 432 c 0
 357 398 329 370 295 370 c 0
 261 370 233 398 233 432 c 0
233 64 m 0
 233 98 261 126 295 126 c 0
 329 126 357 98 357 64 c 0
 357 30 329 2 295 2 c 0
 261 2 233 30 233 64 c 0
63 223 m 1
 58 223 57 229 57 239 c 0
 57 243 59 269 68 281 c 1
 68 281 528 281 528 281 c 2
 534 281 537 273 537 267 c 0
 537 246 531 233 523 223 c 1
 523 223 63 223 63 223 c 1
EndSplineSet
Validated: 1
Substitution2: "'smcp' Lowercase to Small Capitals in Latin lookup 0 subtable" divide.sc
EndChar

StartChar: oslash
Encoding: 248 248 182
Width: 532
Flags: W
HStem: -7 42<229.597 322.545> 406 41<209.207 298.807>
VStem: 32 142<118.592 313.407> 358 142<126.606 322.548>
LayerCount: 2
Back
Fore
SplineSet
373 455 m 21
 381 452 407 443 405 436 c 13
 405 436 152 -16 152 -16 c 21
 144 -13 118 -3 120 4 c 13
 120 4 373 455 373 455 c 21
EndSplineSet
Refer: 79 111 N 1 0 0 1 0 0 2
Validated: 37
Substitution2: "'smcp' Lowercase to Small Capitals in Latin lookup 0 subtable" oslash.sc
EndChar

StartChar: thorn
Encoding: 254 254 188
Width: 535
Flags: W
HStem: -218 37<-7.27949 58.9985 205.002 271.279> -8 44<211.186 307.344> 375 73<246.741 313.816> 624 32<-2.67188 54.5286> 675 20G<191.5 196>
VStem: 67 130<-172.734 0.997055 50.0771 367.992 387.954 615.244> 359 144<134.92 323.157>
LayerCount: 2
Back
Fore
SplineSet
307 448 m 0
 428 448 503 345 503 234 c 0
 503 81 368 -8 258 -8 c 0
 230 -8 204 1 200 1 c 1
 197 1 197 -3 197 -15 c 2
 197 -15 197 -69 197 -69 c 2
 197 -112 197 -143 205 -163 c 0
 210 -176 256 -180 269 -181 c 1
 274 -188 273 -212 269 -218 c 1
 230 -214 174 -211 132 -211 c 0
 90 -211 34 -214 -5 -218 c 1
 -9 -212 -10 -188 -5 -181 c 1
 8 -180 54 -176 59 -163 c 0
 67 -143 67 -112 67 -69 c 2
 67 -69 67 558 67 558 c 2
 67 575 67 589 60 606 c 0
 55 618 12 624 0 624 c 1
 -4 624 -5 652 0 656 c 1
 112 666 190 695 193 695 c 1
 199 694 207 683 208 678 c 1
 208 678 197 616 197 576 c 0
 197 408 197 410 197 394 c 0
 197 392 198 391 198 390 c 0
 199 387 200 387 201 388 c 0
 231 420 276 448 307 448 c 0
252 375 m 0
 215 375 197 352 197 347 c 2
 197 347 197 96 197 96 c 2
 197 56 230 36 265 36 c 0
 298 36 359 83 359 199 c 0
 359 302 333 375 252 375 c 0
EndSplineSet
Validated: 33
Substitution2: "'smcp' Lowercase to Small Capitals in Latin lookup 0 subtable" thorn.sc
EndChar

StartChar: gravecomb
Encoding: 768 768 190
Width: 249
Flags: W
HStem: 522 165
VStem: 44 173
LayerCount: 2
Back
Fore
SplineSet
44 658 m 0
 44 666 55 687 90 687 c 0
 104 687 119 683 124 678 c 0
 161 635 217 545 217 540 c 0
 217 534 207 522 200 522 c 0
 190 522 44 619 44 658 c 0
EndSplineSet
Validated: 1
EndChar

StartChar: acutecomb
Encoding: 769 769 191
Width: 236
Flags: W
HStem: 522 165
VStem: 28 173
LayerCount: 2
Back
Fore
SplineSet
155 687 m 4
 190 687 201 666 201 658 c 0
 201 619 55 522 45 522 c 0
 38 522 28 534 28 540 c 0
 28 545 84 635 121 678 c 0
 126 683 141 687 155 687 c 4
EndSplineSet
Validated: 1
EndChar

StartChar: uni2010
Encoding: 8208 8208 197
Width: 374
Flags: W
HStem: 193 74<64 213.957> 204 75<167.043 305>
VStem: 57 261
LayerCount: 2
Back
Fore
SplineSet
57 204 m 0x60
 57 252 66 267 69 267 c 2
 69 267 70 267 70 267 c 1xa0
 70 267 311 279 311 279 c 1
 311 279 312 279 312 279 c 2
 314 279 318 278 318 270 c 0
 318 221 305 204 305 204 c 1x60
 305 204 64 193 64 193 c 1xa0
 64 193 57 192 57 204 c 0x60
EndSplineSet
Validated: 1
EndChar

StartChar: uni2011
Encoding: 8209 8209 198
Width: 374
Flags: W
HStem: 193 74<64 213.957> 204 75<167.043 305>
VStem: 57 261
LayerCount: 2
Back
Fore
SplineSet
57 204 m 0x60
 57 252 66 267 69 267 c 2
 69 267 70 267 70 267 c 1xa0
 70 267 311 279 311 279 c 1
 311 279 312 279 312 279 c 2
 314 279 318 278 318 270 c 0
 318 221 305 204 305 204 c 1x60
 305 204 64 193 64 193 c 1xa0
 64 193 57 192 57 204 c 0x60
EndSplineSet
Validated: 1
EndChar

StartChar: figuredash
Encoding: 8210 8210 199
Width: 557
Flags: W
HStem: 194 74<62 485>
LayerCount: 2
Back
Fore
SplineSet
56 203 m 0
 56 205 59 268 70 268 c 2
 70 268 495 268 495 268 c 2
 497 268 501 267 501 259 c 0
 501 241 493 205 492 201 c 0
 490 195 485 194 485 194 c 1
 485 194 62 194 62 194 c 1
 62 194 56 193 56 203 c 0
EndSplineSet
Validated: 1
EndChar

StartChar: endash
Encoding: 8211 8211 200
Width: 560
Flags: W
HStem: 194 74<64 487>
LayerCount: 2
Back
Fore
SplineSet
58 203 m 0
 58 205 61 268 72 268 c 2
 72 268 497 268 497 268 c 2
 499 268 503 267 503 259 c 0
 503 241 495 205 494 201 c 0
 492 195 487 194 487 194 c 1
 487 194 64 194 64 194 c 1
 64 194 58 193 58 203 c 0
EndSplineSet
Validated: 1
EndChar

StartChar: emdash
Encoding: 8212 8212 201
Width: 944
Flags: W
HStem: 194 74<64 872>
LayerCount: 2
Back
Fore
SplineSet
58 203 m 0
 58 205 61 268 72 268 c 2
 72 268 882 268 882 268 c 2
 884 268 888 267 888 259 c 0
 888 241 880 205 879 201 c 0
 877 195 872 194 872 194 c 1
 872 194 64 194 64 194 c 1
 64 194 58 193 58 203 c 0
EndSplineSet
Validated: 1
EndChar

StartChar: afii00208
Encoding: 8213 8213 202
Width: 1138
Flags: W
HStem: 194 74<64 1066>
LayerCount: 2
Back
Fore
SplineSet
58 203 m 0
 58 205 61 268 72 268 c 2
 72 268 1076 268 1076 268 c 2
 1078 268 1082 267 1082 259 c 0
 1082 241 1074 205 1073 201 c 0
 1071 195 1066 194 1066 194 c 1
 1066 194 64 194 64 194 c 1
 64 194 58 193 58 203 c 0
EndSplineSet
Validated: 1
EndChar

StartChar: quoteleft
Encoding: 8216 8216 203
Width: 187
Flags: W
HStem: 474 232<92 150>
VStem: 40 71<540 628.636>
LayerCount: 2
Back
Fore
SplineSet
40 555 m 4
 40 649 141 706 150 706 c 4
 158 706 167 699 171 688 c 5
 111 652 111 623 111 614 c 4
 111 588 121 572 131 560 c 4
 142 547 153 538 153 524 c 4
 153 500 124 474 92 474 c 4
 85 474 64 478 55 485 c 5
 46 498 40 525 40 555 c 4
EndSplineSet
Validated: 1
EndChar

StartChar: quoteright
Encoding: 8217 8217 204
Width: 194
Flags: W
HStem: 474 232<57 115>
VStem: 96 71<551.364 640>
LayerCount: 2
Back
Fore
SplineSet
167 625 m 4
 167 531 66 474 57 474 c 4
 49 474 40 481 36 492 c 5
 96 528 96 557 96 566 c 4
 96 592 86 608 76 620 c 4
 65 633 54 642 54 656 c 4
 54 680 83 706 115 706 c 4
 122 706 143 702 152 695 c 5
 161 682 167 655 167 625 c 4
EndSplineSet
Validated: 1
EndChar

StartChar: quotesinglbase
Encoding: 8218 8218 205
Width: 202
Flags: W
HStem: -107 232<45 103>
VStem: 84 71<-29.6363 59>
LayerCount: 2
Back
Fore
SplineSet
155 44 m 4
 155 -50 54 -107 45 -107 c 4
 37 -107 28 -100 24 -89 c 5
 84 -53 84 -24 84 -15 c 4
 84 11 73 27 63 39 c 4
 52 52 42 61 42 75 c 4
 42 99 71 125 103 125 c 4
 110 125 131 121 140 114 c 5
 149 101 155 74 155 44 c 4
EndSplineSet
Validated: 1
EndChar

StartChar: quotedblleft
Encoding: 8220 8220 206
Width: 335
Flags: W
HStem: 474 232<92 150 240 298>
VStem: 40 71<540 628.636> 188 71<540 628.636>
LayerCount: 2
Back
Fore
SplineSet
188 555 m 4
 188 649 289 706 298 706 c 4
 306 706 315 699 319 688 c 5
 259 652 259 623 259 614 c 4
 259 588 269 572 279 560 c 4
 290 547 301 538 301 524 c 4
 301 500 272 474 240 474 c 4
 233 474 212 478 203 485 c 5
 194 498 188 525 188 555 c 4
40 555 m 4
 40 649 141 706 150 706 c 4
 158 706 167 699 171 688 c 5
 111 652 111 623 111 614 c 4
 111 588 121 572 131 560 c 4
 142 547 153 538 153 524 c 4
 153 500 124 474 92 474 c 4
 85 474 64 478 55 485 c 5
 46 498 40 525 40 555 c 4
EndSplineSet
Validated: 1
EndChar

StartChar: quotedblright
Encoding: 8221 8221 207
Width: 342
Flags: W
HStem: 474 232<57 115 205 263>
VStem: 96 71<551.364 640> 244 71<551.364 640>
LayerCount: 2
Back
Fore
SplineSet
167 625 m 4
 167 531 66 474 57 474 c 4
 49 474 40 481 36 492 c 5
 96 528 96 557 96 566 c 4
 96 592 86 608 76 620 c 4
 65 633 54 642 54 656 c 4
 54 680 83 706 115 706 c 4
 122 706 143 702 152 695 c 5
 161 682 167 655 167 625 c 4
315 625 m 4
 315 531 214 474 205 474 c 4
 197 474 188 481 184 492 c 5
 244 528 244 557 244 566 c 4
 244 592 234 608 224 620 c 4
 213 633 202 642 202 656 c 4
 202 680 231 706 263 706 c 4
 270 706 291 702 300 695 c 5
 309 682 315 655 315 625 c 4
EndSplineSet
Validated: 1
EndChar

StartChar: quotedblbase
Encoding: 8222 8222 208
Width: 349
Flags: W
HStem: -108 232<44 102 192 250>
VStem: 83 71<-30.6363 58> 231 71<-30.6363 58>
LayerCount: 2
Back
Fore
SplineSet
154 43 m 0
 154 -51 53 -108 44 -108 c 0
 36 -108 27 -101 23 -90 c 1
 83 -54 83 -25 83 -16 c 0
 83 10 72 26 62 38 c 0
 51 51 41 60 41 74 c 0
 41 98 70 124 102 124 c 0
 109 124 130 120 139 113 c 1
 148 100 154 73 154 43 c 0
302 43 m 0
 302 -51 201 -108 192 -108 c 0
 184 -108 175 -101 171 -90 c 1
 231 -54 231 -25 231 -16 c 0
 231 10 220 26 210 38 c 0
 199 51 189 60 189 74 c 0
 189 98 218 124 250 124 c 0
 257 124 278 120 287 113 c 1
 296 100 302 73 302 43 c 0
EndSplineSet
Validated: 1
EndChar

StartChar: dagger
Encoding: 8224 8224 209
Width: 397
Flags: W
HStem: 432 91<41.0071 101.854 295.146 355.993> 463 25<103.43 174.267 222.115 293.57> 642 20G<187.5 209.5>
VStem: 152 92<570.25 655.83> 180 36<398.363 460.621 489.188 608.061> 189 19<-23.8143 85.1921>
LayerCount: 2
Back
Fore
SplineSet
153 488 m 8x68
 166 488 172 492 182 505 c 1
 182 538 171 606 152 625 c 1
 152 646 176 662 199 662 c 0
 220 662 244 646 244 625 c 1
 225 606 214 538 214 505 c 1
 224 492 231 488 244 488 c 0x70
 277 488 306 504 325 523 c 1
 346 523 363 497 363 476 c 0
 363 455 346 432 325 432 c 1xb0
 306 451 278 462 244 463 c 24x70
 229 463 216 447 216 435 c 1x68
 223 418 237 394 249 365 c 1
 227 227 228 185 208 -10 c 1
 205 -17 204 -23 199 -24 c 1
 194 -23 192 -15 189 -10 c 1x64
 169 185 169 227 147 365 c 1
 158 390 173 418 180 435 c 1
 180 447 168 463 153 463 c 24x68
 119 462 91 451 72 432 c 1
 51 432 34 455 34 476 c 0
 34 497 51 523 72 523 c 1xa8
 91 504 120 488 153 488 c 8x68
EndSplineSet
Validated: 1
EndChar

StartChar: daggerdbl
Encoding: 8225 8225 210
Width: 417
Flags: W
HStem: 115 91<51.0071 111.854 305.146 365.993> 150 25<113.43 184.267 232.115 303.57> 432 91<51.0071 111.854 305.146 365.993> 463 25<113.43 184.267 232.115 303.57> 642 20G<197.5 219.5>
VStem: 162 92<-17.8301 67.75 570.25 655.83> 185 46<13.9262 149.997 175.012 259.78 278.858 358.265 378.22 462.988 488.003 624.074>
LayerCount: 2
Back
Fore
SplineSet
259 273 m 1x1a
 247 244 233 220 226 203 c 1
 226 191 239 175 254 175 c 24x5c
 288 176 316 187 335 206 c 1
 356 206 373 183 373 162 c 0
 373 141 356 115 335 115 c 1x8c
 316 134 287 150 254 150 c 0
 241 150 234 146 224 133 c 1
 224 100 235 32 254 13 c 1
 254 -8 230 -24 209 -24 c 0
 186 -24 162 -8 162 13 c 1
 181 32 192 100 192 133 c 1
 182 146 176 150 163 150 c 16x4c
 130 150 101 134 82 115 c 1
 61 115 44 141 44 162 c 0
 44 183 61 206 82 206 c 1x8c
 101 187 129 176 163 175 c 24
 178 175 190 191 190 203 c 1
 183 220 168 248 157 273 c 1
 171 285 185 312 185 320 c 1
 185 329 164 358 157 365 c 1
 168 390 183 418 190 435 c 1
 190 447 178 463 163 463 c 24x5a
 129 462 101 451 82 432 c 1
 61 432 44 455 44 476 c 0
 44 497 61 523 82 523 c 1x2a
 101 504 130 488 163 488 c 8
 176 488 182 492 192 505 c 1
 192 538 181 606 162 625 c 1
 162 646 186 662 209 662 c 0
 230 662 254 646 254 625 c 1
 235 606 224 538 224 505 c 1
 234 492 241 488 254 488 c 0x1c
 287 488 316 504 335 523 c 1
 356 523 373 497 373 476 c 0
 373 455 356 432 335 432 c 1x2c
 316 451 288 462 254 463 c 24x1c
 239 463 226 447 226 435 c 1
 233 418 247 394 259 365 c 1
 252 358 231 328 231 320 c 1
 231 312 245 285 259 273 c 1x1a
EndSplineSet
Validated: 1
EndChar

StartChar: bullet
Encoding: 8226 8226 211
Width: 421
Flags: W
HStem: 123 281<135.683 286.022>
VStem: 71 279<187.683 338.612>
LayerCount: 2
Back
Fore
SplineSet
71 263 m 0
 71 340 134 404 211 404 c 0
 288 404 350 340 350 263 c 0
 350 186 288 123 211 123 c 0
 134 123 71 186 71 263 c 0
EndSplineSet
Validated: 1
EndChar

StartChar: onedotenleader
Encoding: 8228 8228 212
Width: 234
Flags: W
HStem: -11 150<64.25 168.969>
VStem: 42 150<12.2802 116>
LayerCount: 2
Back
Fore
SplineSet
192 63 m 0
 192 23 159 -11 118 -11 c 27
 76 -11 42 23 42 66 c 0
 42 106 76 139 117 139 c 27
 159 139 192 103 192 63 c 0
EndSplineSet
Validated: 1
EndChar

StartChar: ellipsis
Encoding: 8230 8230 213
Width: 790
Flags: W
HStem: -11 150<64.25 168.969 342.25 446.969 620.25 724.969>
VStem: 42 150<12.2802 116> 320 150<12.2802 116> 598 150<12.2802 116>
CounterMasks: 1 70
LayerCount: 2
Back
Fore
SplineSet
748 63 m 0
 748 23 715 -11 674 -11 c 27
 632 -11 598 23 598 66 c 0
 598 106 632 139 673 139 c 27
 715 139 748 103 748 63 c 0
470 63 m 0
 470 23 437 -11 396 -11 c 27
 354 -11 320 23 320 66 c 0
 320 106 354 139 395 139 c 27
 437 139 470 103 470 63 c 0
192 63 m 0
 192 23 159 -11 118 -11 c 27
 76 -11 42 23 42 66 c 0
 42 106 76 139 117 139 c 27
 159 139 192 103 192 63 c 0
EndSplineSet
Validated: 1
LCarets2: 2 0 0 
EndChar

StartChar: perthousand
Encoding: 8240 8240 214
Width: 1025
Flags: W
HStem: 0 31<473.28 538.815 812.28 877.815> 274 30<457.791 523.192 796.791 862.192> 337 31<176.28 241.815> 611 30<160.791 226.192>
VStem: 45 95<408.108 565.734> 263 95<412.743 570.7> 342 95<71.1076 228.734> 560 95<75.7433 233.7> 681 95<71.1076 228.734> 899 95<75.7433 233.7>
LayerCount: 2
Back
Fore
SplineSet
829 274 m 3xf9c0
 780 274 776 211 776 163 c 24
 776 105 796 31 845 31 c 3
 894 31 899 93 899 140 c 24
 899 199 878 274 829 274 c 3xf9c0
837 304 m 0
 929 304 994 240 994 155 c 0
 994 71 926 0 838 0 c 0
 745 0 681 66 681 150 c 0
 681 234 749 304 837 304 c 0
629 635 m 1
 629 635 113 -5 113 -5 c 2
 109 -11 89 -20 72 -20 c 0
 57 -20 57 -8 57 -8 c 1
 57 -8 573 632 573 632 c 1
 581 639 596 645 613 645 c 0
 622 645 629 640 629 635 c 1
490 274 m 3
 441 274 437 211 437 163 c 24xfbc0
 437 105 457 31 506 31 c 3
 555 31 560 93 560 140 c 24
 560 199 539 274 490 274 c 3
498 304 m 0
 590 304 655 240 655 155 c 0
 655 71 587 0 499 0 c 0
 406 0 342 66 342 150 c 0
 342 234 410 304 498 304 c 0
193 611 m 3
 144 611 140 548 140 500 c 24
 140 442 160 368 209 368 c 3
 258 368 263 430 263 477 c 24xfdc0
 263 536 242 611 193 611 c 3
201 641 m 0
 293 641 358 577 358 492 c 0
 358 408 290 337 202 337 c 0
 109 337 45 403 45 487 c 0
 45 571 113 641 201 641 c 0
EndSplineSet
Validated: 1
EndChar

StartChar: minute
Encoding: 8242 8242 215
Width: 167
Flags: W
HStem: 484 215<65.5703 78.9338>
VStem: 45 104
LayerCount: 2
Back
Fore
SplineSet
104 699 m 0
 124 699 149 687 149 667 c 0
 149 620 97 528 71 494 c 0
 67 489 61 484 57 484 c 0
 51 484 45 489 45 496 c 0
 45 499 52 612 60 666 c 0
 62 678 85 699 104 699 c 0
EndSplineSet
Validated: 1
EndChar

StartChar: second
Encoding: 8243 8243 216
Width: 302
Flags: W
HStem: 484 215<65.5703 78.9091 200.57 213.909>
VStem: 45 238
LayerCount: 2
Back
Fore
SplineSet
239 699 m 0
 259 699 283 687 283 667 c 0
 283 620 232 528 206 494 c 0
 202 489 196 484 192 484 c 0
 186 484 180 489 180 496 c 0
 180 499 187 612 195 666 c 0
 197 678 220 699 239 699 c 0
104 699 m 0
 124 699 148 687 148 667 c 0
 148 620 97 528 71 494 c 0
 67 489 61 484 57 484 c 0
 51 484 45 489 45 496 c 0
 45 499 52 612 60 666 c 0
 62 678 85 699 104 699 c 0
EndSplineSet
Validated: 1
EndChar

StartChar: uni2038
Encoding: 8248 8248 217
Width: 401
Flags: W
HStem: -66 191
VStem: 49 314
LayerCount: 2
Back
Fore
SplineSet
206 125 m 0
 211 125 217 123 220 120 c 1
 291 18 360 -40 363 -44 c 1
 362 -49 355 -63 346 -66 c 1
 340 -63 239 10 206 39 c 1
 173 10 72 -63 66 -66 c 1
 57 -63 50 -49 49 -44 c 1
 52 -40 121 18 192 120 c 1
 195 123 201 125 206 125 c 0
EndSplineSet
Validated: 1
EndChar

StartChar: guilsinglleft
Encoding: 8249 8249 218
Width: 315
Flags: W
VStem: 26 244
LayerCount: 2
Back
Fore
SplineSet
26 248 m 4
 26 253 29 259 33 263 c 5
 164 342 238 419 243 423 c 5
 249 422 266 414 270 404 c 5
 266 398 173 284 136 248 c 5
 173 212 266 98 270 92 c 5
 266 82 249 74 243 73 c 5
 238 77 164 154 33 233 c 5
 29 237 26 243 26 248 c 4
EndSplineSet
Validated: 1
EndChar

StartChar: guilsinglright
Encoding: 8250 8250 219
Width: 315
Flags: W
VStem: 45 244
LayerCount: 2
Back
Fore
SplineSet
289 248 m 4
 289 243 286 237 282 233 c 5
 151 154 77 77 72 73 c 5
 66 74 49 82 45 92 c 5
 49 98 142 212 179 248 c 5
 142 284 49 398 45 404 c 5
 49 414 66 422 72 423 c 5
 77 419 151 342 282 263 c 5
 286 259 289 253 289 248 c 4
EndSplineSet
Validated: 1
EndChar

StartChar: uni203E
Encoding: 8254 8254 220
Width: 854
Flags: W
HStem: 734 72<133 713>
LayerCount: 2
Back
Fore
SplineSet
127 744 m 4
 127 746 130 806 141 806 c 6
 141 806 723 806 723 806 c 6
 725 806 729 805 729 797 c 4
 729 779 722 745 721 741 c 4
 719 735 713 734 713 734 c 5
 713 734 133 734 133 734 c 5
 133 734 127 734 127 744 c 4
EndSplineSet
Validated: 1
EndChar

StartChar: Euro
Encoding: 8364 8364 221
Width: 716
Flags: W
HStem: -7 42<361.336 536.815> 252 42<51.1975 429.062> 358 42<51.1975 429.062> 601 41<340.872 521.82>
VStem: 79 149<201.53 354.768> 636 34<155.6 189.924>
LayerCount: 2
Back
Fore
SplineSet
60 294 m 1
 76 294 422 294 433 294 c 1
 447 283 429 256 423 252 c 1
 423 252 40 252 40 252 c 17
 34 258 51 294 60 294 c 1
60 400 m 1
 76 400 422 400 433 400 c 1
 447 389 429 362 423 358 c 1
 423 358 40 358 40 358 c 17
 34 364 51 400 60 400 c 1
670 185 m 1
 670 174 645 44 630 38 c 0
 568 16 506 -7 415 -7 c 0
 230 -7 79 135 79 310 c 0
 79 490 230 642 417 642 c 0
 482 642 564 636 622 624 c 1
 624 613 655 490 655 478 c 0
 655 472 641 464 629 464 c 3
 624 464 620 464 616 468 c 1
 606 506 565 601 426 601 c 0
 287 601 228 474 228 339 c 0
 228 189 296 35 445 35 c 0
 504 35 540 53 567 77 c 0
 608 114 634 188 636 196 c 1
 651 196 662 192 670 185 c 1
EndSplineSet
Validated: 37
EndChar

StartChar: arrowleft
Encoding: 8592 8592 222
Width: 771
Flags: W
HStem: 210 74<165 726>
LayerCount: 2
Back
Fore
SplineSet
275 397 m 0
 275 389 255 370 201 318 c 0
 201 318 165 284 165 284 c 1
 165 284 734 284 734 284 c 1
 734 284 741 284 741 274 c 0
 741 256 734 221 733 217 c 0
 731 211 726 210 726 210 c 1
 726 210 164 210 164 210 c 1
 164 210 200 176 200 176 c 0
 254 124 274 105 274 97 c 0
 274 85 245 73 239 72 c 1
 238 74 180 131 33 226 c 1
 28 228 26 234 26 240 c 0
 26 250 27 259 34 267 c 1
 165 346 235 418 240 422 c 1
 246 421 275 409 275 397 c 0
EndSplineSet
Validated: 1
EndChar

StartChar: arrowup
Encoding: 8593 8593 223
Width: 393
Flags: W
HStem: 0 21G<214 228>
VStem: 159 74<14 576>
LayerCount: 2
Back
Fore
SplineSet
233 576 m 1
 233 576 233 6 233 6 c 1
 233 6 233 0 223 0 c 0
 205 0 171 7 167 8 c 0
 161 10 159 14 159 14 c 1
 159 14 159 577 159 577 c 1
 159 577 126 540 126 540 c 0
 74 486 54 466 46 466 c 0
 34 466 23 496 22 502 c 1
 24 503 81 561 176 708 c 1
 178 713 184 714 190 714 c 0
 200 714 208 713 216 706 c 1
 295 575 368 505 372 500 c 1
 371 494 358 466 346 466 c 0
 338 466 320 486 268 540 c 0
 268 540 233 576 233 576 c 1
EndSplineSet
Validated: 1
EndChar

StartChar: arrowright
Encoding: 8594 8594 224
Width: 771
Flags: W
HStem: 210 74<44 605>
LayerCount: 2
Back
Fore
SplineSet
605 284 m 1
 605 284 569 318 569 318 c 0
 515 370 495 389 495 397 c 0
 495 409 524 421 530 422 c 1
 535 418 605 346 736 267 c 1
 743 259 744 250 744 240 c 0
 744 234 742 228 737 226 c 1
 590 131 532 74 531 72 c 1
 525 73 496 85 496 97 c 0
 496 105 516 124 570 176 c 0
 570 176 606 210 606 210 c 1
 606 210 44 210 44 210 c 1
 44 210 39 211 37 217 c 0
 36 221 29 256 29 274 c 0
 29 284 36 284 36 284 c 1
 36 284 605 284 605 284 c 1
EndSplineSet
Validated: 1
EndChar

StartChar: arrowdown
Encoding: 8595 8595 225
Width: 396
Flags: W
HStem: 0 21G<200 208>
VStem: 162 74<138 700>
LayerCount: 2
Back
Fore
SplineSet
162 138 m 1
 162 138 162 708 162 708 c 1
 162 708 162 714 172 714 c 0
 190 714 224 707 228 706 c 0
 234 704 236 700 236 700 c 1
 236 700 236 137 236 137 c 1
 236 137 269 174 269 174 c 0
 321 228 341 248 349 248 c 0
 361 248 372 218 373 212 c 1
 371 211 314 153 219 6 c 1
 217 1 211 0 205 0 c 0
 195 0 187 1 179 8 c 1
 100 139 27 209 23 214 c 1
 24 220 37 248 49 248 c 0
 57 248 75 228 127 174 c 0
 127 174 162 138 162 138 c 1
EndSplineSet
Validated: 1
EndChar

StartChar: partialdiff
Encoding: 8706 8706 227
Width: 503
Flags: W
HStem: 0 55<201.654 286.082> 317 53<191.164 291.188> 584 58<142.36 258.437>
VStem: 44 125<91.9379 272.861> 315 135<152.6 371.71>
LayerCount: 2
Back
Fore
SplineSet
315 219 m 1
 315 303 267 317 229 317 c 0
 190 317 169 270 169 209 c 0
 169 91 206 55 248 55 c 0
 305 55 315 145 315 219 c 1
220 0 m 0
 122 0 44 60 44 194 c 0
 44 294 139 370 245 370 c 0
 267 370 285 369 308 361 c 0
 313 359 318 364 319 369 c 0
 323 399 317 502 281 542 c 0
 251 575 221 584 191 584 c 3
 149 584 104 552 78 534 c 1
 73 538 64 564 76 576 c 0
 106 606 172 642 234 642 c 3
 414 642 450 408 450 282 c 3
 450 82 324 0 220 0 c 0
EndSplineSet
Validated: 33
EndChar

StartChar: uni2206
Encoding: 8710 8710 228
Width: 665
Flags: W
HStem: 0 76<115.911 488>
LayerCount: 2
Back
Fore
SplineSet
491 83 m 6
 491 83 311 443 311 443 c 5
 307 446 302 447 299 441 c 6
 299 441 116 87 116 87 c 5
 114 80 119 76 124 76 c 6
 124 76 488 76 488 76 c 6
 492 76 493 79 491 83 c 6
345 613 m 5
 345 613 647 14 647 14 c 5
 647 14 641 8 639 0 c 5
 639 0 28 0 28 0 c 5
 24 6 23 9 19 16 c 5
 19 16 328 613 328 613 c 5
 328 613 345 613 345 613 c 5
EndSplineSet
Validated: 1
EndChar

StartChar: gradient
Encoding: 8711 8711 229
Width: 681
Flags: W
HStem: 566 76<186 558.089>
LayerCount: 2
Back
Fore
SplineSet
183 559 m 2
 183 559 363 199 363 199 c 1
 367 196 372 195 375 201 c 2
 375 201 558 555 558 555 c 1
 560 562 555 566 550 566 c 2
 550 566 186 566 186 566 c 2
 182 566 181 563 183 559 c 2
329 29 m 1
 329 29 27 628 27 628 c 1
 27 628 33 634 35 642 c 1
 35 642 646 642 646 642 c 1
 650 636 651 633 655 626 c 1
 655 626 346 29 346 29 c 1
 346 29 329 29 329 29 c 1
EndSplineSet
Validated: 1
EndChar

StartChar: element
Encoding: 8712 8712 230
Width: 501
Flags: W
HStem: 11 60<177.888 433> 189 61<123.004 401> 370 60<174.702 433>
VStem: 49 74<174.075 313.639>
LayerCount: 2
Back
Fore
SplineSet
409 220 m 0
 409 193 401 189 400 189 c 2
 400 189 128 189 128 189 c 2
 127 189 122 188 123 185 c 0
 135 122 178 71 245 71 c 2
 245 71 433 71 433 71 c 2
 433 71 448 64 448 29 c 0
 448 20 441 11 441 11 c 1
 441 11 247 11 247 11 c 2
 135 11 49 109 49 221 c 0
 49 330 128 430 237 430 c 2
 237 430 441 430 441 430 c 1
 441 430 448 421 448 409 c 0
 448 378 433 370 433 370 c 1
 433 370 237 370 237 370 c 2
 174 370 134 317 123 255 c 0
 123 252 125 250 128 250 c 2
 128 250 401 250 401 250 c 1
 401 249 409 237 409 220 c 0
EndSplineSet
Validated: 1
EndChar

StartChar: notelement
Encoding: 8713 8713 231
Width: 497
Flags: W
HStem: -10 21G<133.5 137> 11 60<195.668 431> 189 61<121.004 193 290 399> 370 60<172.702 295 391 431>
VStem: 47 74<174.26 313.639>
LayerCount: 2
Back
Fore
SplineSet
407 220 m 0xb8
 407 193 399 189 398 189 c 2
 398 189 255 189 255 189 c 1
 255 189 195 81 195 81 c 1
 209 75 225 71 243 71 c 2
 243 71 431 71 431 71 c 1
 431 71 446 64 446 29 c 0
 446 20 439 11 439 11 c 1
 439 11 245 11 245 11 c 2x78
 216 11 189 18 165 29 c 1
 165 29 145 -8 145 -8 c 1
 142 -10 139 -10 135 -10 c 0
 132 -10 115 -6 102 10 c 0
 98 14 97 17 97 17 c 1
 97 17 120 58 120 58 c 1
 75 97 47 157 47 221 c 0
 47 330 126 430 235 430 c 2
 235 430 329 430 329 430 c 1
 329 430 359 484 359 484 c 1
 359 484 364 487 368 487 c 0
 380 487 391 479 399 470 c 0
 404 465 407 459 407 459 c 1
 407 459 391 430 391 430 c 1
 391 430 439 430 439 430 c 1
 439 430 446 421 446 409 c 0
 446 378 431 370 431 370 c 1
 431 370 357 370 357 370 c 1
 357 370 290 250 290 250 c 1
 290 250 399 250 399 250 c 1
 399 249 407 237 407 220 c 0xb8
228 250 m 1
 228 250 295 370 295 370 c 1
 295 370 235 370 235 370 c 2
 172 370 132 317 121 255 c 0
 121 252 123 250 126 250 c 2
 126 250 228 250 228 250 c 1
152 115 m 1
 152 115 193 189 193 189 c 1
 193 189 126 189 126 189 c 2
 125 189 120 188 121 185 c 0
 126 159 137 134 152 115 c 1
EndSplineSet
Validated: 1
EndChar

StartChar: summation
Encoding: 8721 8721 232
Width: 625
Flags: W
HStem: 2 58<203.002 484.674> 2 29<33.0357 37 37.0372 66.2613> 608 48<245.114 444.277> 627 31<33.0357 37 37.0358 68.169>
LayerCount: 2
Back
Fore
SplineSet
544 0 m 1xa0
 435 0 246 2 155 2 c 0
 88 2 37 -3 37 -3 c 1
 35 -1 33 7 33 15 c 0
 33 23 35 31 37 31 c 0
 48 31 81 53 90 65 c 2
 90 65 273 306 273 306 c 2
 277 311 276 318 273 322 c 0
 260 342 166 490 89 592 c 0
 76 609 49 627 37 627 c 0
 35 627 33 634 33 641 c 0
 33 648 35 656 37 658 c 1x50
 37 658 86 656 153 656 c 0
 246 656 405 662 514 662 c 1
 521 612 536 556 545 511 c 1
 542 508 529 506 522 506 c 0
 515 506 510 508 508 513 c 0
 483 563 434 608 368 608 c 27
 346 608 340 608 312 608 c 0
 277 608 247 603 245 595 c 1
 245 595 410 360 410 360 c 1
 412 354 414 347 414 341 c 0
 414 336 412 332 409 329 c 0
 324 227 203 84 203 71 c 0
 203 64 206 60 274 60 c 0
 308 60 311 60 338 60 c 0
 390 60 452 65 481 80 c 0
 500 90 529 125 546 170 c 0
 547 174 553 176 560 176 c 0
 570 176 587 173 590 170 c 1
 571 116 551 44 544 0 c 1xa0
EndSplineSet
Validated: 1
EndChar

StartChar: minus
Encoding: 8722 8722 233
Width: 610
Flags: W
HStem: 209 74<72 528>
LayerCount: 2
Back
Fore
SplineSet
66 219 m 1
 66 219 70 283 80 283 c 2
 80 283 537 283 537 283 c 2
 540 283 544 283 544 276 c 0
 544 268 540 232 535 215 c 0
 533 209 528 209 528 209 c 1
 528 209 72 209 72 209 c 1
 72 209 66 209 66 219 c 1
EndSplineSet
Validated: 1
EndChar

StartChar: uni2213
Encoding: 8723 8723 234
Width: 588
Flags: W
HStem: 213 72<72 260 332 519> 518 72<73 520>
VStem: 260 72<26 213 285 473>
LayerCount: 2
Back
Fore
SplineSet
332 210 m 2
 332 210 332 26 332 26 c 1
 332 26 317 16 272 10 c 0
 269 10 268 10 266 10 c 0
 260 10 260 13 260 17 c 2
 260 17 260 208 260 208 c 2
 260 210 259 213 254 213 c 2
 254 213 63 213 63 213 c 1
 63 213 57 213 57 223 c 0
 57 227 58 256 65 280 c 0
 67 286 72 285 72 285 c 1
 72 285 255 285 255 285 c 2
 258 285 260 289 260 291 c 2
 260 291 260 473 260 473 c 1
 260 473 259 478 265 480 c 0
 289 487 318 488 322 488 c 0
 332 488 332 482 332 482 c 1
 332 482 332 290 332 290 c 2
 332 287 333 285 336 285 c 2
 336 285 528 285 528 285 c 2
 532 285 536 285 536 278 c 0
 536 269 532 241 526 219 c 0
 524 213 519 213 519 213 c 1
 519 213 336 213 336 213 c 2
 333 213 332 212 332 210 c 2
520 590 m 1
 520 590 530 591 528 579 c 0
 521 531 515 521 512 518 c 1
 512 518 64 518 64 518 c 1
 64 518 56 517 58 531 c 0
 60 545 60 565 66 585 c 0
 68 591 73 590 73 590 c 1
 73 590 520 590 520 590 c 1
EndSplineSet
Validated: 1
EndChar

StartChar: radical
Encoding: 8730 8730 235
Width: 527
Flags: W
LayerCount: 2
Back
Fore
SplineSet
14 150 m 1
 1 157 -12 174 -12 185 c 0
 -12 198 1 205 11 212 c 0
 44 235 146 312 160 324 c 0
 168 331 185 332 188 324 c 1
 198 292 200 280 211 254 c 2
 211 254 300 47 300 47 c 1
 308 90 448 791 448 791 c 1
 448 791 506 784 506 784 c 1
 506 784 345 -25 320 -153 c 1
 305 -171 277 -180 271 -180 c 0
 267 -180 263 -179 261 -175 c 2
 261 -175 94 196 94 196 c 1
 94 196 14 150 14 150 c 1
EndSplineSet
Validated: 1
EndChar

StartChar: proportional
Encoding: 8733 8733 236
Width: 724
Flags: W
HStem: 37 73<185.536 306.964 596.688 656.984> 352 74<182.601 293.595 587.495 662.94>
VStem: 51 89<156.972 306.236>
LayerCount: 2
Back
SplineSet
108 229 m 4
 108 159 157 97 227 97 c 4
 293 97 345 172 388 218 c 4
 389 219 389 219 388 220 c 4
 355 259 290 362 220 362 c 4
 152 362 108 297 108 229 c 4
623 43 m 5
 492 43 424 180 413 180 c 6
 412 180 l 5
 359 117 299 41 200 41 c 4
 105 41 38 128 38 223 c 4
 38 332 123 422 232 422 c 4
 329 422 400 334 441 286 c 4
 442 284 446 283 447 285 c 4
 485 332 543 404 624 419 c 5
 626 419 l 6
 632 419 634 412 634 403 c 4
 634 388 628 367 628 367 c 5
 567 367 506 286 471 246 c 4
 470 245 469 244 470 243 c 4
 516 185 573 100 642 100 c 4
 648 100 650 96 650 91 c 4
 650 76 632 46 623 43 c 5
EndSplineSet
Fore
SplineSet
655 112 m 1
 664 112 666 101 666 90 c 3
 666 69 652 49 643 42 c 1
 512 42 441 162 430 162 c 2
 430 162 429 162 429 162 c 1
 376 99 315 37 217 37 c 0
 122 37 51 128 51 223 c 0
 51 332 141 426 250 426 c 0
 347 426 418 349 459 301 c 0
 460 299 464 298 465 300 c 0
 507 353 572 427 650 427 c 0
 657 427 668 396 668 373 c 0
 668 366 666 352 661 352 c 0
 657 352 651 352 644 352 c 0
 577 352 501 241 502 240 c 0
 524 210 579 112 655 112 c 1
140 229 m 0
 140 159 192 110 245 110 c 0
 311 110 364 187 388 218 c 0
 389 220 314 352 238 352 c 0
 184 352 140 297 140 229 c 0
EndSplineSet
Validated: 33
EndChar

StartChar: infinity
Encoding: 8734 8734 237
Width: 894
Flags: W
HStem: 39 74<182.438 310.022 602.825 713.791> 352 74<182.601 294.127 582.751 711.691>
VStem: 51 89<156.972 306.236> 754 89<157.867 306.308>
LayerCount: 2
Back
Fore
SplineSet
645 357 m 0
 584 357 521 268 505 246 c 0
 504 245 504 245 505 244 c 0
 527 214 591 113 660 113 c 0
 711 113 754 166 754 233 c 0
 754 304 701 357 645 357 c 0
140 229 m 0
 140 159 192 110 245 110 c 0
 311 110 364 187 388 218 c 0
 389 219 389 219 388 220 c 0
 372 244 308 352 238 352 c 0
 184 352 140 297 140 229 c 0
250 426 m 0
 347 426 418 349 459 301 c 0
 460 299 464 298 465 300 c 0
 507 353 575 426 672 426 c 0
 767 426 843 337 843 242 c 0
 843 132 750 39 640 39 c 0
 509 39 441 162 430 162 c 2
 430 162 429 162 429 162 c 1
 376 99 315 37 217 37 c 0
 122 37 51 128 51 223 c 0
 51 332 141 426 250 426 c 0
EndSplineSet
Validated: 1
EndChar

StartChar: notequal
Encoding: 8800 8800 238
Width: 572
Flags: W
HStem: 109 72<68 197 299 504> 251 72<59 276 379 504>
LayerCount: 2
Back
Fore
SplineSet
379 323 m 5
 379 323 516 323 516 323 c 2
 518 323 520 322 520 318 c 0
 520 309 516 279 510 257 c 0
 508 251 504 251 504 251 c 1
 504 251 338 251 338 251 c 1
 338 251 299 181 299 181 c 1
 299 181 512 181 512 181 c 2
 516 181 520 183 520 176 c 0
 520 167 516 137 510 115 c 0
 508 109 504 109 504 109 c 1
 504 109 259 109 259 109 c 1
 259 109 207 16 207 16 c 1
 204 14 201 14 197 14 c 0
 194 14 177 18 164 34 c 0
 160 38 159 41 159 41 c 1
 159 41 197 109 197 109 c 1
 197 109 59 109 59 109 c 1
 59 109 52 109 52 119 c 0
 52 123 54 152 61 176 c 0
 63 182 68 181 68 181 c 1
 68 181 237 181 237 181 c 1
 237 181 276 251 276 251 c 1
 276 251 59 251 59 251 c 1
 59 251 52 251 52 261 c 1
 52 261 55 303 62 318 c 0
 63 321 65 323 67 323 c 2
 67 323 317 323 317 323 c 1
 317 323 371 420 371 420 c 1
 371 420 376 423 380 423 c 0
 392 423 403 415 411 406 c 0
 416 401 419 395 419 395 c 1
 419 395 379 323 379 323 c 5
EndSplineSet
Validated: 1
EndChar

StartChar: lessequal
Encoding: 8804 8804 239
Width: 514
Flags: W
HStem: 6 56<51 432>
LayerCount: 2
Back
Fore
SplineSet
432 62 m 1
 432 62 441 63 439 51 c 0
 432 3 427 9 424 6 c 1
 424 6 42 6 42 6 c 1
 42 6 33 5 35 19 c 0
 37 33 38 37 44 57 c 0
 46 63 51 62 51 62 c 1
 51 62 432 62 432 62 c 1
447 136 m 0
 447 129 437 86 431 86 c 0
 430 86 428 87 426 88 c 2
 426 88 51 279 51 279 c 2
 36 287 33 301 33 318 c 0
 33 329 41 337 51 342 c 2
 51 342 420 529 420 529 c 2
 422 530 424 531 425 531 c 0
 428 531 435 521 442 484 c 0
 443 478 439 475 439 475 c 1
 439 475 113 310 113 310 c 1
 113 310 444 142 444 142 c 1
 444 142 447 141 447 136 c 0
EndSplineSet
Validated: 1
EndChar

StartChar: greaterequal
Encoding: 8805 8805 240
Width: 513
Flags: W
HStem: 6 56<77 459>
LayerCount: 2
Back
Fore
SplineSet
72 483 m 0
 72 501 84 531 88 531 c 0
 89 531 91 530 93 529 c 2
 93 529 463 342 463 342 c 2
 473 337 480 329 480 318 c 0
 480 301 478 287 463 279 c 2
 463 279 88 88 88 88 c 2
 83 86 82 82 77 95 c 0
 71 110 66 132 66 136 c 0
 66 140 69 142 69 142 c 1
 69 142 400 310 400 310 c 1
 400 310 75 475 75 475 c 1
 75 475 72 476 72 483 c 0
70 15 m 0
 70 16 74 62 85 62 c 2
 85 62 468 62 468 62 c 2
 470 62 474 61 474 54 c 0
 474 46 471 29 466 13 c 0
 464 7 459 6 459 6 c 1
 459 6 77 6 77 6 c 1
 77 6 70 5 70 15 c 0
EndSplineSet
Validated: 1
EndChar

StartChar: propersubset
Encoding: 8834 8834 241
Width: 502
Flags: W
HStem: 11 60<178.232 433> 370 60<174.702 433>
VStem: 49 70<134.796 309.161>
LayerCount: 2
Back
Fore
SplineSet
237 370 m 2
 174 370 119 309 119 220 c 3
 119 130 178 71 245 71 c 2
 245 71 433 71 433 71 c 2
 433 71 448 64 448 29 c 0
 448 20 441 11 441 11 c 1
 441 11 247 11 247 11 c 2
 135 11 49 109 49 221 c 0
 49 330 128 430 237 430 c 2
 237 430 441 430 441 430 c 1
 441 430 448 421 448 409 c 0
 448 378 433 370 433 370 c 1
 433 370 237 370 237 370 c 2
EndSplineSet
Validated: 1
EndChar

StartChar: dotlessi
Encoding: 305 305 242
Width: 315
Flags: W
HStem: -4 37<26.7205 92.9985 239.002 298.279> 362 31<27.0323 87.1875> 426 20G<206 228.5>
VStem: 101 130<41.2661 351.93>
LayerCount: 2
Back
Fore
SplineSet
231 309 m 2
 231 309 231 145 231 145 c 2
 231 108 231 71 239 51 c 0
 244 38 283 34 296 33 c 1
 301 26 300 2 296 -4 c 1
 257 0 208 3 166 3 c 0
 124 3 68 0 29 -4 c 1
 25 2 24 26 29 33 c 1
 42 34 88 38 93 51 c 0
 101 71 101 102 101 145 c 2
 101 145 101 260 101 260 c 2
 101 270 100 327 92 342 c 0
 84 357 36 362 29 362 c 1
 26 364 25 393 30 393 c 1
 106 399 187 427 225 446 c 1
 232 444 242 432 242 429 c 1
 239 421 233 386 232 372 c 0
 231 350 231 315 231 309 c 2
EndSplineSet
Validated: 33
Substitution2: "'smcp' Lowercase to Small Capitals in Latin lookup 0 subtable" dotlessi.sc
EndChar

StartChar: uni0302
Encoding: 770 770 243
Width: 285
Flags: W
HStem: 493 168
VStem: 31 236
LayerCount: 2
Back
Fore
SplineSet
258 493 m 5
 248 496 177 543 149 567 c 5
 121 543 54 499 40 493 c 5
 35 495 31 506 31 516 c 5
 38 523 55 540 97 594 c 4
 119 623 128 638 136 651 c 4
 140 658 143 661 149 661 c 31
 155 661 156 657 161 651 c 4
 172 636 180 622 198 599 c 4
 239 545 260 523 267 516 c 5
 267 506 263 495 258 493 c 5
EndSplineSet
Validated: 1
EndChar

StartChar: tildecomb
Encoding: 771 771 244
Width: 693
Flags: W
HStem: 519 63<244.808 334.487> 584 62<103.867 193.354> 615 20G<363 370.5>
VStem: 66 309
LayerCount: 2
Back
Fore
SplineSet
156 646 m 0xd0
 186 646 207 630 229 615 c 0
 252 598 283 582 300 582 c 0
 344 582 359 630 367 635 c 1xb0
 374 635 375 628 375 623 c 0
 375 605 365 583 358 570 c 0
 338 538 312 519 283 519 c 0
 253 519 232 535 210 550 c 0
 187 567 161 584 139 584 c 0
 95 584 84 535 76 530 c 1
 69 530 66 540 66 545 c 0
 66 563 74 583 81 596 c 0
 101 628 127 646 156 646 c 0xd0
EndSplineSet
Validated: 1
EndChar

StartChar: three.onum
Encoding: 63283 63283 245
Width: 1024
LayerCount: 2
Back
SplineSet
264 460 m 4xf0
 309 460 360 417 360 355 c 4xf0
 360 297 309 221 268 200 c 5
 316 196 388 138 388 53 c 4
 388 -70 220 -182 108 -182 c 4
 94 -182 81 -180 67 -174 c 5
 62 -164 61 -154 61 -148 c 4
 61 -134 81 -112 97 -112 c 4
 128 -112 132 -132 165 -132 c 4
 247 -132 300 -54 300 33 c 4xe8
 300 87 263 145 209 145 c 4
 179 145 152 139 137 134 c 5
 130 135 129 144 129 152 c 4
 129 156 131 165 133 170 c 5
 205 192 285 256 285 324 c 4
 285 369 259 397 219 397 c 4
 163 397 125.946 355.946 112 342 c 4
 110 340 107.853 338 105 338 c 4
 101.862 338 95 349.247 95 354 c 7
 95 355.306 95.5049 360.599 97 363 c 4
 130 416 191 460 264 460 c 4xf0
EndSplineSet
Fore
EndChar

StartChar: uni0304
Encoding: 772 772 246
Width: 431
Flags: W
HStem: 560 48<59 323>
VStem: 53 284<560.009 608>
LayerCount: 2
Back
Fore
SplineSet
53 571 m 0
 53 596 65 608 68 608 c 2
 68 608 331 608 331 608 c 2
 333 608 337 606 337 598 c 0
 337 572 323 560 323 560 c 1
 323 560 59 560 59 560 c 1
 59 560 53 559 53 571 c 0
EndSplineSet
Validated: 1
EndChar

StartChar: gravecomb.cap
Encoding: 63632 63632 247
Width: 246
Flags: W
HStem: 744 141
VStem: 29 194
LayerCount: 2
Back
Fore
SplineSet
223 764 m 0
 223 758 216 744 209 744 c 0
 195 744 29 810 29 847 c 0
 29 875 67 885 85 885 c 0
 93 885 99 883 103 881 c 0
 149 846 223 771 223 764 c 0
EndSplineSet
Validated: 1
EndChar

StartChar: acutecomb.cap
Encoding: 63633 63633 248
Width: 246
Flags: W
HStem: 744 141
VStem: 29 194
LayerCount: 2
Back
Fore
SplineSet
29 764 m 0
 29 771 103 846 149 881 c 0
 153 883 159 885 167 885 c 0
 185 885 223 875 223 847 c 0
 223 810 57 744 43 744 c 0
 36 744 29 758 29 764 c 0
EndSplineSet
Validated: 1
EndChar

StartChar: uni0302.cap
Encoding: 63634 63634 249
Width: 349
Flags: W
HStem: 704 140
VStem: 46 260
LayerCount: 2
Back
Fore
SplineSet
296 704 m 1
 284 707 207 744 176 764 c 1
 145 744 71 708 56 704 c 1
 52 706 46 713 46 721 c 1
 54 727 75 746 118 786 c 0
 143 809 155 825 163 834 c 0
 168 840 172 844 176 844 c 0
 180 844 184 839 189 834 c 0
 201 821 211 810 231 790 c 0
 276 746 298 727 306 721 c 1
 306 713 302 706 296 704 c 1
EndSplineSet
Validated: 1
EndChar

StartChar: uni030A.cap
Encoding: 63635 63635 250
Width: 314
Flags: W
HStem: 660 45<129.345 214.559> 813 44<129.345 214.559>
VStem: 73 46<715.644 802.26> 225 45<715.644 802.26>
LayerCount: 2
Back
Fore
SplineSet
119 759 m 0
 119 729 142 705 172 705 c 0
 202 705 225 729 225 759 c 0
 225 789 202 813 172 813 c 0
 142 813 119 789 119 759 c 0
73 759 m 0
 73 813 118 857 172 857 c 0
 226 857 270 813 270 759 c 0
 270 705 226 660 172 660 c 0
 118 660 73 705 73 759 c 0
EndSplineSet
Validated: 1
EndChar

StartChar: uni030A
Encoding: 778 778 251
Width: 474
Flags: W
HStem: 510 45<177.929 263.143> 663 44<177.929 263.143>
VStem: 121 46<566.025 651.879> 273 45<564.202 653.692>
LayerCount: 2
Back
Fore
SplineSet
167 609 m 0
 167 579 191 555 221 555 c 0
 251 555 273 579 273 609 c 0
 273 639 251 663 221 663 c 0
 191 663 167 639 167 609 c 0
121 609 m 0
 121 663 167 707 221 707 c 0
 275 707 318 663 318 609 c 0
 318 555 275 510 221 510 c 0
 167 510 121 555 121 609 c 0
EndSplineSet
Validated: 1
EndChar

StartChar: tildecomb.cap
Encoding: 63636 63636 252
Width: 675
Flags: W
HStem: 733 60<382.323 495.24> 795 59<208.072 319.965>
LayerCount: 2
Back
Fore
SplineSet
274 854 m 0
 311 854 337 840 364 825 c 0
 393 809 426 793 447 793 c 0
 501 793 524 839 534 844 c 1
 539 844 542 835 542 830 c 0
 542 813 532 794 523 782 c 0
 498 751 466 733 430 733 c 0
 393 733 367 747 340 762 c 0
 311 778 284 795 257 795 c 0
 203 795 180 748 170 743 c 1
 165 743 162 753 162 758 c 0
 162 775 172 794 181 806 c 0
 206 837 238 854 274 854 c 0
EndSplineSet
Validated: 1
EndChar

StartChar: uni0304.cap
Encoding: 63637 63637 253
Width: 430
Flags: W
HStem: 746 48<65 353>
VStem: 59 308<746.009 794>
LayerCount: 2
Back
Fore
SplineSet
59 757 m 4
 59 782 71 794 74 794 c 6
 74 794 361 794 361 794 c 6
 363 794 367 792 367 784 c 4
 367 758 353 746 353 746 c 5
 353 746 65 746 65 746 c 5
 65 746 59 745 59 757 c 4
EndSplineSet
Validated: 1
EndChar

StartChar: uni0306.cap
Encoding: 63638 63638 254
Width: 253
Flags: W
HStem: 705 54<63.4426 190.028>
VStem: 16 220<782 791>
LayerCount: 2
Back
Fore
SplineSet
213 804 m 5
 219 802 236 791 236 784 c 4
 236 781 235 779 234 777 c 4
 206 730 166 705 126 705 c 4
 86 705 46 730 18 777 c 4
 17 779 16 782 16 784 c 4
 16 791 33 802 39 804 c 5
 54 785 87 759 126 759 c 4
 168 759 199 781 213 804 c 5
EndSplineSet
Validated: 1
EndChar

StartChar: uni0306
Encoding: 774 774 255
Width: 253
Flags: W
HStem: 521 55<70.4353 184.502> 622 20G<27.5 35 212.5 220.5>
VStem: 12 19<626.811 633.625> 217 21<624.168 632.748>
LayerCount: 2
Back
Fore
SplineSet
217 642 m 1
 224 642 238 627 238 620 c 3
 238 618 238 615 237 613 c 0
 222 560 183 521 129 521 c 0
 75 521 28 560 13 613 c 0
 12 615 12 618 12 620 c 3
 12 627 24 642 31 642 c 1
 39 621 82 576 129 576 c 0
 179 576 208 621 217 642 c 1
EndSplineSet
Validated: 1
EndChar

StartChar: uni0327.cap
Encoding: 63639 63639 256
Width: 1044
Flags: W
HStem: -167 30<174.41 263.29> -70 68<220.155 249.807>
VStem: 270 58<-132.846 -70.5135>
LayerCount: 2
Back
Fore
SplineSet
250 -27 m 5
 259 -26 264 -25 274 -25 c 31
 303 -25 328 -49 328 -77 c 4
 328 -127 289 -167 224 -167 c 4
 200 -167 180 -158 172 -150 c 5
 170 -147 168 -133 168 -129 c 4
 168 -123 169 -121 171 -121 c 5
 175 -123 199 -137 222 -137 c 4
 258 -137 270 -120 270 -105 c 4
 270 -90 265 -70 242 -70 c 4
 236 -70 225 -73 214 -77 c 5
 211 -77 200 -67 200 -61 c 5
 210 -45 224 -18 230 -2 c 5
 230 -2 264 -2 264 -2 c 5
 264 -2 255 -17 250 -27 c 5
EndSplineSet
Validated: 1
EndChar

StartChar: uni0327
Encoding: 807 807 257
Width: 454
Flags: W
HStem: -156 32<162.792 249.563> -73 71<202.649 231.565> -67 40<227 252.732>
VStem: 254 51<-121.755 -67.099>
LayerCount: 2
Back
Fore
SplineSet
232 -28 m 5xd0
 232 -28 244 -27 251 -27 c 31
 280 -27 305 -52 305 -78 c 4
 305 -125 269 -156 208 -156 c 4
 186 -156 167 -147 160 -140 c 5
 159 -137 158 -127 158 -123 c 4
 158 -116 162 -109 165 -109 c 4
 170 -109 193 -124 215 -124 c 4
 243 -124 254 -109 254 -95 c 4
 254 -81 247 -67 230 -67 c 4xb0
 224 -67 210 -69 200 -73 c 4
 198 -73 184 -61 186 -57 c 4
 195 -42 206 -16 214 -2 c 5
 214 -2 246 -2 246 -2 c 5
 246 -2 232 -28 232 -28 c 5xd0
EndSplineSet
Validated: 1
EndChar

StartChar: uni0307.cap
Encoding: 63640 63640 258
Width: 317
Flags: W
HStem: 720 136<130.406 229.594>
VStem: 113 134<737.86 838.14>
LayerCount: 2
Back
Fore
SplineSet
113 788 m 4
 113 825 143 856 180 856 c 4
 217 856 247 825 247 788 c 4
 247 751 217 720 180 720 c 4
 143 720 113 751 113 788 c 4
EndSplineSet
Validated: 1
EndChar

StartChar: uni0323.cap
Encoding: 63641 63641 259
Width: 316
Flags: W
HStem: -180 148<102.625 207.375>
VStem: 81 148<-158.375 -53.625>
LayerCount: 2
Back
Fore
SplineSet
81 -106 m 0
 81 -65 114 -32 155 -32 c 0
 196 -32 229 -65 229 -106 c 0
 229 -147 196 -180 155 -180 c 0
 114 -180 81 -147 81 -106 c 0
EndSplineSet
Validated: 1
EndChar

StartChar: uni0305.cap
Encoding: 63642 63642 260
Width: 563
Flags: W
HStem: 734 72<-10 570>
LayerCount: 2
Back
Fore
SplineSet
-16 744 m 0
 -16 746 -13 806 -2 806 c 2
 -2 806 580 806 580 806 c 2
 582 806 586 805 586 797 c 0
 586 779 579 745 578 741 c 0
 576 735 570 734 570 734 c 1
 570 734 -10 734 -10 734 c 1
 -10 734 -16 734 -16 744 c 0
EndSplineSet
Validated: 1
EndChar

StartChar: uni0305
Encoding: 773 773 261
Width: 563
Flags: W
HStem: 734 72<-10 570>
LayerCount: 2
Back
Fore
SplineSet
-16 744 m 0
 -16 746 -13 806 -2 806 c 2
 -2 806 580 806 580 806 c 2
 582 806 586 805 586 797 c 0
 586 779 579 745 578 741 c 0
 576 735 570 734 570 734 c 1
 570 734 -10 734 -10 734 c 1
 -10 734 -16 734 -16 744 c 0
EndSplineSet
Validated: 1
EndChar

StartChar: hookabovecomb.cap
Encoding: 63643 63643 262
Width: 180
Flags: W
HStem: 636 38<81.3663 134.234>
VStem: 17 61<580.057 634.21> 55 48<499.696 536.177> 136 54<571.328 635.43>
LayerCount: 2
Back
Fore
SplineSet
121 674 m 0xd0
 161 674 190 649 190 616 c 0
 190 579 166 553 139 542 c 0
 118 533 103 528 103 515 c 3
 103 513 103 510 104 507 c 1
 104 504 79 498 65 498 c 1
 60 501 55 512 55 515 c 3xb0
 55 543 83 556 100 564 c 0
 123 574 136 587 136 606 c 0
 136 618 132 636 111 636 c 0
 88 636 78 619 78 600 c 0
 78 583 53 578 39 578 c 0
 31 578 17 583 17 595 c 0
 17 646 71 674 121 674 c 0xd0
EndSplineSet
Validated: 1
EndChar

StartChar: uni030B.cap
Encoding: 63644 63644 263
Width: 424
Flags: W
HStem: 744 141
LayerCount: 2
Back
Fore
SplineSet
197 764 m 0
 197 771 271 846 317 881 c 0
 321 883 327 885 335 885 c 0
 353 885 391 875 391 847 c 0
 391 810 225 744 211 744 c 0
 204 744 197 758 197 764 c 0
29 764 m 0
 29 771 103 846 149 881 c 0
 153 883 159 885 167 885 c 0
 185 885 223 875 223 847 c 0
 223 810 57 744 43 744 c 0
 36 744 29 758 29 764 c 0
EndSplineSet
Validated: 1
EndChar

StartChar: uni0308.cap
Encoding: 63645 63645 264
Width: 406
Flags: W
HStem: 717 135<74.0563 174.491 299.509 400.491>
VStem: 57 135<734.509 834.944> 282 136<734.509 834.944>
LayerCount: 2
Back
Fore
SplineSet
282 785 m 0
 282 823 312 852 350 852 c 0
 388 852 418 823 418 785 c 0
 418 747 388 717 350 717 c 0
 312 717 282 747 282 785 c 0
57 785 m 0
 57 823 86 852 124 852 c 0
 162 852 192 823 192 785 c 0
 192 747 162 717 124 717 c 0
 86 717 57 747 57 785 c 0
EndSplineSet
Validated: 1
EndChar

StartChar: uni0308
Encoding: 776 776 265
Width: 371
Flags: W
HStem: 465 139<34.5687 134.908 223.092 323.431>
VStem: 15 139<484.569 584.908> 204 139<484.569 584.908>
LayerCount: 2
Back
Fore
SplineSet
273 604 m 0
 311 604 343 573 343 535 c 0
 343 497 311 465 273 465 c 0
 235 465 204 497 204 535 c 0
 204 573 235 604 273 604 c 0
85 604 m 0
 123 604 154 573 154 535 c 0
 154 497 123 465 85 465 c 0
 47 465 15 497 15 535 c 0
 15 573 47 604 85 604 c 0
EndSplineSet
Validated: 1
EndChar

StartChar: uni0308.narrow
Encoding: 63646 63646 266
Width: 391
Flags: W
HStem: 542 139<49.5687 150.431 251.092 351.431>
VStem: 30 140<561.569 661.908> 232 139<561.569 661.908>
LayerCount: 2
Back
Fore
SplineSet
301 681 m 0
 339 681 371 650 371 612 c 0
 371 574 339 542 301 542 c 0
 263 542 232 574 232 612 c 0
 232 650 263 681 301 681 c 0
100 681 m 0
 138 681 170 650 170 612 c 0
 170 574 138 542 100 542 c 0
 62 542 30 574 30 612 c 0
 30 650 62 681 100 681 c 0
EndSplineSet
Validated: 1
EndChar

StartChar: uni0307
Encoding: 775 775 267
Width: 317
Flags: W
HStem: 521 136<104.406 203.594>
VStem: 87 134<538.86 639.14>
LayerCount: 2
Back
Fore
SplineSet
87 589 m 0
 87 626 117 657 154 657 c 0
 191 657 221 626 221 589 c 0
 221 552 191 521 154 521 c 0
 117 521 87 552 87 589 c 0
EndSplineSet
Validated: 1
EndChar

StartChar: hookabovecomb
Encoding: 777 777 268
Width: 180
Flags: W
HStem: 636 38<81.3663 134.234>
VStem: 17 61<580.057 634.21> 55 48<499.696 536.177> 136 54<571.328 635.43>
LayerCount: 2
Back
Fore
SplineSet
121 674 m 0xd0
 161 674 190 649 190 616 c 0
 190 579 166 553 139 542 c 0
 118 533 103 528 103 515 c 3
 103 513 103 510 104 507 c 1
 104 504 79 498 65 498 c 1
 60 501 55 512 55 515 c 3xb0
 55 543 83 556 100 564 c 0
 123 574 136 587 136 606 c 0
 136 618 132 636 111 636 c 0
 88 636 78 619 78 600 c 0
 78 583 53 578 39 578 c 0
 31 578 17 583 17 595 c 0
 17 646 71 674 121 674 c 0xd0
EndSplineSet
Validated: 1
EndChar

StartChar: uni030B
Encoding: 779 779 269
Width: 380
Flags: W
HStem: 522 165<177 190>
VStem: 28 312
LayerCount: 2
Back
Fore
SplineSet
294 687 m 0
 329 687 340 666 340 658 c 0
 340 619 194 522 184 522 c 0
 177 522 167 534 167 540 c 0
 167 545 223 635 260 678 c 0
 265 683 280 687 294 687 c 0
155 687 m 0
 190 687 201 666 201 658 c 0
 201 619 55 522 45 522 c 0
 38 522 28 534 28 540 c 0
 28 545 84 635 121 678 c 0
 126 683 141 687 155 687 c 0
EndSplineSet
Validated: 1
EndChar

StartChar: uni030C
Encoding: 780 780 270
Width: 285
Flags: W
HStem: 493 168
VStem: 31 236
LayerCount: 2
Back
Fore
SplineSet
149 587 m 5
 177 611 247 661 258 661 c 0
 264 661 267 648 267 638 c 1
 260 631 239 609 198 555 c 0
 180 532 172 518 161 503 c 0
 156 497 155 493 149 493 c 27
 143 493 140 496 136 503 c 0
 128 516 119 531 97 560 c 0
 55 614 38 631 31 638 c 1
 31 648 34 661 40 661 c 0
 51 661 121 611 149 587 c 5
EndSplineSet
Validated: 1
EndChar

StartChar: uni030C.cap
Encoding: 63647 63647 271
Width: 349
Flags: W
HStem: 702 141
VStem: 46 260
LayerCount: 2
Back
Fore
SplineSet
176 781 m 1
 207 801 284 843 296 843 c 0
 303 843 306 832 306 824 c 1
 298 818 276 800 230 754 c 0
 210 734 202 724 190 711 c 0
 185 706 179 702 175 702 c 0
 171 702 167 705 162 711 c 0
 153 722 143 734 119 758 c 0
 73 803 54 818 46 824 c 1
 46 832 49 843 56 843 c 0
 68 843 145 801 176 781 c 1
EndSplineSet
Validated: 1
EndChar

StartChar: uni0312
Encoding: 786 786 272
Width: 222
Flags: W
HStem: 633 14<131.466 140.201>
VStem: 1 79<513 577.536>
LayerCount: 2
Back
Fore
SplineSet
54 472 m 0
 39 472 24 476 14 481 c 1
 7 490 1 506 1 520 c 0
 1 576 62 626 126 647 c 1
 136 645 145 637 145 633 c 1
 128 626 80 599 80 570 c 0
 80 550 124 553 124 514 c 0
 124 505 110 472 54 472 c 0
EndSplineSet
Validated: 1
EndChar

StartChar: uni0326
Encoding: 806 806 273
Width: 222
Flags: W
HStem: -218 14<18.7994 27.5344>
VStem: 79 79<-148.536 -84>
LayerCount: 2
Back
Fore
SplineSet
105 -43 m 4
 120 -43 135 -47 145 -52 c 5
 152 -61 158 -77 158 -91 c 4
 158 -147 97 -197 33 -218 c 5
 23 -216 14 -208 14 -204 c 5
 31 -197 79 -170 79 -141 c 4
 79 -121 35 -124 35 -85 c 4
 35 -76 49 -43 105 -43 c 4
EndSplineSet
Validated: 1
EndChar

StartChar: uni0315
Encoding: 789 789 274
Width: 184
Flags: W
HStem: 419 241
VStem: 94 79<512.648 608.5>
LayerCount: 2
Back
Fore
SplineSet
124 660 m 0
 134 660 146 656 154 653 c 1
 162 642 173 627 173 590 c 0
 173 534 131 469 77 419 c 1
 69 419 52 426 52 432 c 1
 76 458 94 489 94 523 c 0
 94 576 56 574 56 612 c 0
 56 632 82 660 124 660 c 0
EndSplineSet
Validated: 1
EndChar

StartChar: dotbelowcomb
Encoding: 803 803 275
Width: 316
Flags: W
HStem: -192 148<102.625 207.375>
VStem: 81 148<-170.375 -65.625>
LayerCount: 2
Back
Fore
SplineSet
81 -118 m 0
 81 -77 114 -44 155 -44 c 0
 196 -44 229 -77 229 -118 c 0
 229 -159 196 -192 155 -192 c 0
 114 -192 81 -159 81 -118 c 0
EndSplineSet
Validated: 1
EndChar

StartChar: uni0237
Encoding: 567 567 378
Width: 286
Flags: W
HStem: -218 24<-10.4946 4.55321> 362 31<15.0323 75.1875> 426 20G<194 216.5>
VStem: 89 130<-43.1268 351.93>
LayerCount: 2
Back
Fore
SplineSet
89 64 m 2
 89 64 89 260 89 260 c 2
 89 270 88 327 80 342 c 0
 72 357 24 362 17 362 c 1
 14 364 13 393 18 393 c 1
 94 399 175 427 213 446 c 1
 220 444 230 432 230 429 c 1
 227 421 221 386 220 372 c 0
 219 350 219 315 219 309 c 2
 219 309 219 120 219 120 c 2
 219 36 208 -48 171 -102 c 0
 124 -170 36 -218 2 -218 c 1
 -5 -214 -12 -207 -12 -201 c 0
 -12 -199 -12 -195 -11 -194 c 0
 -7 -192 89 -142 89 64 c 2
EndSplineSet
Validated: 1
EndChar

StartChar: Aogonek
Encoding: 260 260 380
Width: 671
Flags: W
HStem: -218 70<474.5 556.862> -4 37<143.482 209.862 391.437 452.334 613.823 675.543> 4 29<150.7 206.364> 225 48<210 377.999> 642 20G<338.5 348.5>
VStem: 417 74<-166.968 -80.5667>
LayerCount: 2
Back
Fore
SplineSet
299 225 m 0xdc
 258 225 230 225 195 224 c 0
 192 224 189 221 188 219 c 2
 188 219 163 163 152 135 c 0
 142 110 130 76 130 69 c 0
 130 43 199 33 207 33 c 1
 213 26 211 0 208 -4 c 1xdc
 173 0 144 4 100 4 c 0xbc
 54 4 26 0 -9 -4 c 1
 -13 0 -15 21 -11 32 c 1
 1 32 49 48 59 64 c 0
 76 92 82 106 94 134 c 2
 94 134 307 624 307 624 c 2
 313 637 333 662 344 662 c 0
 353 662 359 658 361 655 c 2
 361 655 566 148 566 148 c 2
 579 117 585 97 594 76 c 0
 611 35 665 33 673 33 c 1
 678 24 679 0 675 -4 c 1xdc
 649 -3 622 0 593 2 c 1
 549 -24 491 -57 491 -101 c 0
 491 -122 503 -148 540 -148 c 0
 568 -148 605 -117 615 -109 c 1
 618 -109 621 -112 621 -120 c 0
 621 -125 617 -141 614 -145 c 0
 599 -164 547 -218 491 -218 c 0
 458 -218 417 -192 417 -140 c 0
 417 -84 490 -14 550 4 c 1
 548 4 547 4 545 4 c 0xbc
 499 4 430 -2 394 -4 c 1
 389 1 389 33 394 33 c 0
 411 33 439 39 453 51 c 0
 459 56 462 61 462 68 c 0
 462 77 402 220 402 220 c 1
 402 220 398 224 395 224 c 0
 357 226 324 225 299 225 c 0xdc
295 273 m 0
 326 273 344 273 375 275 c 0
 377 275 378 280 378 280 c 1
 378 280 295 476 295 476 c 1
 295 476 210 280 210 280 c 1
 210 280 210 276 212 276 c 0
 232 274 272 273 295 273 c 0
EndSplineSet
Validated: 33
EndChar

StartChar: aogonek
Encoding: 261 261 381
Width: 472
Flags: W
HStem: -218 70<267.5 349.862> -8 70<124 239.5> 411 38<174.394 289.5>
VStem: 31 135<78.1133 172.955> 43 108<292.124 371.344> 210 74<-166.968 -82.6311> 268 130<68.207 223 256.029 377.779>
LayerCount: 2
Back
Fore
SplineSet
454 46 m 1xea
 448 41 428 24 406 11 c 0
 371 -10 284 -57 284 -101 c 4
 284 -122 296 -148 333 -148 c 4
 361 -148 398 -117 408 -109 c 5
 411 -109 414 -112 414 -120 c 4
 414 -125 410 -141 407 -145 c 4
 392 -164 340 -218 284 -218 c 4
 251 -218 210 -192 210 -140 c 4
 210 -84 280 -26 326 0 c 1
 308 4 281 28 275 44 c 1
 266 36 198 -8 162 -8 c 0
 86 -8 31 55 31 114 c 0xf4
 31 153 57 186 83 194 c 0
 121 206 217 245 268 264 c 1
 268 271 268 278 268 285 c 2
 268 285 268 311 268 311 c 2
 268 361 244 411 209 411 c 0
 171 411 161 372 151 327 c 0
 146 304 130 283 95 283 c 0
 68 283 43 303 43 331 c 0
 43 344 49 358 57 372 c 1
 70 385 160 449 248 449 c 0
 331 449 398 386 398 296 c 2
 398 296 398 109 398 109 c 2
 398 82 409 68 422 68 c 0
 436 68 447 76 451 78 c 1
 455 76 458 67 458 61 c 0
 458 54 457 51 454 46 c 1xea
227 62 m 0
 252 62 268 77 268 83 c 2
 268 83 268 223 268 223 c 1xf2
 248 213 222 204 202 191 c 0
 174 173 165 146 166 124 c 0
 167 81 201 62 227 62 c 0
EndSplineSet
Validated: 33
Substitution2: "'smcp' Lowercase to Small Capitals in Latin lookup 0 subtable" aogonek.sc
EndChar

StartChar: dcroat
Encoding: 273 273 382
Width: 544
Flags: W
HStem: -8 64<165 294.956> 28 32<478.435 525.823> 395 51<210.607 324.309> 527 37<193.337 525.828> 624 32<269.328 326.529> 675 20<463.5 468>
VStem: 32 142<121.851 297.682> 339 130<70.4709 378.4 444.011 614.125>
LayerCount: 2
Back
Fore
SplineSet
524 527 m 1x3f
 495 527 209 527 195 527 c 1
 191 527 190 555 196 564 c 1
 225 564 510 564 524 564 c 1
 528 564 528 536 524 527 c 1x3f
EndSplineSet
Refer: 68 100 N 1 0 0 1 0 0 2
Validated: 37
Substitution2: "'smcp' Lowercase to Small Capitals in Latin lookup 0 subtable" dcroat.sc
EndChar

StartChar: Eogonek
Encoding: 280 280 383
Width: 602
Flags: W
HStem: -218 70<386.5 468.862> -3 37<35.7205 102.369> -2 44<257.273 455.213> 310 47<250 397.427> 620 37<36.6465 103.732 253.003 443.441>
VStem: 110 140<50.3979 306.897 358.474 616.164> 329 74<-166.968 -82.9124> 434 31<386.617 434.825>
LayerCount: 2
Back
Fore
SplineSet
181 657 m 0xdf
 223 657 447 663 506 664 c 1
 513 614 526 561 535 516 c 1
 532 513 519 511 512 511 c 0
 505 511 498 514 496 519 c 0
 475 574 449 620 388 620 c 2
 388 620 305 620 305 620 c 2
 282 620 260 619 255 608 c 0
 250 596 250 576 250 547 c 2
 250 547 250 368 250 368 c 2
 250 362 271 357 293 357 c 2
 293 357 346 357 346 357 c 2
 405 357 418 369 434 427 c 0
 435 432 439 435 446 435 c 0
 453 435 462 433 465 430 c 1
 465 430 465 238 465 238 c 1
 463 236 454 234 447 234 c 0
 440 234 434 237 433 242 c 0
 421 290 407 299 398 303 c 0
 386 308 360 310 322 310 c 0
 294 310 250 308 250 296 c 2
 250 296 250 141 250 141 c 2
 250 135 250 82 258 62 c 0
 264 48 297 42 323 42 c 2
 323 42 389 42 389 42 c 2
 427 42 459 52 482 75 c 0
 503 96 519 125 536 170 c 0
 537 174 543 176 550 176 c 0
 560 176 577 173 580 170 c 1
 561 116 533 42 526 -2 c 1
 478 -15 403 -57 403 -101 c 0
 403 -122 415 -148 452 -148 c 0
 480 -148 517 -117 527 -109 c 1
 530 -109 533 -112 533 -120 c 0
 533 -125 529 -141 526 -145 c 0
 511 -164 459 -218 403 -218 c 0
 370 -218 329 -192 329 -140 c 0
 329 -86 397 -23 456 -2 c 1
 380 -2 260 -2 167 -2 c 0xbf
 102 -2 51 -3 38 -3 c 1
 34 3 33 27 38 34 c 1
 51 35 97 38 102 51 c 0
 110 71 110 102 110 145 c 2
 110 145 110 513 110 513 c 2
 110 556 110 587 102 607 c 0
 97 620 51 622 38 623 c 1
 33 630 34 654 38 660 c 1
 83 657 139 657 181 657 c 0xdf
EndSplineSet
Validated: 33
EndChar

StartChar: eogonek
Encoding: 281 281 384
Width: 460
Flags: W
HStem: -218 70<267.5 349.862> -9 84<230.39 322.585> 242 40<163 290.823> 406 41<200.95 283.103>
VStem: 32 130<147.948 242 282 297.174> 210 74<-166.968 -62.2605> 305 124<289.978 370.347>
LayerCount: 2
Back
Fore
SplineSet
373 37 m 0
 301 -19 284 -57 284 -101 c 0
 284 -122 296 -148 333 -148 c 0
 361 -148 398 -117 408 -109 c 1
 411 -109 414 -112 414 -120 c 0
 414 -125 410 -141 407 -145 c 0
 392 -164 340 -218 284 -218 c 0
 251 -218 210 -192 210 -140 c 0
 210 -84 247 -32 277 -6 c 1
 266 -8 254 -9 242 -9 c 0
 130 -9 32 69 32 200 c 0
 32 326 139 447 254 447 c 0
 385 447 429 354 429 296 c 0
 429 274 417 255 402 254 c 0
 334 248 236 244 162 242 c 1
 162 102 257 75 302 75 c 0
 360 75 393 102 414 125 c 1
 421 123 426 113 426 107 c 0
 426 100 425 91 423 88 c 0
 415 76 398 56 373 37 c 0
163 282 m 1
 172 281 268 287 292 290 c 0
 304 291 305 300 305 306 c 0
 305 352 289 406 244 406 c 0
 185 406 163 316 163 282 c 1
EndSplineSet
Validated: 33
Substitution2: "'smcp' Lowercase to Small Capitals in Latin lookup 0 subtable" eogonek.sc
EndChar

StartChar: Hbar
Encoding: 294 294 385
Width: 741
Flags: W
HStem: -4 37<35.7205 101.998 258.002 324.279 416.721 482.998 639.002 705.279> 317 51<252 489> 489 46<37.2188 690.225> 625 37<35.7205 101.998 258.002 324.279 416.721 482.998 639.002 705.279>
VStem: 110 140<41.2661 309 368.001 616.734> 491 140<41.2661 314.998 368.001 616.734>
LayerCount: 2
Back
Fore
SplineSet
685 535 m 2
 689 535 691 526 691 521 c 0
 691 515 689 498 685 489 c 1
 685 489 42 489 42 489 c 2
 38 489 37 499 37 504 c 0
 37 510 37 526 43 535 c 1
 43 535 685 535 685 535 c 2
EndSplineSet
Refer: 40 72 N 1 0 0 1 -0 0 2
Validated: 5
EndChar

StartChar: hbar
Encoding: 295 295 386
Width: 583
Flags: W
HStem: -4 37<13.7205 79.9985 226.002 285.279 310.721 364.998 511.002 577.279> 365 1<219 306> 527 37<31.3937 367.338> 624 32<18.3281 75.5286> 675 20<212.5 217>
VStem: 88 130<41.2661 338.951 366.048 615.244> 373 130<41.2661 334.749>
LayerCount: 2
Back
Fore
SplineSet
36 564 m 1
 65 564 350 564 364 564 c 1
 365 564 368 561 368 556 c 0
 368 547 366 533 364 527 c 1
 335 527 49 527 35 527 c 1
 34 527 31 531 31 536 c 0
 31 545 32 558 36 564 c 1
EndSplineSet
Refer: 72 104 N 1 0 0 1 -0 0 2
Validated: 5
Substitution2: "'smcp' Lowercase to Small Capitals in Latin lookup 0 subtable" hbar.sc
EndChar

StartChar: Iogonek
Encoding: 302 302 387
Width: 360
Flags: W
HStem: -218 70<129.5 211.862> -4 37<35.7205 101.998 258.002 324.279> 625 37<35.7205 101.998 258.002 324.279>
VStem: 72 74<-166.968 -80.4249> 110 140<41.2661 616.734>
LayerCount: 2
Back
Fore
SplineSet
181 655 m 0xe8
 223 655 283 658 322 662 c 1
 326 656 327 632 322 625 c 1
 309 624 263 620 258 607 c 0
 250 587 250 556 250 513 c 2
 250 513 250 145 250 145 c 2xe8
 250 102 250 71 258 51 c 0
 263 38 309 34 322 33 c 1
 327 26 326 2 322 -4 c 1
 301 -2 274 0 246 1 c 5
 203 -25 146 -58 146 -101 c 4
 146 -122 158 -148 195 -148 c 4
 223 -148 260 -117 270 -109 c 5
 273 -109 276 -112 276 -120 c 4
 276 -125 272 -141 269 -145 c 4
 254 -164 202 -218 146 -218 c 4
 113 -218 72 -192 72 -140 c 4xf0
 72 -85 142 -17 201 3 c 5
 193 3 186 3 179 3 c 0
 137 3 77 0 38 -4 c 1
 34 2 33 26 38 33 c 1
 51 34 97 38 102 51 c 0
 110 71 110 102 110 145 c 2
 110 145 110 513 110 513 c 2
 110 556 110 587 102 607 c 0
 97 620 51 624 38 625 c 1
 33 632 34 656 38 662 c 1
 77 658 139 655 181 655 c 0xe8
EndSplineSet
Validated: 33
EndChar

StartChar: iogonek
Encoding: 303 303 388
Width: 315
Flags: W
HStem: -218 70<119.5 201.862> -4 37<26.7205 92.9985 239.002 298.279> 362 31<27.0323 87.1875> 426 20G<206 228.5> 544 144<103.796 208.727>
VStem: 62 74<-166.968 -81.3577> 84 145<565 667> 101 130<41.2661 351.93>
LayerCount: 2
Back
Fore
SplineSet
84 616 m 0xfa
 84 656 116 688 156 688 c 0
 196 688 229 656 229 616 c 0
 229 576 196 544 156 544 c 0
 116 544 84 576 84 616 c 0xfa
231 309 m 2xf9
 231 309 231 145 231 145 c 2xf9
 231 108 231 71 239 51 c 0
 244 38 283 34 296 33 c 1
 301 26 300 2 296 -4 c 1
 277 -2 256 0 235 1 c 1
 192 -25 136 -58 136 -101 c 0
 136 -122 148 -148 185 -148 c 0
 213 -148 250 -117 260 -109 c 1
 263 -109 266 -112 266 -120 c 0
 266 -125 262 -141 259 -145 c 0
 244 -164 192 -218 136 -218 c 0
 103 -218 62 -192 62 -140 c 0xfc
 62 -85 134 -17 191 3 c 1
 183 3 174 3 166 3 c 0
 124 3 68 0 29 -4 c 1
 25 2 24 26 29 33 c 1
 42 34 88 38 93 51 c 0
 101 71 101 102 101 145 c 2
 101 145 101 260 101 260 c 2
 101 270 100 327 92 342 c 0
 84 357 36 362 29 362 c 1
 26 364 25 393 30 393 c 0
 106 399 187 427 225 446 c 1
 232 444 242 432 242 429 c 1
 239 421 233 386 232 372 c 0
 231 350 231 315 231 309 c 2xf9
EndSplineSet
Validated: 33
Substitution2: "'smcp' Lowercase to Small Capitals in Latin lookup 0 subtable" iogonek.sc
EndChar

StartChar: kgreenlandic
Encoding: 312 312 391
Width: 603
Flags: W
HStem: -6 42<27.2382 94.1145 237.886 304.762 526.526 599.227> 362 31<27.0323 87.1875> 405 35<497.68 574.394> 426 20G<206 228.5>
VStem: 101 130<41.2661 201 236 351.93>
LayerCount: 2
Back
Fore
SplineSet
231 236 m 1xd8
 248 242 270 257 305 287 c 0
 375 347 393 368 393 383 c 0
 393 395 347 404 329 405 c 1
 326 414 326 437 331 439 c 1
 331 439 420 435 462 435 c 0
 498 435 528 438 573 440 c 1
 579 430 576 408 570 405 c 1xe8
 539 402 497 392 471 374 c 0
 450 359 400 310 339 256 c 1
 410 173 425 161 481 98 c 0
 536 37 568 36 600 36 c 1
 606 25 601 8 600 6 c 1
 584 0 537 -6 499 -6 c 0
 441 -6 392 18 362 53 c 2
 362 53 293 127 244 188 c 0
 240 194 231 201 231 201 c 1
 231 201 231 145 231 145 c 2
 231 102 231 71 239 51 c 0
 244 38 290 34 303 33 c 1
 308 26 307 2 303 -4 c 1
 264 0 208 3 166 3 c 0
 124 3 68 0 29 -4 c 1
 25 2 24 26 29 33 c 1
 42 34 88 38 93 51 c 0
 101 71 101 102 101 145 c 2
 101 145 101 260 101 260 c 2
 101 270 100 327 92 342 c 0
 84 357 36 362 29 362 c 1
 26 364 25 393 30 393 c 1
 106 399 187 427 225 446 c 1
 232 444 242 432 242 429 c 1
 239 421 233 386 232 372 c 0
 231 350 231 242 231 236 c 1xd8
EndSplineSet
Validated: 33
Substitution2: "'smcp' Lowercase to Small Capitals in Latin lookup 0 subtable" kgreenlandic.sc
EndChar

StartChar: Lslash
Encoding: 321 321 392
Width: 584
Flags: W
HStem: -3 37<40.7205 107.369> -2 44<262.273 473.133> 625 37<40.7205 106.998 263.002 329.279>
VStem: 115 140<50.3979 616.734>
LayerCount: 2
Back
Fore
SplineSet
40 180 m 5x30
 34 187 16 207 21 212 c 5
 21 212 373 456 373 456 c 5
 379 450 398 429 393 424 c 5
 393 424 40 180 40 180 c 5x30
EndSplineSet
Refer: 44 76 N 1 0 0 1 5 0 2
Validated: 37
EndChar

StartChar: lslash
Encoding: 322 322 393
Width: 312
Flags: W
HStem: -4 37<14.7205 80.9985 227.002 293.279> 423 20G<274.542 306> 624 32<19.3281 76.5286> 675 20<213.5 218>
VStem: 17 306 89 130<41.2661 615.244>
LayerCount: 2
Back
Fore
SplineSet
36 210 m 1xf8
 30 217 12 237 17 242 c 1
 17 242 303 443 303 443 c 1
 309 437 328 416 323 411 c 1
 323 411 36 210 36 210 c 1xf8
EndSplineSet
Refer: 76 108 N 1 0 0 1 1 0 2
Validated: 37
Substitution2: "'smcp' Lowercase to Small Capitals in Latin lookup 0 subtable" lslash.sc
EndChar

StartChar: Eng
Encoding: 330 330 394
Width: 759
Flags: W
HStem: -218 61<336.5 464.009> -4 37<30.2754 109.12 198.793 280.584> 632 30<36.4447 91.082 663.112 737.124> 633 37<489.275 568.12 657.793 739.584>
VStem: 124 61<47.3438 524> 583 61<243.338 618.656>
LayerCount: 2
Back
Fore
SplineSet
644 139 m 2xec
 644 -89 528 -218 346 -218 c 3
 327 -218 298 -207 289 -200 c 1
 282 -189 273 -178 273 -157 c 3
 273 -123 301 -90 333 -90 c 3
 378 -90 406 -157 437 -157 c 3
 500 -157 552 -69 552 68 c 1
 552 68 185 524 185 524 c 1
 185 524 185 141 185 141 c 2
 185 105 185 74 190 60 c 0
 197 41 270 34 278 34 c 1
 284 24 282 2 280 -4 c 1
 240 -2 198 4 154 4 c 0
 108 4 78 -2 32 -4 c 1
 27 5 30 33 32 33 c 1
 44 33 109 41 117 59 c 0
 124 74 124 106 124 144 c 0
 124 275 124 406 124 537 c 0
 124 565 122 589 109 608 c 0
 102 619 52 625 40 625 c 0
 35 625 33 657 38 662 c 1
 69 660 105 655 151 655 c 0
 186 655 228 658 260 662 c 1xec
 298 584 456 404 581 243 c 1
 583 250 583 270 583 284 c 2
 583 284 583 522 583 522 c 0
 583 560 583 592 576 607 c 0
 568 625 503 633 491 633 c 1
 489 633 486 661 491 670 c 1xdc
 537 668 567 662 613 662 c 0xec
 657 662 699 668 739 670 c 1xdc
 741 664 743 642 737 632 c 1
 729 632 656 625 649 606 c 0
 644 592 644 561 644 525 c 2
 644 525 644 139 644 139 c 2xec
EndSplineSet
Validated: 33
EndChar

StartChar: eng
Encoding: 331 331 395
Width: 579
Flags: W
HStem: -218 24<286.505 301.553> -4 37<26.7205 92.9985 239.002 298.279> 362 31<27.0323 87.1875> 365 1<233 319> 426 20G<206 228>
VStem: 101 130<41.2661 338.951> 386 130<-43.1268 334.749>
LayerCount: 2
Back
Fore
SplineSet
386 64 m 6xde
 386 64 386 224 386 224 c 2
 386 296 372 365 319 365 c 0xde
 279 365 231 329 231 309 c 2
 231 309 231 145 231 145 c 2
 231 108 231 71 239 51 c 0
 244 38 283 34 296 33 c 1
 301 26 300 2 296 -4 c 1
 257 0 208 3 166 3 c 0
 124 3 68 0 29 -4 c 1
 25 2 24 26 29 33 c 1
 42 34 88 38 93 51 c 0
 101 71 101 102 101 145 c 2
 101 145 101 260 101 260 c 2
 101 270 100 327 92 342 c 0
 84 357 36 362 29 362 c 1
 26 364 25 393 30 393 c 1xee
 106 399 187 427 225 446 c 1
 231 446 242 434 242 429 c 1
 240 421 232 373 232 372 c 0
 232 369 232 367 233 366 c 1
 235 366 238 369 240 371 c 0
 268 403 334 446 380 446 c 0
 494 446 516 368 516 210 c 2
 516 210 516 120 516 120 c 6
 516 36 505 -48 468 -102 c 4
 421 -170 333 -218 299 -218 c 5
 292 -214 285 -207 285 -201 c 4
 285 -199 285 -195 286 -194 c 4
 290 -192 386 -142 386 64 c 6xde
EndSplineSet
Validated: 33
Substitution2: "'smcp' Lowercase to Small Capitals in Latin lookup 0 subtable" eng.sc
EndChar

StartChar: OE
Encoding: 338 338 396
Width: 1015
Flags: W
HStem: -3 45<307.806 449.725 670.273 882.358> 310 47<663 810.427> 622 41<288.321 450.062 666.003 856.441>
VStem: 40 151<212.63 443.602> 523 140<68.4292 306.897 358.474 568.223> 847 31<386.617 434.825>
LayerCount: 2
Back
Fore
SplineSet
594 657 m 0
 636 657 860 663 919 664 c 1
 926 614 939 561 948 516 c 1
 945 513 932 511 925 511 c 0
 918 511 911 514 909 519 c 0
 888 574 862 620 801 620 c 2
 801 620 718 620 718 620 c 0
 695 620 673 619 668 608 c 0
 663 596 663 576 663 547 c 2
 663 547 663 368 663 368 c 2
 663 362 684 357 706 357 c 2
 706 357 759 357 759 357 c 2
 818 357 831 369 847 427 c 0
 848 432 852 435 859 435 c 0
 866 435 875 433 878 430 c 1
 878 430 878 238 878 238 c 1
 876 236 867 234 860 234 c 0
 853 234 847 237 846 242 c 0
 834 290 820 299 811 303 c 0
 799 308 773 310 735 310 c 0
 707 310 663 308 663 296 c 2
 663 296 663 141 663 141 c 2
 663 135 663 82 671 62 c 0
 677 48 710 42 736 42 c 0
 736 42 802 42 802 42 c 2
 840 42 872 52 895 75 c 0
 916 96 932 125 949 170 c 0
 950 174 956 176 963 176 c 0
 973 176 990 173 993 170 c 1
 974 116 946 42 939 -2 c 1
 911 -2 723 -3 588 -3 c 0
 519 -3 464 -3 451 -3 c 1
 429 -3 555 -3 379 -3 c 0
 203 -3 40 141 40 328 c 0
 40 515 201 663 377 663 c 0
 476 663 552 657 594 657 c 0
353 622 m 0
 235 622 191 484 191 363 c 3
 191 210 249 37 398 37 c 1
 431 37 483 46 502 69 c 0
 516 86 523 106 523 149 c 2
 523 149 523 481 523 481 c 2
 523 524 510 561 490 582 c 0
 472 601 431 622 353 622 c 0
EndSplineSet
Validated: 37
EndChar

StartChar: oe
Encoding: 339 339 397
Width: 786
Flags: W
HStem: -9 84<554.978 659.626> -7 42<229.597 324.713> 242 40<489 616.823> 406 41<209.207 300.568 527.709 609.103>
VStem: 32 142<118.592 313.407> 358 130<145.531 240.697> 631 124<289.978 370.347>
LayerCount: 2
Back
Fore
SplineSet
570 406 m 3x3e
 511 406 489 316 489 282 c 1
 498 281 594 287 618 290 c 0
 630 291 631 300 631 306 c 11
 631 352 615 406 570 406 c 3x3e
254 406 m 3
 181 406 174 310 174 237 c 27
 174 149 204 35 277 35 c 3x7e
 350 35 358 130 358 202 c 27
 358 291 327 406 254 406 c 3
628 75 m 0xbe
 686 75 719 102 740 125 c 1
 747 123 752 113 752 107 c 3
 752 100 751 91 749 88 c 0
 731 60 663 -9 568 -9 c 0xbe
 511 -9 458 12 419 49 c 1
 379 15 325 -7 267 -7 c 0x7e
 128 -7 32 91 32 217 c 0
 32 343 134 447 265 447 c 0
 335 447 394 423 436 382 c 1
 475 422 527 447 580 447 c 0
 711 447 755 354 755 296 c 0
 755 274 743 255 728 254 c 0
 660 248 562 244 488 242 c 1
 488 102 583 75 628 75 c 0xbe
EndSplineSet
Validated: 33
Substitution2: "'smcp' Lowercase to Small Capitals in Latin lookup 0 subtable" oe.sc
EndChar

StartChar: Tbar
Encoding: 358 358 398
Width: 634
Flags: W
HStem: -4 37<172.721 238.998 395.002 461.279> 308 40<161.337 514.828> 613 44<102.634 247 387 531.366>
VStem: 8 39<482.931 537.849> 247 140<41.2661 613> 587 39<482.931 537.849>
CounterMasks: 1 1c
LayerCount: 2
Back
Fore
SplineSet
513 308 m 1
 484 308 177 308 163 308 c 1
 159 308 158 339 164 348 c 1
 193 348 499 348 513 348 c 1
 517 348 517 317 513 308 c 1
EndSplineSet
Refer: 52 84 N 1 0 0 1 0 0 2
Validated: 37
EndChar

StartChar: tbar
Encoding: 359 359 399
Width: 344
Flags: W
HStem: -7 64<181 277.975> 273 37<11.3369 328.828> 381 47<14.9586 82 212 328.039>
VStem: 82 130<68.9375 381 428 500.009>
LayerCount: 2
Back
Fore
SplineSet
327 273 m 5
 298 273 27 273 13 273 c 5
 9 273 8 301 14 310 c 1
 43 310 313 310 327 310 c 1
 331 310 331 282 327 273 c 5
EndSplineSet
Refer: 84 116 N 1 0 0 1 0 0 2
Validated: 37
Substitution2: "'smcp' Lowercase to Small Capitals in Latin lookup 0 subtable" tbar.sc
EndChar

StartChar: Uogonek
Encoding: 370 370 400
Width: 751
Flags: W
HStem: -218 70<420.5 502.862> -5 74<324.314 490.419> 625 37<20.7205 86.9985 243.002 309.279 507.721 584.998 663.002 742.279>
VStem: 95 140<170.152 616.734> 363 74<-166.968 -71.1304> 593 62<158.366 615.567>
LayerCount: 2
Back
Fore
SplineSet
466 4 m 1
 435 -4 408 -5 374 -5 c 0
 223 -5 95 68 95 301 c 2
 95 301 95 513 95 513 c 2
 95 556 95 587 87 607 c 0
 82 620 36 624 23 625 c 1
 18 632 19 656 23 662 c 1
 62 658 124 655 166 655 c 0
 208 655 268 658 307 662 c 1
 311 656 312 632 307 625 c 1
 294 624 248 620 243 607 c 0
 235 587 235 556 235 513 c 2
 235 513 235 330 235 330 c 2
 235 262 237 212 260 159 c 0
 298 71 391 69 430 69 c 0
 524 69 593 122 593 286 c 2
 593 286 593 513 593 513 c 2
 593 556 593 587 585 607 c 0
 580 620 523 624 510 625 c 1
 505 632 506 656 510 662 c 1
 557 658 583 655 629 655 c 0
 673 655 699 660 740 662 c 1
 744 656 745 632 740 625 c 1
 727 624 668 620 663 607 c 0
 655 587 655 562 655 519 c 2
 655 519 655 318 655 318 c 2
 655 163 612 80 548 37 c 8
 491 -1 437 -57 437 -101 c 0
 437 -122 449 -148 486 -148 c 0
 514 -148 551 -117 561 -109 c 1
 564 -109 567 -112 567 -120 c 0
 567 -125 563 -141 560 -145 c 0
 545 -164 493 -218 437 -218 c 0
 404 -218 363 -192 363 -140 c 0
 363 -84 407 -30 466 4 c 1
EndSplineSet
Validated: 33
EndChar

StartChar: uogonek
Encoding: 371 371 401
Width: 566
Flags: W
HStem: -218 70<393.5 476.507> -5 61<163.5 313.462> 28 32<494.436 541.823> 362 31<9.83954 69.3438 281.84 341.344> 426 20G<189 211.5 461 483.5>
VStem: 84 130<87.0607 351.453> 336 74<-166.664 -69.8256> 356 130<70.4709 351.453>
LayerCount: 2
Back
Fore
SplineSet
212 -5 m 0xdd
 115 -5 84 80 84 174 c 2
 84 174 84 260 84 260 c 2
 84 270 82 327 74 342 c 0
 66 357 19 362 12 362 c 1
 9 364 7 393 12 393 c 0
 88 399 170 427 208 446 c 1
 215 444 224 432 224 429 c 1
 221 421 215 386 214 372 c 0
 213 350 214 315 214 309 c 2
 214 309 214 219 214 219 c 2
 214 113 230 56 292 56 c 0
 320 56 356 78 356 93 c 2
 356 93 356 260 356 260 c 2
 356 270 354 327 346 342 c 0
 338 357 291 362 284 362 c 1
 281 364 279 393 284 393 c 0
 360 399 442 427 480 446 c 1
 487 444 496 432 496 429 c 1
 493 421 487 386 486 372 c 0
 485 350 486 315 486 309 c 2
 486 309 486 108 486 108 c 2xdd
 486 93 485 80 494 70 c 0
 503 60 531 60 540 60 c 1
 542 58 542 54 542 47 c 0
 542 41 540 34 536 28 c 1
 529 27 520 27 512 25 c 0
 450 10 410 -59 410 -101 c 0
 410 -122 423 -148 460 -148 c 0
 488 -148 524 -117 534 -109 c 1
 537 -109 540 -112 540 -120 c 0
 540 -125 537 -141 534 -145 c 0
 519 -164 466 -218 410 -218 c 0
 377 -218 336 -192 336 -140 c 0xbe
 336 -84 382 -24 442 10 c 1
 404 1 371 -7 364 -7 c 0
 360 -7 356 2 356 17 c 2
 356 17 356 33 356 33 c 2
 356 35 355 40 352 38 c 0
 336 27 282 -5 212 -5 c 0xdd
EndSplineSet
Validated: 33
Substitution2: "'smcp' Lowercase to Small Capitals in Latin lookup 0 subtable" uogonek.sc
EndChar

StartChar: uni01EA
Encoding: 490 490 457
Width: 727
Flags: W
HStem: -218 76<420.5 505.926> -10 56<307.371 441.606> 611 56<281.259 428.82>
VStem: 43 156<204.749 449.761> 356 84<-166.5 -72.8477> 530 156<204.227 447.752>
LayerCount: 2
Back
SplineSet
534.493 43 m 4
 623.97 102.985 684 208.092 684 328 c 1028
EndSplineSet
Fore
SplineSet
349 611 m 0
 237 611 199 484 199 350 c 0
 199 226 242 46 380 46 c 0
 487 46 530 174 530 309 c 0
 530 443 494 611 349 611 c 0
364 667 m 4
 540 667 686 515 686 328 c 0
 686 208 630 111 544 48 c 0
 489 8 440 -55 440 -110 c 0
 440 -131 460 -142 481 -142 c 0
 509 -142 548 -120 561 -109 c 0
 562 -109 566 -119 566 -127 c 0
 566 -132 563 -145 560 -149 c 0
 545 -168 493 -218 437 -218 c 0
 404 -218 356 -193 356 -140 c 0
 356 -96 396 -32 443 1 c 1
 421 -7 389 -10 364 -10 c 0
 188 -10 43 141 43 328 c 0
 43 515 188 667 364 667 c 4
EndSplineSet
Validated: 1
EndChar

StartChar: uni01EB
Encoding: 491 491 458
Width: 522
Flags: W
HStem: -218 76<311.5 396.926> -7 55<215.948 318.205> 394 55<199.468 302.656>
VStem: 25 142<125.682 316.823> 247 84<-166.5 -73.3785> 351 144<123.525 315.622>
LayerCount: 2
Back
Fore
SplineSet
260 449 m 0
 391 449 495 347 495 221 c 0
 495 169 478 121 448 83 c 0
 389 8 331 -57 331 -110 c 0
 331 -131 351 -142 372 -142 c 0
 400 -142 439 -120 452 -109 c 0
 453 -109 457 -119 457 -127 c 0
 457 -132 454 -145 451 -149 c 0
 436 -168 384 -218 328 -218 c 0
 295 -218 247 -193 247 -140 c 0
 247 -98 287 -32 331 3 c 1
 309 -4 285 -7 260 -7 c 0
 129 -7 25 95 25 221 c 0
 25 347 129 449 260 449 c 0
246 394 m 0
 183 394 167 315 167 252 c 0
 167 163 181 48 270 48 c 0
 332 48 351 124 351 186 c 0
 351 277 337 394 246 394 c 0
EndSplineSet
Validated: 1
EndChar

StartChar: a.sc
Encoding: 65547 -1 473
Width: 500
VWidth: 0
Flags: W
HStem: -4 34<116.072 169.991 256.308 299.525 452.382 499.697> 131 38<158.001 258.999>
LayerCount: 2
Back
Fore
SplineSet
55 51 m 0
 64 64 69 81 79 103 c 0
 135 239 171 311 224 436 c 0
 229 448 246 461 254 461 c 0
 260 461 264 457 267 450 c 2
 267 450 416 114 416 114 c 2
 425 95 437 72 443 59 c 0
 456 33 492 30 497 30 c 1
 502 22 503 0 499 -4 c 1
 472 -2 412 2 382 2 c 0
 350 2 284 -2 259 -4 c 1
 254 1 254 30 259 30 c 0
 271 30 290 34 300 42 c 0
 304 45 306 48 306 52 c 0
 306 63 298 85 288 105 c 2
 288 105 277 128 277 128 c 17
 276 128 274 130 272 130 c 0
 246 132 230 131 213 131 c 0
 185 131 172 131 148 130 c 0
 146 130 142 127 141 127 c 1
 136 116 135 114 132 106 c 0
 126 89 114 63 114 53 c 0
 114 35 162 30 167 30 c 1
 173 24 171 0 168 -4 c 1
 144 -1 118 3 88 3 c 0
 56 3 33 -1 9 -4 c 1
 5 0 4 19 8 29 c 1
 16 29 48 40 55 51 c 0
259 174 m 9
 259 174 207 283 207 283 c 1
 207 283 158 174 158 174 c 17
 158 173 159 172 160 172 c 0
 174 170 194 169 210 169 c 0
 231 169 236 169 257 171 c 0
 258 171 259 173 259 174 c 9
EndSplineSet
Validated: 33
EndChar

StartChar: b.sc
Encoding: 65548 -1 474
Width: 528
VWidth: 0
Flags: W
HStem: -3 37<42.7205 91.8362 233.246 322.235> 224 36<228 297.463> 415 37<42.7205 91.8362 231.149 297.629>
VStem: 98 130<44.6152 224 260 403.385> 314 137<295.776 402.743> 350 140<58.2278 184.469>
LayerCount: 2
Back
Fore
SplineSet
228 370 m 2xf8
 228 370 228 260 228 260 c 1
 228 260 260 260 260 260 c 2
 291 260 314 285 314 332 c 0
 314 391 294 415 262 415 c 0
 248 415 234 415 231 408 c 0
 228 401 228 388 228 370 c 2xf8
287 452 m 0
 362 452 451 424 451 344 c 0xf8
 451 289 375 257 350 250 c 0
 343 248 344 246 345 246 c 0
 391 242 490 200 490 129 c 0xf4
 490 79 466 42 416 14 c 0
 382 -5 300 -4 239 -3 c 0
 205 -3 77 -2 45 -3 c 1
 41 3 40 27 45 33 c 1
 54 34 89 35 92 44 c 0
 98 57 98 78 98 106 c 2
 98 106 98 343 98 343 c 2
 98 371 98 391 92 404 c 0
 89 413 54 414 45 415 c 1
 40 421 41 446 45 452 c 1
 81 449 129 449 163 449 c 0
 197 449 240 452 287 452 c 0
228 224 m 1
 228 224 228 79 228 79 c 2
 228 75 228 49 233 41 c 0
 238 34 259 34 277 34 c 0
 309 34 350 58 350 124 c 0xf4
 350 172 328 224 263 224 c 2
 263 224 228 224 228 224 c 1
EndSplineSet
Validated: 33
EndChar

StartChar: c.sc
Encoding: 65549 -1 475
Width: 537
VWidth: 0
Flags: W
HStem: -6 40<264.247 410.144> 419 40<254.861 402.608>
VStem: 40 144<129.687 314.859> 467 35<101.529 141.938>
LayerCount: 2
Back
Fore
SplineSet
502 139 m 1
 502 131 482 31 471 27 c 0
 423 11 373 -6 303 -6 c 0
 159 -6 40 91 40 221 c 0
 40 354 158 459 302 459 c 0
 352 459 414 452 459 441 c 1
 461 434 487 351 487 343 c 0
 487 339 476 333 466 333 c 3
 462 333 456 333 453 335 c 1
 446 359 420 419 323 419 c 0
 226 419 184 333 184 241 c 0
 184 125 233 34 336 34 c 0
 377 34 403 46 421 62 c 0
 450 86 466 142 467 147 c 1
 481 147 494 143 502 139 c 1
EndSplineSet
Validated: 1
EndChar

StartChar: d.sc
Encoding: 65550 -1 476
Width: 630
VWidth: 0
Flags: W
HStem: -3 37<42.7205 91.8362 233.2 362.793> 415 37<42.7205 91.8362 231.149 347.025>
VStem: 98 130<49.6246 403.385> 440 148<130.82 323.827>
LayerCount: 2
Back
Fore
SplineSet
228 367 m 2
 228 367 228 100 228 100 c 2
 228 96 228 62 233 49 c 0
 237 40 258 34 276 34 c 0
 388 34 440 95 440 222 c 0
 440 350 367 415 265 415 c 0
 249 415 234 414 231 407 c 0
 228 399 228 386 228 367 c 2
161 449 m 0
 194 449 236 451 283 452 c 0
 466 452 588 371 588 230 c 0
 588 69 449 -3 278 -3 c 0
 245 -3 76 -3 45 -4 c 1
 41 2 40 27 45 33 c 1
 54 34 89 35 92 44 c 0
 98 57 98 78 98 106 c 2
 98 106 98 343 98 343 c 2
 98 371 98 391 92 404 c 0
 89 413 54 414 45 415 c 1
 40 421 41 446 45 452 c 1
 81 449 128 449 161 449 c 0
EndSplineSet
Validated: 33
EndChar

StartChar: e.sc
Encoding: 65551 -1 477
Width: 476
VWidth: 0
Flags: W
HStem: -2 40<43.7495 91.8362 233.201 378.579> 206 44<228 320.621> 416 34<43.3562 91.8362 231.149 360.602>
VStem: 98 130<50.5784 204.809 250.077 406.385> 342 27<261.871 293.906>
LayerCount: 2
Back
Fore
SplineSet
228 370 m 2
 228 370 228 257 228 257 c 2
 228 253 241 250 254 250 c 2
 254 250 286 250 286 250 c 2
 322 250 332 257 342 289 c 0
 343 292 345 294 352 294 c 0
 359 294 366 293 369 290 c 1
 369 290 369 165 369 165 c 1
 368 163 362 161 357 161 c 0
 352 161 346 163 345 166 c 0
 337 194 327 200 321 202 c 0
 313 205 300 206 275 206 c 0
 257 206 228 204 228 197 c 2
 228 197 228 100 228 100 c 2
 228 96 228 62 233 50 c 0
 237 41 259 38 276 38 c 0
 276 38 320 38 320 38 c 2
 345 38 365 45 380 59 c 0
 394 72 405 89 416 116 c 0
 417 118 423 119 428 119 c 0
 435 119 446 118 448 116 c 1
 435 79 416 28 411 -2 c 1
 380 -2 74 -2 45 -3 c 1
 41 3 40 27 45 33 c 1
 54 34 89 35 92 44 c 0
 98 57 98 78 98 106 c 2
 98 106 98 345 98 345 c 2
 98 373 98 394 92 407 c 0
 89 416 54 417 45 418 c 1
 40 424 41 447 45 453 c 1
 79 450 124 450 155 450 c 0
 186 450 353 455 397 456 c 1
 402 421 411 385 417 353 c 1
 415 351 407 350 402 350 c 0
 397 350 390 351 389 354 c 0
 375 387 357 416 317 416 c 2
 317 416 264 416 264 416 c 0
 249 416 234 415 231 408 c 0
 228 400 228 388 228 370 c 2
EndSplineSet
Validated: 33
EndChar

StartChar: f.sc
Encoding: 65552 -1 478
Width: 439
VWidth: 0
Flags: W
HStem: -4 37<42.7205 91.8362 232.173 292.279> 202 44<228 324.618> 416 34<43.3562 91.8362 231.149 362.602>
VStem: 98 130<45.6152 201.103 246.077 404.385> 340 29<255.848 288.822>
LayerCount: 2
Back
Fore
SplineSet
228 370 m 2
 228 370 228 253 228 253 c 2
 228 249 241 246 254 246 c 2
 254 246 286 246 286 246 c 2
 322 246 330 253 340 285 c 0
 341 288 344 289 351 289 c 0
 358 289 366 287 369 284 c 1
 369 284 369 161 369 161 c 1
 368 159 362 157 357 157 c 0
 352 157 349 159 348 162 c 0
 340 190 331 196 325 198 c 0
 317 201 300 202 275 202 c 0
 257 202 228 201 228 193 c 2
 228 193 228 104 228 104 c 2
 228 77 227 57 232 44 c 0
 235 36 283 34 290 33 c 1
 295 27 294 2 290 -4 c 1
 260 -1 191 2 158 2 c 0
 125 2 75 -1 45 -4 c 1
 41 2 40 27 45 33 c 1
 54 34 89 36 92 45 c 0
 98 58 98 79 98 107 c 2
 98 107 98 343 98 343 c 2
 98 371 98 392 92 405 c 0
 89 414 54 415 45 416 c 1
 40 422 41 447 45 453 c 1
 79 450 124 450 155 450 c 0
 186 450 353 455 397 456 c 1
 402 421 411 384 417 352 c 1
 415 350 406 349 401 349 c 0
 396 349 392 351 391 354 c 0
 377 388 359 416 319 416 c 2
 319 416 264 416 264 416 c 0
 249 416 234 415 231 408 c 0
 228 400 228 388 228 370 c 2
EndSplineSet
Validated: 33
EndChar

StartChar: g.sc
Encoding: 65553 -1 479
Width: 599
VWidth: 0
Flags: W
HStem: -6 40<261.866 391.853> 184 37<323.657 389.539 530.389 573.455> 419 40<258.219 419.329>
VStem: 39 144<132.165 312.127> 393 128<38.4386 174.852> 474 39<333.334 369.765>
LayerCount: 2
Back
Fore
SplineSet
389 167 m 0xf8
 382 183 338 184 327 184 c 0
 322 184 321 216 326 221 c 1
 370 219 415 215 459 215 c 0
 496 215 537 219 572 221 c 1
 576 208 574 184 571 184 c 1
 565 184 538 180 530 175 c 0
 526 172 521 159 521 146 c 0
 521 121 521 88 521 65 c 0xf8
 521 59 527 49 527 46 c 0
 527 39 510 31 499 28 c 0
 448 12 391 -6 317 -6 c 0
 164 -6 39 91 39 221 c 0
 39 350 163 459 315 459 c 0
 368 459 434 452 481 441 c 1
 483 434 513 351 513 343 c 0
 513 339 500 333 489 333 c 3
 484 333 478 333 474 335 c 1xf4
 467 359 438 419 334 419 c 0
 224 419 183 336 183 238 c 0
 183 119 237 34 334 34 c 0
 360 34 375 39 387 44 c 0
 390 45 393 48 393 54 c 0
 393 63 393 105 393 135 c 0
 393 148 395 153 389 167 c 0xf8
EndSplineSet
Validated: 33
EndChar

